<?xml version="1.0" standalone="no"?><!DOCTYPE svg PUBLIC "-//W3C//DTD SVG 1.1//EN" "http://www.w3.org/Graphics/SVG/1.1/DTD/svg11.dtd"><svg t="1628737423891" class="icon" viewBox="0 0 1024 1024" version="1.1" xmlns="http://www.w3.org/2000/svg" p-id="10532" xmlns:xlink="http://www.w3.org/1999/xlink" width="128" height="128"><defs><style type="text/css"></style></defs><path d="M96 886V544c0-35.346 28.654-64 64-64h192l1 0.008V374c0-35.346 28.654-64 64-64h191V204c0-35.346 28.654-64 64-64h192c35.346 0 64 28.654 64 64v682H96z m256-342H160v278h192V544z m256-170H417v448h191V374z m256-170H672v158.672c0.657 3.677 1 7.462 1 11.328v448h191V204z" p-id="10533" fill="#1890ff"></path></svg>