<?xml version="1.0" encoding="UTF-8"?>
<svg width="14px" height="14px" viewBox="0 0 14 14" version="1.1" xmlns="http://www.w3.org/2000/svg" xmlns:xlink="http://www.w3.org/1999/xlink">
    <title>icon_biaoqian</title>
    <g id="icon_biaoqian" stroke="none" stroke-width="1" fill="none" fill-rule="evenodd">
        <path d="M7.32104795,0.292970008 L13.0450845,0 C13.5716522,0 14,0.426303113 14,0.950565244 L13.743537,6.68298166 C13.743537,7.13377453 13.5189045,7.34964717 13.2069654,7.65168747 L13.0641828,7.79136977 L7.39835063,13.4294553 C7.03151728,13.7963895 6.5328087,14.0018094 6.01326839,13.999988 C5.49497461,14.0013627 4.99749426,13.7966971 4.63091448,13.4312693 L0.572978188,9.39227402 C0.204477621,9.02859352 -0.00198132363,8.53244703 1.43342958e-05,8.01540565 C1.43342958e-05,7.49477163 0.201925306,7.00497656 0.572978188,6.63853728 L6.23881035,0.999544753 C6.31611303,0.917912238 6.38432128,0.84353595 6.4434351,0.776415888 C6.7390042,0.454420974 6.88633403,0.29206299 7.3201385,0.29206299 L7.32104795,0.292970008 Z M9.63285298,6.32470562 C10.1348657,6.32470562 10.6350596,6.13422976 11.0161163,5.7550921 C11.3852159,5.39092253 11.5922888,4.89422168 11.5908916,4.37640968 C11.5908916,3.85668268 11.3871692,3.36688761 11.0161163,3.00044834 C10.4563889,2.445405 9.61723948,2.27981832 8.88776064,2.58046672 C8.1582818,2.88111511 7.68113045,3.58920377 7.67754975,4.37640968 C7.67754975,4.89704369 7.88035562,5.38683877 8.25049906,5.75327805 C8.63246526,6.13422976 9.13265911,6.32289157 9.63376242,6.32289157 L9.63285298,6.32470562 Z M9.04171479,3.78956261 C9.19875743,3.63383908 9.41140073,3.54672375 9.63285298,3.54738241 C10.093229,3.54738241 10.466719,3.91907153 10.467722,4.37822372 C10.4386799,4.81678309 10.0735383,5.15769637 9.63285298,5.15769637 C9.1921677,5.15769637 8.82702605,4.81678309 8.79798397,4.37822372 C8.79798397,4.15690891 8.88529053,3.94738547 9.04262424,3.78956261 L9.04171479,3.78956261 Z M3.44863811,6.64125837 C3.32296171,6.51501637 3.15201499,6.44394295 2.973643,6.4437724 C2.795271,6.44360247 2.62418821,6.51434946 2.49826978,6.64035134 C2.23505326,6.90253932 2.23423967,7.32772855 2.4964509,7.59091659 L6.3825024,11.4911366 L6.38341183,11.4938577 C6.50913662,11.6194231 6.67976108,11.6899797 6.85768655,11.6899797 C7.03561202,11.6899797 7.20623648,11.6194231 7.33196126,11.4938577 C7.59569984,11.2308196 7.59569984,10.8063305 7.33378016,10.5423854 L3.44863811,6.64216539 L3.44863811,6.64125837 Z" id="形状" fill="#0098FF" fill-rule="nonzero"></path>
    </g>
</svg>