<?xml version="1.0" encoding="UTF-8"?>
<svg width="48px" height="45px" viewBox="0 0 48 45" version="1.1" xmlns="http://www.w3.org/2000/svg" xmlns:xlink="http://www.w3.org/1999/xlink">
    <title>icon_nodata</title>
    <g id="icon_nodata" stroke="none" stroke-width="1" fill="none" fill-rule="evenodd">
        <g fill="#6D7581">
            <path d="M4.80000007,21.1840846 L5.44640004,21.1840846 C5.62062683,21.1875282 5.7600349,21.3280833 5.76000006,21.5002649 C5.76000006,21.6747965 5.62240006,21.8164453 5.44640004,21.8164453 L4.80000007,21.8164453 L4.80000007,22.4551296 C4.79651484,22.6272768 4.6542617,22.7650276 4.48000006,22.7649864 C4.39582662,22.7663396 4.31460981,22.7343329 4.2544841,22.676113 C4.1943584,22.6178932 4.16033112,22.5383087 4.16000006,22.4551296 L4.16000006,21.8164453 L3.51360005,21.8164453 C3.33937326,21.8130017 3.19996519,21.6724465 3.20000004,21.5002649 C3.20000004,21.3257334 3.33760003,21.1840846 3.51360005,21.1840846 L4.16000006,21.1840846 L4.16000006,20.5454002 C4.16348528,20.3732531 4.30573842,20.235509 4.48000006,20.2355434 C4.65664007,20.2355434 4.80000007,20.371501 4.80000007,20.5454002 L4.80000007,21.1840846 L4.80000007,21.1840846 Z M47.04,18.6546416 L47.04,18.0159573 C47.0396689,17.9327782 47.0056417,17.8531938 46.945516,17.7949739 C46.8853902,17.736754 46.8041734,17.7047474 46.72,17.7061005 C46.5457384,17.7060593 46.4034852,17.8438101 46.4,18.0159573 L46.4,18.6546416 L45.7536,18.6546416 C45.6694161,18.6549687 45.5888702,18.6885898 45.529947,18.7479979 C45.4710238,18.8074059 45.4386305,18.8876533 45.44,18.970822 C45.44,19.1402947 45.5808,19.2870024 45.7536,19.2870024 L46.4,19.2870024 L46.4,19.9256867 C46.4,20.0995859 46.54336,20.2355435 46.72,20.2355435 C46.8942616,20.2355779 47.0365148,20.0978339 47.04,19.9256867 L47.04,19.2870024 L47.6864,19.2870024 C47.8624,19.2870024 48,19.1453536 48,18.970822 C48.0000348,18.7986404 47.8606268,18.6580853 47.6864,18.6546416 L47.04,18.6546416 Z M23.79008,29.0885937 L7.67808004,29.0885937 C7.50846507,29.0887634 7.34577578,29.0221334 7.22602013,28.9034512 C7.10626448,28.7847689 7.03931876,28.6238221 7.03999489,28.456233 C7.03999489,28.1071698 7.32992005,27.8238722 7.67808004,27.8238723 L10.58048,27.8238723 C10.3564764,27.440337 10.2390186,27.0051278 10.2400001,26.5623126 L10.2400001,8.21752772 C10.2403388,7.54663241 10.5106148,6.90339461 10.9912804,6.42953399 C11.4719459,5.95567337 12.1235609,5.69007157 12.8025601,5.6912466 L14.72,5.6912466 L14.72,5.05572407 C14.7203387,4.38482875 14.9906148,3.74159096 15.4712803,3.26773034 C15.9519459,2.79386971 16.6035609,2.52826791 17.28256,2.52943652 L32.63744,2.52943652 C33.316543,2.5279313 33.9683558,2.79342482 34.4490953,3.26735838 C34.9298348,3.74129193 35.2000017,4.38472541 35.2,5.05572407 L35.2,23.4005089 C35.2,23.8602352 35.07584,24.2908728 34.85888,24.6620686 L38.39936,24.6620686 C38.75328,24.6620686 39.0399949,24.9428368 39.0399949,25.2944293 C39.0399949,25.6434925 38.7552,25.9267901 38.4,25.9267901 L30.72,25.9267901 L30.72,26.5623126 C30.72,27.0220389 30.59584,27.4526765 30.37888,27.8238723 L30.72192,27.8238723 C31.07392,27.8238723 31.36,28.1046404 31.36,28.456233 C31.36,28.8052961 31.07008,29.0885937 30.72192,29.0885937 L27.35488,29.0885937 C27.64736,29.5729821 27.584,30.2078722 27.1584,30.6283921 C26.9187828,30.8662682 26.5931117,31 26.25344,31 C25.9137684,31 25.5880972,30.8662682 25.34848,30.6283921 L23.79008,29.0885937 Z M26.12992,27.8238723 L28.16512,27.8238723 C28.86912,27.8238723 29.44,27.2610712 29.44,26.555989 L29.44,8.18780677 C29.44,7.50485718 28.88704,6.95596805 28.2048,6.95596805 L12.7552,6.95596805 C12.07296,6.95596805 11.52,7.50738662 11.52,8.18780677 L11.52,26.555989 C11.52,27.2560123 12.096,27.8238723 12.7942401,27.8238723 L22.50944,27.8238723 L22.18048,27.4982065 C21.855842,27.1791371 21.7288737,26.7127904 21.84768,26.2758532 L21.24352,25.6782723 C19.3611199,27.0627974 16.7164937,26.7779682 15.1801917,25.025245 C13.6438897,23.2725219 13.7362736,20.6455707 15.392,19.00244 C17.0527537,17.3556478 19.7198342,17.2588424 21.4983977,18.7807998 C23.2769612,20.3027572 23.5608965,22.9248142 22.14848,24.7841142 L22.75328,25.3816951 C23.1953808,25.2637378 23.667551,25.3889996 23.9904,25.7098903 L26.12992,27.8238723 L26.12992,27.8238723 Z M30.72,24.6620686 L32.64576,24.6620686 C33.3502877,24.6585898 33.9196567,24.093474 33.92,23.3973471 L33.92,5.05888585 C33.92,4.35823018 33.34912,3.7941644 32.64576,3.7941644 L17.2736,3.7941644 C16.5693225,3.79798976 16.0003414,4.36300441 16,5.05888585 L16,5.6912466 L28.15744,5.6912466 C28.836543,5.68973496 29.4883558,5.95522848 29.9690953,6.42916203 C30.4498348,6.90309558 30.7200017,7.54652907 30.72,8.21752772 L30.72,24.6620686 L30.72,24.6620686 Z M8.16000005,1.42281164 L9.11360004,1.42281164 C9.38240005,1.42281164 9.60000004,1.63338776 9.60000004,1.8970822 C9.60000004,2.15887955 9.38240005,2.37135276 9.11360004,2.37135276 L8.16000005,2.37135276 L8.16000005,3.31357023 C8.16000005,3.57916176 7.94688006,3.7941644 7.68000005,3.7941644 C7.55184656,3.79332861 7.42927824,3.74222451 7.33926017,3.65209502 C7.24924211,3.56196552 7.19914853,3.440194 7.20000004,3.31357023 L7.20000004,2.37135276 L6.24640005,2.37135276 C6.11814459,2.37253184 5.99470443,2.32314574 5.90341158,2.23412947 C5.81211873,2.1451132 5.7605055,2.02381126 5.76000005,1.8970822 C5.76000005,1.63528485 5.97760004,1.42281164 6.24640005,1.42281164 L7.20000004,1.42281164 L7.20000004,0.480594164 C7.20000004,0.215002642 7.41312003,0 7.68000005,0 C7.94496005,0 8.16000005,0.215002642 8.16000005,0.480594164 L8.16000005,1.42281164 Z M0.639994917,28.456233 C0.639994917,28.1071698 0.92992008,27.8238723 1.27808004,27.8238723 L5.12192004,27.8238723 C5.47392004,27.8238723 5.76000005,28.1046404 5.76000005,28.456233 C5.76000005,28.8052961 5.47008004,29.0885941 5.12192004,29.0885941 L1.27808004,29.0885941 C1.10846508,29.0887633 0.945775789,29.0221334 0.826020148,28.9034512 C0.706264508,28.7847689 0.639318788,28.6238221 0.639994917,28.456233 L0.639994917,28.456233 Z M20.82304,24.3686532 C21.6315464,23.5697975 21.947304,22.4054399 21.6513702,21.3141828 C21.3554363,20.2229256 20.4927704,19.3705567 19.3883302,19.0781552 C18.28389,18.7857537 17.1054664,19.0977424 16.29696,19.8965981 C15.0471176,21.131522 15.0471176,23.1337293 16.2969601,24.3686532 C17.5468025,25.6035771 19.5731975,25.6035771 20.82304,24.3686532 L20.82304,24.3686532 Z M14.0799971,9.485411 C14.0799971,9.13641461 14.3661478,8.85339926 14.71936,8.85305025 L21.76,8.85305025 C22.1134623,8.85305025 22.4,9.1361678 22.4,9.485411 C22.4,9.83465419 22.1134623,10.1177746 21.76,10.1177746 L14.72,10.1177746 C14.550105,10.1182776 14.3870209,10.0518165 14.2668864,9.93311606 C14.146752,9.81441558 14.0794881,9.65327806 14.0799971,9.485411 Z M14.0799884,12.6472147 C14.0799884,12.2981515 14.3648,12.0148539 14.71552,12.0148539 L24.96448,12.0148539 C25.3152,12.0148539 25.6,12.2956221 25.6,12.6472147 C25.6,12.9962778 25.3152,13.2795754 24.96448,13.2795754 L14.71552,13.2795754 C14.5462434,13.2794102 14.3840138,13.2125916 14.2647382,13.093909 C14.1454627,12.9752264 14.0789782,12.8144677 14.0799884,12.6472147 L14.0799884,12.6472147 Z M14.0799949,15.8090183 C14.0799949,15.4599552 14.36544,15.1766576 14.71872,15.1766576 L19.20128,15.1766576 C19.55392,15.1766576 19.84,15.4574258 19.84,15.8090183 C19.84,16.1580815 19.5545601,16.4413803 19.20128,16.4413803 L14.71872,16.4413803 C14.5489943,16.4417172 14.3861401,16.3751616 14.2662458,16.256461 C14.1463515,16.1377604 14.0793181,15.9767172 14.0799949,15.8090183 Z M1.92000005,12.0148539 C1.23405011,12.0148539 0.600206212,11.6532721 0.257231234,11.0663129 C-0.0857437446,10.4793536 -0.0857437446,9.75618991 0.257231234,9.16923062 C0.600206212,8.58227134 1.23405011,8.22068954 1.92000005,8.22068954 C2.98038675,8.22068954 3.83999999,9.07004219 3.83999999,10.1177717 C3.83999999,11.1655013 2.98038675,12.0148539 1.92000005,12.0148539 L1.92000005,12.0148539 Z M1.92000005,11.0663128 C2.26301587,11.0663734 2.58000177,10.8855957 2.75152737,10.5920912 C2.92305297,10.2985867 2.92305297,9.93695675 2.75152737,9.64345225 C2.58000177,9.34994774 2.26301587,9.16917008 1.92000005,9.16923061 C1.38987367,9.1693242 0.960171544,9.59397311 0.960171544,10.1177717 C0.960171544,10.6415703 1.38987367,11.0662192 1.92000005,11.0663128 L1.92000005,11.0663128 Z M41.6,8.22068954 C40.5396133,8.22068954 39.68,7.37133691 39.68,6.32360734 C39.68,5.27587777 40.5396133,4.42652514 41.6,4.42652514 C42.6603867,4.42652514 43.52,5.27587777 43.52,6.32360734 C43.52,7.37133691 42.6603867,8.22068954 41.6,8.22068954 L41.6,8.22068954 Z M41.6,7.27214844 C41.9430158,7.27220897 42.2600017,7.0914313 42.4315273,6.7979268 C42.6030529,6.5044223 42.6030529,6.14279235 42.4315273,5.84928785 C42.2600017,5.55578335 41.9430158,5.37500568 41.6,5.37506621 C41.0698736,5.3751598 40.6401715,5.79980871 40.6401715,6.32360733 C40.6401715,6.84740594 41.0698736,7.27205485 41.6,7.27214844 L41.6,7.27214844 Z" id="形状" fill-rule="nonzero"></path>
            <text id="暂无数据" font-family="PingFangSC-Light, PingFang SC" font-size="8" font-weight="300" line-spacing="10">
                <tspan x="8" y="44">暂无数据</tspan>
            </text>
        </g>
    </g>
</svg>