<?xml version="1.0" standalone="no"?><!DOCTYPE svg PUBLIC "-//W3C//DTD SVG 1.1//EN" "http://www.w3.org/Graphics/SVG/1.1/DTD/svg11.dtd"><svg t="1628731623521" class="icon" viewBox="0 0 1024 1024" version="1.1" xmlns="http://www.w3.org/2000/svg" p-id="5518" width="128" height="128" xmlns:xlink="http://www.w3.org/1999/xlink"><defs><style type="text/css"></style></defs><path d="M817.4 706.3H206.6c-42.1 0-76.3-34.2-76.3-76.3V269.1c0-42.1 34.2-76.3 76.3-76.3h610.7c42.1 0 76.3 34.2 76.3 76.3V630c0.1 42.1-34.1 76.3-76.2 76.3zM206.6 234.4c-19.1 0-34.7 15.6-34.7 34.7V630c0 19.1 15.6 34.7 34.7 34.7h610.7c19.1 0 34.7-15.6 34.7-34.7V269.1c0-19.1-15.6-34.7-34.7-34.7H206.6z" fill="#1574FF" p-id="5519"></path><path d="M428.7 831.2c-11.5 0-20.8-9.3-20.8-20.8V685.5c0-11.5 9.3-20.8 20.8-20.8s20.8 9.3 20.8 20.8v124.9c0 11.5-9.3 20.8-20.8 20.8zM595.3 831.2c-11.5 0-20.8-9.3-20.8-20.8V685.5c0-11.5 9.3-20.8 20.8-20.8s20.8 9.3 20.8 20.8v124.9c0 11.5-9.3 20.8-20.8 20.8z" fill="#1574FF" p-id="5520"></path><path d="M734.1 831.2H289.9c-11.5 0-20.8-9.3-20.8-20.8s9.3-20.8 20.8-20.8h444.2c11.5 0 20.8 9.3 20.8 20.8s-9.3 20.8-20.8 20.8z" fill="#1574FF" p-id="5521"></path><path d="M546.7 595.3h-69.4c-11.5 0-20.8-9.3-20.8-20.8v-236c0-11.5 9.3-20.8 20.8-20.8h69.4c11.5 0 20.8 9.3 20.8 20.8v236c0 11.5-9.3 20.8-20.8 20.8z m-48.6-41.7h27.8V359.3h-27.8v194.3zM407.9 595.3h-69.4c-11.5 0-20.8-9.3-20.8-20.8v-83.3c0-11.5 9.3-20.8 20.8-20.8h69.4c11.5 0 20.8 9.3 20.8 20.8v83.3c0 11.5-9.3 20.8-20.8 20.8z m-48.6-41.7h27.8V512h-27.8v41.6zM685.5 595.3h-69.4c-11.5 0-20.8-9.3-20.8-20.8V421.8c0-11.5 9.3-20.8 20.8-20.8h69.4c11.5 0 20.8 9.3 20.8 20.8v152.7c0 11.5-9.3 20.8-20.8 20.8z m-48.6-41.7h27.8v-111h-27.8v111z" fill="#FFE815" p-id="5522"></path></svg>