<?xml version="1.0" encoding="UTF-8"?>
<svg width="22px" height="22px" viewBox="0 0 22 22" version="1.1" xmlns="http://www.w3.org/2000/svg" xmlns:xlink="http://www.w3.org/1999/xlink">
    <title>头像</title>
    <defs>
        <path d="M0,11 C0,17.0754375 4.92525,22 11,22 C17.0754375,22 22,17.0754375 22,11 C22,4.92525 17.0754375,0 11,0 C4.92525,0 0,4.92525 0,11" id="path-1"></path>
        <polygon id="path-3" points="1.37172204e-16 0 20.0158 0 20.0158 12.2494137 1.37172204e-16 12.2494137"></polygon>
        <polygon id="path-5" points="1.37172204e-16 -1.04549835e-15 20.0158 -1.04549835e-15 20.0158 9.02143857 1.37172204e-16 9.02143857"></polygon>
        <path d="M6.93085575,2.626279 L7,2.626279 C6.47696822,2.16390594 6.07305623,1.39541002 6.22845966,0 C4.83051345,2.03763026 2.16948655,2.15880389 0.802347188,0.0529337438 C0.901613692,0.668368235 0.853007335,1.6345685 0,2.89094772 C0.462787286,4.0089339 4.14797066,7.15817278 6.93085575,2.626279 Z" id="path-7"></path>
        <polygon id="path-9" points="1.39431958 2.74852988 5.39431958 2.74852988 5.39431958 11.2494137 1.39431958 11.2494137"></polygon>
    </defs>
    <g id="定稿" stroke="none" stroke-width="1" fill="none" fill-rule="evenodd">
        <g id="首页" transform="translate(-1856.000000, -30.000000)">
            <g id="头像" transform="translate(1856.000000, 30.000000)">
                <g id="编组" transform="translate(0.000000, 0.000000)">
                    <mask id="mask-2" fill="white">
                        <use xlink:href="#path-1"></use>
                    </mask>
                    <use id="蒙版" fill="#EDEEF5" xlink:href="#path-1"></use>
                    <g mask="url(#mask-2)">
                        <g transform="translate(1.000000, 11.000000)">
                            <g>
                                <mask id="mask-4" fill="white">
                                    <use xlink:href="#path-3"></use>
                                </mask>
                                <g id="Clip-2"></g>
                            </g>
                            <g transform="translate(0.000000, 3.227975)">
                                <mask id="mask-6" fill="white">
                                    <use xlink:href="#path-5"></use>
                                </mask>
                                <g id="Clip-4"></g>
                                <path d="M0,9.02149743 C0.0567963532,6.56601157 -0.241251051,2.48991681 1.39318908,1.87604535 C3.42755794,1.11179597 4.80750809,0.990322052 7,0.662972599 C9.19249191,0.335623145 10.8595804,0.530001203 12.7900679,0 C14.701427,0.612694339 16.4762395,1.11179597 18.5109026,1.87604535 C20.1453428,2.48991681 19.9587682,6.56601157 20.0158589,9.02149743 L0,9.02149743 Z" id="Fill-3" fill="#9BCFFF" mask="url(#mask-6)"></path>
                            </g>
                        </g>
                    </g>
                    <g mask="url(#mask-2)">
                        <g transform="translate(8.000000, 12.000000)">
                            <g id="Fill-7" stroke="none" stroke-width="1" fill="none" fill-rule="evenodd">
                                <mask id="mask-8" fill="white">
                                    <use xlink:href="#path-7"></use>
                                </mask>
                                <use id="蒙版" fill="#EDE7E6" xlink:href="#path-7"></use>
                                <path d="M6.93085575,2.626279 C6.11234335,1.57446846 6.47173554,0.190999062 6.52264463,-0.784943177 C6.78796853,-1.39348664 2.44444915,0.224677107 0.909949768,0.224677107 C0.657131169,0.224677107 0.666829444,1.61923668 0.659697393,1.66870248 C0.6526484,1.71816828 3.35959019,2.84413392 6.93085575,2.626279 Z" fill="#E3DCDB" mask="url(#mask-8)"></path>
                            </g>
                            <mask id="mask-10" fill="white">
                                <use xlink:href="#path-9"></use>
                            </mask>
                            <g id="Clip-6" stroke="none" fill="none"></g>
                            <polygon id="Fill-5" stroke="none" fill="#5B85F2" fill-rule="evenodd" mask="url(#mask-10)" points="2.37547121 4.99988447 2.92030044 6.15602366 2.2121886 12.7387278 4.98491005 12.7387278 4.07806271 6.15602366 4.58322758 4.99988447 3.5 4.05386199"></polygon>
                        </g>
                    </g>
                    <polygon id="Fill-1" fill="#CBDEEF" mask="url(#mask-2)" points="8.50952179 14 6.76880443 15.0417321 8.61570072 18.4731241 11.5 16.1108597 14.3809602 18.4731241 16.3079183 15.0417321 14.4952946 14 11.4918697 15.6644342"></polygon>
                </g>
                <path d="M8.00000001,11 C6.39372082,10.529156 6.01528884,6.81597264 7.51736213,8.38357319 C7.52010439,9.27874076 7.68395447,10.1654501 8.00000001,11 Z M14.5703941,11 C16.1773589,10.529156 16.5557909,6.81597264 15.053032,8.38357319 C15.0502897,9.27874076 14.8864397,10.1654501 14.5703941,11 Z" id="Fill-9" fill="#EFE7E6"></path>
                <path d="M14.1979444,6.22641705 C11.1275286,6.9680049 9.43308016,5.45972709 8.80673666,5 C7.8032544,5.86279515 8.05379181,7.85590216 7.73129153,8.22024126 C7.67598673,8.14565215 7.62534619,8.06675983 7.57870359,7.98571589 C7.29884798,16.2105994 15.0674958,15.6533327 14.9995309,8.42177529 C14.3378722,7.32804079 14.4564777,7.30293868 14.1979444,6.22641705 Z" id="Fill-11" fill="#F7EDEB"></path>
                <path d="M14.3502811,5.79212008 C14.6357839,6.86293122 14.4933957,6.86293122 15.2670867,7.99521098 C15.8344601,8.18241084 17.4755567,2.82346557 12.6692286,2.09422432 C7.04416848,1.25392047 5.74112331,6.26431077 7.18679936,7.98193934 C7.5391375,7.62849483 7.416364,5.43727855 8.5104284,4.5969747 C9.19331055,5.04401914 11.003432,6.51437626 14.3502811,5.79212008 Z" id="Fill-13" fill="#363636"></path>
            </g>
        </g>
    </g>
</svg>