<?xml version="1.0" standalone="no"?><!DOCTYPE svg PUBLIC "-//W3C//DTD SVG 1.1//EN" "http://www.w3.org/Graphics/SVG/1.1/DTD/svg11.dtd"><svg class="icon" width="12px" height="12.00px" viewBox="0 0 1024 1024" version="1.1" xmlns="http://www.w3.org/2000/svg"><path d="M512 928.8c-24.6 0-49.3-7.3-70.8-21.9L259.1 783.1c-57.9-39.4-92.5-104.7-92.5-174.7V178.9c0-15.1 10-28.4 24.6-32.6 7.3-2.1 180.6-51.2 320.8-51.2 152.9 0 314.7 49.3 321.5 51.4 14.2 4.4 23.9 17.5 23.9 32.4v429.4c0 70-34.6 135.4-92.5 174.7L582.8 906.9c-21.5 14.6-46.1 21.9-70.8 21.9zM234.4 204.9v403.4c0 47.6 23.5 91.9 62.8 118.7l182.1 123.8c19.8 13.5 45.5 13.5 65.3 0L726.8 727c39.3-26.8 62.8-71.1 62.8-118.7V204.5C740 191.2 621.5 162.9 512 162.9c-101.2 0-225.7 28.8-277.6 42zM745.9 755h0.2-0.2z" fill="#3D6EC0" /><path d="M477.4 640.4L362.8 525.7c-13.2-13.2-13.2-34.7 0-47.9 13.2-13.2 34.7-13.2 47.9 0l66.6 66.6 135.9-136.8c13.2-13.3 34.6-13.3 47.9-0.1 13.3 13.2 13.3 34.6 0.1 47.9l-183.8 185z" fill="#3D6EC0" /></svg>