<?xml version="1.0" encoding="UTF-8"?>
<svg width="12px" height="12px" viewBox="0 0 12 12" version="1.1" xmlns="http://www.w3.org/2000/svg" xmlns:xlink="http://www.w3.org/1999/xlink">
    <title>anquan</title>
    <defs>
        <polygon id="path-1" points="0 0 12 0 12 12 0 12"></polygon>
    </defs>
    <g id="定稿" stroke="none" stroke-width="1" fill="none" fill-rule="evenodd">
        <g id="告警/告警分析" transform="translate(-1695.000000, -402.000000)">
            <g id="历史告警bg备份-2" transform="translate(1071.000000, 284.000000)">
                <g id="编组-5备份-8" transform="translate(624.000400, 113.000000)">
                    <g id="anquan" transform="translate(0.000000, 5.000200)">
                        <g id="编组">
                            <mask id="mask-2" fill="white">
                                <use xlink:href="#path-1"></use>
                            </mask>
                            <g id="Clip-2"></g>
                            <path d="M10.94,6.947 C10.94,8.335 9.423,9.601 6.431,10.712 C3.426,9.478 1.903,8.213 1.903,6.947 L1.903,2.373 C3.381,2.292 4.891,1.818 6.4,0.959 C7.484,1.654 9.008,2.118 10.94,2.341 L10.94,6.947 Z M11.442,1.627 C9.33,1.426 7.74,0.944 6.718,0.196 L6.449,1.24344979e-14 L6.159,0.174 C4.557,1.136 2.973,1.624 1.451,1.624 L1,1.624 L1,6.947 C1,8.579 2.71,10.059 6.227,11.472 L6.412,11.547 L6.6,11.479 C10.08,10.221 11.844,8.697 11.844,6.947 L11.844,1.665 L11.442,1.627 Z" id="Fill-1" fill="#3D6EC0" mask="url(#mask-2)"></path>
                        </g>
                        <path d="M4.2721,5.2917 C4.1071,5.1347 3.8211,5.1197 3.6341,5.2587 C3.4471,5.3977 3.4301,5.6387 3.5951,5.7957 L5.3141,7.4337 C5.4931,7.6027 5.7411,7.6887 5.9911,7.6887 C6.2631,7.6887 6.5201,7.5867 6.6921,7.4097 L9.4831,4.5257 C9.6401,4.3627 9.6111,4.1237 9.4181,3.9907 C9.2241,3.8577 8.9391,3.8827 8.7821,4.0457 L5.9921,6.9297 L4.2721,5.2917 Z" id="Fill-3" fill="#3D6EC0"></path>
                    </g>
                </g>
            </g>
        </g>
    </g>
</svg>