<?xml version="1.0" standalone="no"?><!DOCTYPE svg PUBLIC "-//W3C//DTD SVG 1.1//EN" "http://www.w3.org/Graphics/SVG/1.1/DTD/svg11.dtd"><svg t="1616058665423" class="icon" viewBox="0 0 1024 1024" version="1.1" xmlns="http://www.w3.org/2000/svg" p-id="2412" xmlns:xlink="http://www.w3.org/1999/xlink" width="200" height="200"><defs><style type="text/css"></style></defs><path d="M112 832h800c17.6 0 32 14.4 32 32s-14.4 32-32 32H112c-17.6 0-32-14.4-32-32s14.4-32 32-32z m112-32c-62.4 0-112-49.6-112-112V336c0-62.4 49.6-112 112-112s112 49.6 112 112v352c0 62.4-49.6 112-112 112z m0-512c-27.2 0-48 20.8-48 48v352c0 27.2 20.8 48 48 48s48-20.8 48-48V336c0-27.2-20.8-48-48-48z m288 512c-62.4 0-112-49.6-112-112V496c0-62.4 49.6-112 112-112s112 49.6 112 112v192c0 62.4-49.6 112-112 112z m0-352c-27.2 0-48 20.8-48 48v192c0 27.2 20.8 48 48 48s48-20.8 48-48V496c0-27.2-20.8-48-48-48z m288 352c-62.4 0-112-49.6-112-112V240c0-62.4 49.6-112 112-112s112 49.6 112 112v448c0 62.4-49.6 112-112 112z m0-608c-27.2 0-48 20.8-48 48v448c0 27.2 20.8 48 48 48s48-20.8 48-48V240c0-27.2-20.8-48-48-48z" p-id="2413"></path></svg>