<?xml version="1.0" standalone="no"?><!DOCTYPE svg PUBLIC "-//W3C//DTD SVG 1.1//EN" "http://www.w3.org/Graphics/SVG/1.1/DTD/svg11.dtd"><svg t="1616059776478" class="icon" viewBox="0 0 1024 1024" version="1.1" xmlns="http://www.w3.org/2000/svg" p-id="5035" xmlns:xlink="http://www.w3.org/1999/xlink" width="200" height="200"><defs><style type="text/css"></style></defs><path d="M907.1 920.6H119.3c-13.1 0-23.7-10.6-23.7-23.7s10.6-23.7 23.7-23.7h787.8c13.1 0 23.7 10.6 23.7 23.7s-10.6 23.7-23.7 23.7z" p-id="5036"></path><path d="M328.3 920.6h-63.6c-28.8 0-52.2-23.4-52.2-52.2V500.7c0-28.8 23.4-52.2 52.2-52.2h63.6c28.8 0 52.2 23.4 52.2 52.2v367.7c0 28.8-23.4 52.2-52.2 52.2zM264.7 496c-2.6 0-4.7 2.2-4.7 4.7v367.7c0 2.6 2.2 4.7 4.7 4.7h63.6c2.6 0 4.7-2.2 4.7-4.7V500.7c0-2.6-2.2-4.7-4.7-4.7h-63.6z m307.9 424.6H509c-28.8 0-52.2-23.4-52.2-52.2V196.8c0-28.8 23.4-52.2 52.2-52.2h63.6c28.8 0 52.2 23.4 52.2 52.2v671.7c0 28.7-23.5 52.1-52.2 52.1zM509 192c-2.6 0-4.7 2.2-4.7 4.7v671.7c0 2.6 2.2 4.7 4.7 4.7h63.6c2.6 0 4.7-2.2 4.7-4.7V196.8c0-2.6-2.2-4.7-4.7-4.7H509z m305.9 728.6h-63.6c-28.8 0-52.2-23.4-52.2-52.2V318.2c0-28.8 23.4-52.2 52.2-52.2h63.6c28.8 0 52.2 23.4 52.2 52.2v550.2c0 28.8-23.4 52.2-52.2 52.2z m-63.6-607.1c-2.6 0-4.7 2.2-4.7 4.7v550.2c0 2.6 2.2 4.7 4.7 4.7h63.6c2.6 0 4.7-2.2 4.7-4.7V318.2c0-2.6-2.2-4.7-4.7-4.7h-63.6zM118.7 917.6c-13.8 0-25-11.2-25-25V149.5c0-13.8 11.2-25 25-25s25 11.2 25 25v743.1c0 13.8-11.2 25-25 25z" p-id="5037"></path></svg>