<?xml version="1.0" standalone="no"?><!DOCTYPE svg PUBLIC "-//W3C//DTD SVG 1.1//EN" "http://www.w3.org/Graphics/SVG/1.1/DTD/svg11.dtd"><svg class="icon" width="14px" height="14.00px" viewBox="0 0 1024 1024" version="1.1" xmlns="http://www.w3.org/2000/svg"><path d="M972.8 216.576h-291.328a169.984 169.984 0 0 0-338.944 0H51.2A38.4 38.4 0 0 0 13.824 256v683.52a38.4 38.4 0 0 0 37.376 38.4h921.6a38.4 38.4 0 0 0 38.4-38.4V256a38.4 38.4 0 0 0-38.4-39.424z m-460.8-106.496a119.296 119.296 0 0 1 118.272 106.496H393.728A119.296 119.296 0 0 1 512 110.08z m421.376 183.296V460.8H90.624V293.376h842.752z m-505.856 245.248h168.448v83.456H427.52v-83.456zM90.624 901.12v-362.496h285.696v109.056a25.6 25.6 0 0 0 25.6 25.6h219.648a25.6 25.6 0 0 0 25.6-25.6v-109.056h285.696v362.496H90.624z" fill="#ffffff" /></svg>