<?xml version="1.0" encoding="utf-8"?>
<!-- Generator: Adobe Illustrator 24.0.0, SVG Export Plug-In . SVG Version: 6.00 Build 0)  -->
<svg version="1.1" id="图层_1" xmlns="http://www.w3.org/2000/svg" xmlns:xlink="http://www.w3.org/1999/xlink" x="0px" y="0px"
	 viewBox="0 0 14 14" style="enable-background:new 0 0 14 14;" xml:space="preserve">
<style type="text/css">
	.st0{fill:#46BC74;}
</style>
<g>
	<path class="st0" d="M11.7,13.9H2.3c-1.2,0-2.2-1-2.2-2.2V2.3c0-1.2,1-2.2,2.2-2.2h5.5c0.3,0,0.6,0.3,0.6,0.6S8.1,1.3,7.8,1.3H2.3
		c-0.5,0-1,0.4-1,1v9.4c0,0.5,0.4,1,1,1h9.4c0.5,0,1-0.4,1-1V4.6C12.7,4.3,13,4,13.3,4s0.6,0.3,0.6,0.6v7.1
		C13.9,12.9,12.9,13.9,11.7,13.9z"/>
	<path class="st0" d="M4.5,10.9c-0.1,0-0.3,0-0.4-0.1C3.9,10.6,3.8,10.2,4,10l8.1-9.6c0.2-0.2,0.6-0.3,0.8-0.1s0.3,0.6,0.1,0.8
		l-8,9.5C4.9,10.8,4.7,10.9,4.5,10.9z"/>
</g>
</svg>
