<?xml version="1.0" encoding="utf-8"?>
<!-- Generator: Adobe Illustrator 24.0.0, SVG Export Plug-In . SVG Version: 6.00 Build 0)  -->
<svg version="1.1" id="图层_1" xmlns="http://www.w3.org/2000/svg" xmlns:xlink="http://www.w3.org/1999/xlink" x="0px" y="0px"
	 viewBox="0 0 14 14" style="enable-background:new 0 0 14 14;" xml:space="preserve">
<style type="text/css">
	.st0{fill:#FFFFFF;}
</style>
<g>
	<path class="st0" d="M0,7c0-1.8,0.7-3.6,2.1-5c2.7-2.7,7.1-2.7,9.9,0C13.3,3.4,14,5.2,14,7c0,3.9-3.1,7-7,7S0,10.9,0,7z M12.9,7
		c0-1.6-0.6-3.1-1.8-4.3c-2.3-2.3-6.1-2.3-8.4,0l0,0c-2.3,2.4-2.3,6.1,0,8.5c2.3,2.3,6.1,2.3,8.4,0l0,0C12.3,10.1,13,8.6,12.9,7z
		 M7.5,10.5v-3h3c0.3-0.1,0.4-0.4,0.4-0.6c0-0.2-0.2-0.3-0.4-0.4h-3v-3C7.4,3.2,7.2,3.1,6.9,3.1c-0.2,0-0.4,0.2-0.4,0.4v3h-3
		C3.2,6.6,3,6.8,3.1,7.1c0,0.2,0.2,0.3,0.4,0.4h3v3C6.4,10.7,6.5,11,6.8,11c0.3,0.1,0.5-0.1,0.6-0.4C7.5,10.6,7.5,10.5,7.5,10.5
		L7.5,10.5z"/>
</g>
</svg>
