<?xml version="1.0" encoding="utf-8"?>
<!-- Generator: Adobe Illustrator 24.0.0, SVG Export Plug-In . SVG Version: 6.00 Build 0)  -->
<svg version="1.1" id="图层_1" xmlns="http://www.w3.org/2000/svg" xmlns:xlink="http://www.w3.org/1999/xlink" x="0px" y="0px"
	 viewBox="0 0 14 14" style="enable-background:new 0 0 14 14;" xml:space="preserve">
<style type="text/css">
	.st0{fill:#7F819D;}
</style>
<g>
	<path class="st0" d="M12.8,9.8c-0.2-0.1-0.6-0.1-0.7,0.2c-1.7,2.8-5.3,3.7-8.2,2.1C2.5,11.3,1.6,10,1.2,8.4l0.8,0.8
		c0.2,0.2,0.5,0.2,0.7,0c0.2-0.2,0.2-0.5,0-0.7L0.9,6.6C0.7,6.4,0.5,6.4,0.3,6.5C0.1,6.6,0,6.8,0,7c0,3.9,3.2,7,7,7
		c2.5,0,4.7-1.3,6-3.4C13.1,10.3,13,10,12.8,9.8z"/>
	<path class="st0" d="M7,0C4.3,0,1.8,1.5,0.7,3.9c-0.1,0.3,0,0.6,0.2,0.7c0.3,0.1,0.6,0,0.7-0.2c1.4-3,5-4.2,8-2.7
		c1.6,0.8,2.7,2.2,3.2,3.9l-0.9-0.9c-0.2-0.2-0.5-0.2-0.7,0c-0.2,0.2-0.2,0.5,0,0.7l0,0l2,2c0.1,0.1,0.2,0.2,0.4,0.2
		c0.1,0,0.1,0,0.2,0C13.8,7.4,14,7.2,14,7C14,3.1,10.8,0,7,0z"/>
</g>
</svg>
