<?xml version="1.0" encoding="utf-8"?>
<!-- Generator: Adobe Illustrator 24.0.0, SVG Export Plug-In . SVG Version: 6.00 Build 0)  -->
<svg version="1.1" id="图层_1" xmlns="http://www.w3.org/2000/svg" xmlns:xlink="http://www.w3.org/1999/xlink" x="0px" y="0px"
	 viewBox="0 0 14 14" style="enable-background:new 0 0 14 14;" xml:space="preserve">
<style type="text/css">
	.st0{fill:#FF8F3F;}
</style>
<g>
	<path class="st0" d="M12.8,9.4H3.6c-0.3,0-0.5-0.2-0.5-0.5s0.2-0.5,0.5-0.5h9.2c0.3,0,0.5,0.2,0.5,0.5C13.2,9.1,13,9.4,12.8,9.4z"
		/>
	<path class="st0" d="M12.7,9.2c-0.1,0-0.2,0-0.3-0.1L9.1,5.9c-0.2-0.2-0.2-0.5,0-0.7s0.5-0.2,0.7,0l3.3,3.3c0.2,0.2,0.2,0.5,0,0.7
		C12.9,9.2,12.8,9.2,12.7,9.2z"/>
	<path class="st0" d="M9.4,12.9c-0.1,0-0.2,0-0.3-0.1c-0.2-0.2-0.2-0.5,0-0.7l3.3-3.3c0.2-0.2,0.5-0.2,0.7,0s0.2,0.5,0,0.7l-3.4,3.2
		C9.6,12.8,9.5,12.9,9.4,12.9z"/>
	<path class="st0" d="M6,13.5H2.8c-1.3,0-2.4-1.1-2.4-2.4V2.9c0-1.3,1.1-2.4,2.4-2.4h8.3c1.3,0,2.4,1.1,2.4,2.4V6
		c0,0.3-0.2,0.5-0.5,0.5S12.6,6.2,12.6,6V2.9c0-0.8-0.6-1.4-1.4-1.4H2.8C2,1.5,1.4,2.1,1.4,2.9v8.3c0,0.8,0.6,1.4,1.4,1.4H6
		c0.3,0,0.5,0.2,0.5,0.5S6.3,13.5,6,13.5z"/>
</g>
</svg>
