<?xml version="1.0" encoding="utf-8"?>
<!-- Generator: Adobe Illustrator 24.0.0, SVG Export Plug-In . SVG Version: 6.00 Build 0)  -->
<svg version="1.1" id="图层_1" xmlns="http://www.w3.org/2000/svg" xmlns:xlink="http://www.w3.org/1999/xlink" x="0px" y="0px"
	 viewBox="0 0 14 14" style="enable-background:new 0 0 14 14;" xml:space="preserve">
<style type="text/css">
	.st0{fill:#FFFFFF;}
</style>
<g>
	<path class="st0" d="M13.7,6.3L12,4.4c-0.1-0.1-0.2-0.2-0.5-0.2H8.6C8.2,4.3,7.9,4.5,7.9,4.9v5.5c0,0.4,0.4,0.8,0.8,0.8h4.6
		c0.4,0,0.8-0.4,0.8-0.8V6.6C14,6.5,13.9,6.3,13.7,6.3z M13.1,10.3H8.7V5.1h2.8l1.6,1.6V10.3z"/>
	<path class="st0" d="M9.5,6.9h1.2c0.2,0,0.4-0.2,0.4-0.4S11,6,10.8,6H9.5C9.2,6,9.1,6.2,9.1,6.4S9.2,6.9,9.5,6.9z"/>
	<path class="st0" d="M9,7.8C9,8,9.2,8.1,9.4,8.1h2.9c0.2,0,0.4-0.2,0.4-0.4c0-0.2-0.2-0.4-0.4-0.4H9.5C9.2,7.2,9,7.5,9,7.8z"/>
	<path class="st0" d="M12.2,8.6H9.5C9.2,8.6,9.1,8.9,9.1,9C9,9.2,9.2,9.5,9.5,9.5h2.9c0.2,0,0.4-0.2,0.4-0.4
		C12.8,8.8,12.5,8.6,12.2,8.6z"/>
	<path class="st0" d="M8.2,11.9H7.1v-1.1l0,0c0.2,0,0.5-0.2,0.5-0.5c0-0.2-0.2-0.5-0.5-0.5H1.8c-0.4,0-0.6-0.3-0.6-0.6V2.8
		c0-0.4,0.3-0.6,0.6-0.6h9.6c0.4,0,0.6,0.2,0.6,0.6V4c0,0.2,0.2,0.5,0.6,0.5c0.2,0,0.5-0.2,0.5-0.5V2.8c0-1-0.8-1.8-1.7-1.8H1.8
		C0.8,1,0,1.8,0,2.8v6.4c0,1,0.8,1.7,1.7,1.7H6V12H3.9c-0.2,0-0.5,0.2-0.5,0.5S3.6,13,3.9,13h4.4c0.2,0,0.5-0.2,0.5-0.5
		C8.9,12.1,8.6,11.9,8.2,11.9z"/>
</g>
</svg>
