<?xml version="1.0" encoding="utf-8"?>
<!-- Generator: Adobe Illustrator 24.0.0, SVG Export Plug-In . SVG Version: 6.00 Build 0)  -->
<svg version="1.1" id="图层_1" xmlns="http://www.w3.org/2000/svg" xmlns:xlink="http://www.w3.org/1999/xlink" x="0px" y="0px"
	 viewBox="0 0 14 14" style="enable-background:new 0 0 14 14;" xml:space="preserve">
<style type="text/css">
	.st0{fill:#FFFFFF;}
</style>
<g>
	<path class="st0" d="M12.4,6.4L11,4.9c-0.1-0.1-0.2-0.2-0.4-0.2H8.3C8,4.8,7.7,5,7.7,5.3v4.4c0,0.3,0.3,0.6,0.6,0.6H12
		c0.3,0,0.6-0.3,0.6-0.6v-3C12.6,6.6,12.5,6.4,12.4,6.4z M11.9,9.6H8.4V5.5h2.2l1.3,1.3V9.6z"/>
	<path class="st0" d="M9,6.9h1c0.2,0,0.3-0.2,0.3-0.3S10.2,6.2,10,6.2H9c-0.2,0-0.3,0.2-0.3,0.3S8.8,6.9,9,6.9z"/>
	<path class="st0" d="M8.6,7.6c0,0.2,0.2,0.3,0.3,0.3h2.3c0.2,0,0.3-0.2,0.3-0.3c0-0.2-0.2-0.3-0.3-0.3H9C8.8,7.2,8.6,7.4,8.6,7.6z"
		/>
	<path class="st0" d="M11.2,8.3H9c-0.2,0-0.3,0.2-0.3,0.3C8.6,8.8,8.8,9,9,9h2.3c0.2,0,0.3-0.2,0.3-0.3C11.6,8.4,11.4,8.3,11.2,8.3z
		"/>
	<path class="st0" d="M8,10.9H7.1v-0.9h0c0.2,0,0.4-0.2,0.4-0.4c0-0.2-0.2-0.4-0.4-0.4H2.8C2.5,9.2,2.3,9,2.3,8.7V3.6
		c0-0.3,0.2-0.5,0.5-0.5h7.7c0.3,0,0.5,0.2,0.5,0.5v1C11,4.8,11.2,5,11.5,5c0.2,0,0.4-0.2,0.4-0.4v-1c0-0.8-0.6-1.4-1.4-1.4H2.8
		C2,2.2,1.4,2.8,1.4,3.6v5.1c0,0.8,0.6,1.4,1.4,1.4h3.4v0.9H4.5c-0.2,0-0.4,0.2-0.4,0.4c0,0.2,0.2,0.4,0.4,0.4H8
		c0.2,0,0.4-0.2,0.4-0.4C8.5,11.1,8.3,10.9,8,10.9z"/>
</g>
</svg>
