<?xml version="1.0" standalone="no"?><!DOCTYPE svg PUBLIC "-//W3C//DTD SVG 1.1//EN" "http://www.w3.org/Graphics/SVG/1.1/DTD/svg11.dtd"><svg class="icon" width="16px" height="16.00px" viewBox="0 0 1024 1024" version="1.1" xmlns="http://www.w3.org/2000/svg"><path d="M512 939c-57.497 0-113.289-11.268-165.828-33.489-50.731-21.458-96.286-52.17-135.4-91.283-39.113-39.113-69.825-84.669-91.283-135.4C97.268 626.289 86 570.496 86 513c0-57.497 11.268-113.289 33.489-165.828 21.458-50.731 52.17-96.286 91.283-135.4 39.114-39.113 84.668-69.825 135.4-91.283C398.711 98.268 454.503 87 512 87c57.496 0 113.289 11.268 165.827 33.489 50.731 21.458 96.287 52.17 135.4 91.283 39.113 39.114 69.825 84.668 91.283 135.4C926.732 399.711 938 455.503 938 513c0 77.386-20.967 153.172-60.634 219.167l-51.426-30.91C859.998 644.595 878 579.496 878 513c0-201.813-164.187-366-366-366S146 311.187 146 513s164.187 366 366 366c70.881 0 139.63-20.281 198.814-58.652l32.641 50.346C674.527 915.38 594.492 939 512 939z" fill="#ffffff" /><path d="M519 329l176-20-202 174h248L357 785l184-242H309z" fill="#ffffff" /></svg>