<?xml version="1.0" standalone="no"?><!DOCTYPE svg PUBLIC "-//W3C//DTD SVG 1.1//EN" "http://www.w3.org/Graphics/SVG/1.1/DTD/svg11.dtd"><svg class="icon" width="16px" height="16.00px" viewBox="0 0 1024 1024" version="1.1" xmlns="http://www.w3.org/2000/svg"><path d="M416 128l-64 0c-17.7 0-32 14.3-32 32s14.3 32 32 32l64 0c17.7 0 32-14.3 32-32S433.7 128 416 128z" fill="#ffffff" /><path d="M608 128l-64 0c-17.7 0-32 14.3-32 32s14.3 32 32 32l64 0c17.7 0 32-14.3 32-32S625.7 128 608 128z" fill="#ffffff" /><path d="M770.6 256l-2.6 0 0-256L192 0l0 256-2.6 0c-33.9 0-61.4 27.5-61.4 61.4l0 645.1c0 33.9 27.5 61.4 61.4 61.4l581.1 0c33.9 0 61.4-27.5 61.4-61.4L831.9 317.4C832 283.5 804.5 256 770.6 256zM256 64l448 0 0 192L256 256 256 64zM768 960 192 960l0-640 576 0L768 960z" fill="#ffffff" /></svg>