<?xml version="1.0" standalone="no"?><!DOCTYPE svg PUBLIC "-//W3C//DTD SVG 1.1//EN" "http://www.w3.org/Graphics/SVG/1.1/DTD/svg11.dtd"><svg class="icon" width="12px" height="12.00px" viewBox="0 0 1024 1024" version="1.1" xmlns="http://www.w3.org/2000/svg"><path d="M477 959.1H176.5c-29.7 0-53.9-24.5-53.9-54.5v-785c0-30.1 24.2-54.5 53.9-54.5h672.1c29.7 0 53.9 24.5 53.9 54.5V449c0 13.3-10.7 24-24 24s-24-10.7-24-24V119.6c0-3.6-2.7-6.5-5.9-6.5H176.5c-3.3 0-5.9 2.9-5.9 6.5v784.9c0 3.6 2.7 6.5 5.9 6.5H477c13.3 0 24 10.7 24 24s-10.7 24.1-24 24.1z" fill="#ffffff" /><path d="M486.1 458.1c-4.8 0-9.6-1.5-13.7-4.3l-83.8-58.5-83.8 58.5c-7.3 5.1-16.9 5.7-24.8 1.6-7.9-4.1-12.9-12.3-12.9-21.3V99.6h48v288.5l59.8-41.7c8.3-5.8 19.2-5.8 27.5 0l59.8 41.7V107h48v327.1c0 8.9-5 17.1-12.9 21.3-3.5 1.8-7.4 2.7-11.2 2.7zM775.4 658h-68.6c-7.6 0-14.7-4.1-18.5-10.7L654 587.9c-3.8-6.6-3.8-14.8 0-21.4l34.3-59.4c3.8-6.6 10.9-10.7 18.5-10.7h68.6c7.6 0 14.7 4.1 18.5 10.7l34.3 59.4c3.8 6.6 3.8 14.8 0 21.4l-34.3 59.4c-3.8 6.6-10.9 10.7-18.5 10.7z m-63.7-30h58.6l29.3-50.8-29.3-50.8h-58.6l-29.3 50.8 29.3 50.8z m90.5-55.1zM909.2 897.8h-68.6c-7.6 0-14.7-4.1-18.5-10.7l-34.3-59.4c-3.8-6.6-3.8-14.8 0-21.4l34.3-59.4c3.8-6.6 10.9-10.7 18.5-10.7h68.6c7.6 0 14.7 4.1 18.5 10.7l34.3 59.4c3.8 6.6 3.8 14.8 0 21.4l-34.3 59.4c-3.8 6.6-10.9 10.7-18.5 10.7z m-63.7-30h58.6l29.3-50.8-29.3-50.8h-58.6L816.2 817l29.3 50.8zM629 897.8h-68.6c-7.6 0-14.7-4.1-18.5-10.7l-34.3-59.4c-3.8-6.6-3.8-14.8 0-21.4l34.3-59.4c3.8-6.6 10.9-10.7 18.5-10.7H629c7.6 0 14.7 4.1 18.5 10.7l34.3 59.4c3.8 6.6 3.8 14.8 0 21.4l-34.3 59.4c-3.8 6.6-10.9 10.7-18.5 10.7z m-63.6-30H624l29.3-50.8-29.3-50.7h-58.6L536 817l29.4 50.8zM873.4 720.6c-3.7 0-7.1-2.6-7.8-6.4-6.1-29.7-22.4-56.8-45.9-76.2-3.4-2.8-3.9-7.9-1.1-11.3 2.8-3.4 7.9-3.9 11.3-1.1 26.3 21.7 44.6 52 51.4 85.3 0.9 4.3-1.9 8.6-6.2 9.4-0.6 0.3-1.2 0.3-1.7 0.3zM594.7 727.6c-0.4 0-0.8 0-1.2-0.1-4.4-0.7-7.4-4.8-6.7-9.1 0.5-3 1-6 1.6-8.9 8.2-37.8 30.4-70.6 62.6-92.4 3.7-2.5 8.6-1.5 11.1 2.2s1.5 8.6-2.2 11.1c-28.8 19.4-48.6 48.7-55.9 82.5-0.6 2.6-1.1 5.3-1.5 7.9-0.5 3.9-3.9 6.8-7.8 6.8zM734.7 890.8c-22.1 0-43.4-4.7-63.3-14-4-1.9-5.7-6.6-3.9-10.6s6.6-5.7 10.6-3.9c17.8 8.3 36.8 12.5 56.5 12.5 19.7 0 38.7-4.2 56.4-12.5 4-1.9 8.8-0.1 10.6 3.9 1.9 4 0.1 8.8-3.9 10.6-19.7 9.3-41 14-63 14zM740.4 936.1c-30.5 0-59.9-6.7-87.1-20-2.5-1.2-3.5-4.2-2.3-6.7 1.2-2.5 4.2-3.5 6.7-2.3 25.9 12.6 53.8 19 82.8 19 30.8 0 61.4-7.6 88.5-21.9 2.4-1.3 5.5-0.4 6.8 2.1 1.3 2.4 0.4 5.5-2.1 6.8-28.6 15.1-60.8 23-93.3 23zM935.2 741.4c-2.8 0-5-2.2-5-5 0-63.3-31.4-122.1-83.9-157.5-2.3-1.5-2.9-4.7-1.4-6.9 1.5-2.3 4.6-2.9 6.9-1.4 55.3 37.2 88.3 99.2 88.3 165.8 0.1 2.7-2.1 5-4.9 5zM547.1 717.6h-0.6c-2.7-0.3-4.7-2.8-4.4-5.6 7.2-59.4 40.4-111.9 91-144.2 2.3-1.5 5.4-0.8 6.9 1.5s0.8 5.4-1.5 6.9c-48.1 30.7-79.6 80.6-86.5 137-0.2 2.6-2.4 4.4-4.9 4.4z" fill="#ffffff" /></svg>