<?xml version="1.0" standalone="no"?><!DOCTYPE svg PUBLIC "-//W3C//DTD SVG 1.1//EN" "http://www.w3.org/Graphics/SVG/1.1/DTD/svg11.dtd"><svg class="icon" width="11px" height="11.00px" viewBox="0 0 1024 1024" version="1.1" xmlns="http://www.w3.org/2000/svg"><path d="M988.968421 404.210526c0-21.557895-5.389474-53.894737-21.557895-86.231579v-2.694736L827.284211 107.789474c-26.947368-45.810526-70.063158-72.757895-123.957895-72.757895H323.368421c-53.894737 0-99.705263 26.947368-123.957895 72.757895l-137.431579 207.494737v2.694736c-21.557895 32.336842-26.947368 64.673684-26.947368 86.231579v479.663158c0 59.284211 48.505263 105.094737 107.789474 105.094737h735.663158c59.284211 0 107.789474-48.505263 107.789473-105.094737V404.210526h2.694737z m-37.726316 0v118.568421H72.757895V404.210526c0-16.168421 2.694737-37.726316 13.473684-59.28421h851.536842c10.778947 21.557895 13.473684 43.115789 13.473684 59.28421zM72.757895 557.810526h878.48421v177.852632H72.757895v-177.852632z m250.610526-485.052631h377.263158c29.642105 0 70.063158 10.778947 91.621053 53.894737l118.568421 177.852631H110.484211l118.568421-177.852631c24.252632-43.115789 64.673684-53.894737 94.315789-53.894737z m557.810526 878.48421H142.821053c-40.421053 0-70.063158-29.642105-70.063158-67.368421v-107.789473h878.48421v107.789473c0 37.726316-32.336842 67.368421-70.063158 67.368421z" fill="#ffffff" /><path d="M123.957895 417.684211h105.094737c10.778947 0 18.863158-8.084211 18.863157-18.863158s-8.084211-18.863158-18.863157-18.863158H123.957895c-10.778947 0-18.863158 8.084211-18.863158 18.863158s8.084211 18.863158 18.863158 18.863158zM229.052632 447.326316H123.957895c-10.778947 0-18.863158 8.084211-18.863158 18.863158s8.084211 18.863158 18.863158 18.863158h105.094737c10.778947 0 18.863158-8.084211 18.863157-18.863158s-8.084211-18.863158-18.863157-18.863158zM229.052632 595.536842H123.957895c-10.778947 0-18.863158 8.084211-18.863158 18.863158s8.084211 18.863158 18.863158 18.863158h105.094737c10.778947 0 18.863158-8.084211 18.863157-18.863158s-8.084211-18.863158-18.863157-18.863158zM229.052632 662.905263H123.957895c-10.778947 0-18.863158 8.084211-18.863158 18.863158s8.084211 18.863158 18.863158 18.863158h105.094737c10.778947 0 18.863158-8.084211 18.863157-18.863158s-8.084211-18.863158-18.863157-18.863158zM229.052632 803.031579H123.957895c-10.778947 0-18.863158 8.084211-18.863158 18.863158s8.084211 18.863158 18.863158 18.863158h105.094737c10.778947 0 18.863158-8.084211 18.863157-18.863158s-8.084211-18.863158-18.863157-18.863158zM229.052632 870.4H123.957895c-10.778947 0-18.863158 8.084211-18.863158 18.863158s8.084211 18.863158 18.863158 18.863158h105.094737c10.778947 0 18.863158-8.084211 18.863157-18.863158s-8.084211-18.863158-18.863157-18.863158zM797.642105 485.052632c29.642105 0 53.894737-24.252632 53.894737-53.894737s-24.252632-53.894737-53.894737-53.894737-53.894737 24.252632-53.894737 53.894737 24.252632 53.894737 53.894737 53.894737z m0-67.368421c8.084211 0 16.168421 8.084211 16.168421 16.168421s-8.084211 16.168421-16.168421 16.168421-16.168421-8.084211-16.168421-18.863158 8.084211-13.473684 16.168421-13.473684zM797.642105 595.536842c-29.642105 0-53.894737 24.252632-53.894737 53.894737s24.252632 53.894737 53.894737 53.894737 53.894737-24.252632 53.894737-53.894737c-2.694737-32.336842-24.252632-53.894737-53.894737-53.894737z m0 67.368421c-8.084211 0-16.168421-8.084211-16.168421-16.168421s8.084211-16.168421 16.168421-16.168421 16.168421 8.084211 16.168421 16.168421-8.084211 16.168421-16.168421 16.168421zM797.642105 803.031579c-29.642105 0-53.894737 24.252632-53.894737 53.894737s24.252632 53.894737 53.894737 53.894737 53.894737-24.252632 53.894737-53.894737c-2.694737-29.642105-24.252632-53.894737-53.894737-53.894737z m0 67.368421c-8.084211 0-16.168421-8.084211-16.168421-16.168421s8.084211-16.168421 16.168421-16.168421 16.168421 8.084211 16.168421 16.168421-8.084211 16.168421-16.168421 16.168421z" fill="#ffffff" /></svg>