<?xml version="1.0" standalone="no"?><!DOCTYPE svg PUBLIC "-//W3C//DTD SVG 1.1//EN" "http://www.w3.org/Graphics/SVG/1.1/DTD/svg11.dtd"><svg class="icon" width="16px" height="16.00px" viewBox="0 0 1024 1024" version="1.1" xmlns="http://www.w3.org/2000/svg"><path d="M65.92192 493.376c0-232.96 189.44-422.4 422.4-422.4 232.96 0 422.464 189.44 422.464 422.4 0 232.96-189.44 422.464-422.4 422.464-232.96 0-422.464-189.504-422.464-422.4m932.672 438.848l-131.84-130.176a488.32 488.32 0 1 0-73.472 72.768l132.48 130.816a51.648 51.648 0 1 0 72.896-73.408" fill="#ffffff" /><path d="M295.29792 684.096h375.488v-311.04a187.776 187.776 0 0 0-375.488 0v311.04z m403.52 56H267.26592a28.032 28.032 0 0 1-28.032-27.968V372.992a243.84 243.84 0 0 1 487.616 0v339.136a28.032 28.032 0 0 1-28.032 27.968z" fill="#ffffff" /><path d="M459.77792 631.936a28.032 28.032 0 0 1-23.552-43.712l64.448-96.384h-87.68a28.032 28.032 0 0 1-24.64-14.848 28.032 28.032 0 0 1 1.408-28.032l93.312-140.16a28.032 28.032 0 0 1 46.72 30.336l-64.384 96.64h87.68c10.24 0 19.776 5.568 24.704 14.592a28.032 28.032 0 0 1-1.408 28.032L483.07392 619.328a28.032 28.032 0 0 1-23.296 12.608m331.52 112.128H174.78592a28.032 28.032 0 0 1 0-56.064h616.512a28.032 28.032 0 0 1 0 56.064" fill="#ffffff" /></svg>