<?xml version="1.0" encoding="UTF-8"?>
<svg width="70px" height="83px" viewBox="0 0 70 83" version="1.1" xmlns="http://www.w3.org/2000/svg" xmlns:xlink="http://www.w3.org/1999/xlink">
    <title>组_slice</title>
    <g id="定稿" stroke="none" stroke-width="1" fill="none" fill-rule="evenodd" opacity="0.5">
        <g id="画板" transform="translate(-436.000000, -24.000000)" fill="#F5F6FF" fill-rule="nonzero">
            <g id="编组" transform="translate(436.000000, 24.000000)">
                <path d="M34.9949833,16.3507863 C51.3623991,16.3507863 64.6307835,29.6191707 64.6307835,45.9865865 L64.6307835,67.6327979 C64.6307835,69.2746584 63.2997737,70.6056681 61.6579132,70.6056681 L8.33205334,70.6056681 C6.69019285,70.6056681 5.3591831,69.2746584 5.3591831,67.6327979 L5.3591831,45.9865865 C5.3591831,29.6191707 18.6275675,16.3507863 34.9949833,16.3507863 Z M32.3937218,0 L37.5962447,0 C38.0067125,0 38.3394623,0.332749836 38.3394623,0.743217559 L38.3394623,9.66182827 C38.3394623,10.072296 38.0067125,10.4050458 37.5962447,10.4050458 L32.3937218,10.4050458 C31.9832541,10.4050458 31.6505043,10.072296 31.6505043,9.66182827 L31.6505043,0.743217559 C31.6505043,0.332749836 31.9832541,0 32.3937218,0 Z M3.89643804,11.4880067 C4.03581947,11.3486181 4.22486557,11.2703098 4.42198576,11.2703098 C4.61910594,11.2703098 4.80815204,11.3486181 4.94753347,11.4880067 L11.2539203,17.7943935 C11.3933089,17.9337749 11.4716172,18.122821 11.4716172,18.3199412 C11.4716172,18.5170614 11.3933089,18.7061075 11.2539203,18.8454889 L7.57517915,22.5242301 C7.43579772,22.6636187 7.24675163,22.741927 7.04963144,22.741927 C6.85251125,22.741927 6.66346515,22.6636187 6.52408372,22.5242301 L0.217696924,16.2178433 C0.0783083112,16.0784618 5.28087838e-15,15.8894157 5.28087838e-15,15.6922956 C5.28087838e-15,15.4951754 0.0783083112,15.3061293 0.217696924,15.1667478 L3.89643804,11.4880067 L3.89643804,11.4880067 Z M66.103562,11.4880067 L69.7823031,15.1667478 C69.9216917,15.3061293 70,15.4951754 70,15.6922956 C70,15.8894157 69.9216917,16.0784618 69.7823031,16.2178433 L63.4759163,22.5242301 C63.3365348,22.6636187 63.1474888,22.741927 62.9503686,22.741927 C62.7532484,22.741927 62.5642023,22.6636187 62.4248208,22.5242301 L58.7460797,18.8454889 C58.6066911,18.7061075 58.5283828,18.5170614 58.5283828,18.3199412 C58.5283828,18.122821 58.6066911,17.9337749 58.7460797,17.7943935 L65.0524665,11.4880067 C65.191848,11.3486181 65.3808941,11.2703098 65.5780142,11.2703098 C65.7751344,11.2703098 65.9641805,11.3486181 66.103562,11.4880067 L66.103562,11.4880067 Z M5.2662809,76.5514086 L64.7236857,76.5514086 C66.3655462,76.5514086 67.6965559,77.8824184 67.6965559,79.5242789 L67.6965559,81.7539315 C67.6965559,82.1643993 67.3638061,82.4971491 66.9533383,82.4971491 L3.03662822,82.4971491 C2.6261605,82.4971491 2.29341067,82.1643993 2.29341067,81.7539315 L2.29341067,79.5242789 C2.29341067,77.8824184 3.62442041,76.5514086 5.2662809,76.5514086 Z M19.0158058,47.1014128 L19.0158058,70.6056681 L24.9615462,70.6056681 L24.9615462,47.1014128 L19.0158058,47.1014128 Z" id="形状"></path>
            </g>
        </g>
    </g>
</svg>