<?xml version="1.0" standalone="no"?><!DOCTYPE svg PUBLIC "-//W3C//DTD SVG 1.1//EN" "http://www.w3.org/Graphics/SVG/1.1/DTD/svg11.dtd"><svg class="icon" width="15px" height="15.00px" viewBox="0 0 1024 1024" version="1.1" xmlns="http://www.w3.org/2000/svg"><path d="M438.613333 106.666667A331.946667 331.946667 0 0 0 106.666667 438.613333V768a21.333333 21.333333 0 0 0 21.333333 21.333333h298.666667v-64H170.666667V438.613333a267.946667 267.946667 0 0 1 522.88-82.133333l11.093333-6.4 32 18.56 29.44 16.853333A331.733333 331.733333 0 0 0 438.613333 106.666667zM138.666667 853.333333a32 32 0 0 0 0 64h439.253333l-110.933333-64z" fill="#ffffff" /><path d="M704 498.56l149.333333 85.333333v172.373334l-149.333333 85.333333-149.333333-85.333333v-171.52l149.333333-85.333334m0-70.613333a21.333333 21.333333 0 0 0-10.666667 2.773333l-192 110.933334a21.333333 21.333333 0 0 0-10.666666 18.56v220.8a21.333333 21.333333 0 0 0 10.666666 18.56l192 110.933333a21.333333 21.333333 0 0 0 21.333334 0l192-110.933333a21.333333 21.333333 0 0 0 10.666666-18.56V560.213333a21.333333 21.333333 0 0 0-10.666666-18.56l-192-110.933333a21.333333 21.333333 0 0 0-10.666667-2.773333z" fill="#ffffff" /><path d="M736.64 652.586667l-32-18.56-32 18.56v36.906666l32 18.56 32-18.56v-36.906666z" fill="#ffffff" /><path d="M704.64 634.026667l-32 18.56v36.906666l32 18.56 32-18.56v-36.906666l-32-18.56zM261.333333 482.133333a32 32 0 0 1-32-32 227.2 227.2 0 0 1 226.986667-226.773333 32 32 0 0 1 0 64 162.986667 162.986667 0 0 0-162.773333 162.773333 32 32 0 0 1-32.213334 32z" fill="#ffffff" /></svg>