<?xml version="1.0" encoding="UTF-8"?>
<svg width="14px" height="16px" viewBox="0 0 14 16" version="1.1" xmlns="http://www.w3.org/2000/svg" xmlns:xlink="http://www.w3.org/1999/xlink">
    <title>组_slice</title>
    <defs>
        <polygon id="path-1" points="0 0.0857684211 2.20617895 0.0857684211 2.20617895 2.20768947 0 2.20768947"></polygon>
        <polygon id="path-3" points="0.205247368 0.0856210526 2.41094737 0.0856210526 2.41094737 2.20754211 0.205247368 2.20754211"></polygon>
        <polygon id="path-5" points="0.192021053 0.21 1.47854737 0.21 1.47854737 2.135 0.192021053 2.135"></polygon>
    </defs>
    <g id="定稿" stroke="none" stroke-width="1" fill="none" fill-rule="evenodd">
        <g id="画板" transform="translate(0.000000, -2.000000)">
            <g id="编组" transform="translate(0.000000, 2.000000)">
                <path d="M2.31633684,12.5627158 L2.31633684,9.24545263 C2.31633684,6.90082105 4.29254737,4.99976842 6.73002105,4.99976842 C9.16749474,4.99976842 11.1437053,6.90082105 11.1437053,9.24545263 L11.1437053,12.5627158 M6.73002105,3.76187368 C3.58149474,3.76187368 1.02981053,6.21703158 1.02981053,9.24545263 L1.02981053,13.2509263 C1.02981053,13.5552421 1.28549474,13.8006105 1.6016,13.8006105 L11.8584421,13.8006105 C12.1752842,13.8006105 12.4309684,13.5552421 12.4309684,13.2509263 L12.4309684,9.24545263 C12.4309684,6.21703158 9.87928421,3.76187368 6.73002105,3.76187368" id="Fill-1" fill="#3D6EC0"></path>
                <g transform="translate(0.000000, 2.737663)">
                    <mask id="mask-2" fill="white">
                        <use xlink:href="#path-1"></use>
                    </mask>
                    <g id="Clip-4"></g>
                    <path d="M1.45681053,2.16734737 L2.16417895,1.48724211 C2.22017895,1.43345263 2.22017895,1.34576842 2.16417895,1.29271579 L0.951336842,0.125557895 C0.896073684,0.0725052632 0.804705263,0.0725052632 0.749442105,0.125557895 L0.0413368421,0.8064 C-0.0139263158,0.859452632 -0.0139263158,0.947136842 0.0413368421,1.00018947 L1.25491579,2.16734737 C1.31017895,2.22113684 1.39933684,2.22113684 1.45681053,2.16734737" id="Fill-3" fill="#3D6EC0" mask="url(#mask-2)"></path>
                </g>
                <g transform="translate(11.052632, 2.737663)">
                    <mask id="mask-4" fill="white">
                        <use xlink:href="#path-3"></use>
                    </mask>
                    <g id="Clip-6"></g>
                    <path d="M2.36953684,0.806252632 L1.66216842,0.125410526 C1.60690526,0.0723578947 1.51553684,0.0723578947 1.46027368,0.125410526 L0.246694737,1.29256842 C0.191431579,1.34562105 0.191431579,1.43330526 0.246694737,1.48709474 L0.954063158,2.1672 C1.00932632,2.22098947 1.10069474,2.22098947 1.15669474,2.1672 L2.36953684,1.00004211 C2.4248,0.945515789 2.4248,0.859305263 2.36953684,0.806252632" id="Fill-5" fill="#3D6EC0" mask="url(#mask-4)"></path>
                </g>
                <path d="M12.4485789,14.9005684 L1.01205263,14.9005684 C0.695210526,14.9005684 0.440263158,15.1466737 0.440263158,15.4509895 L0.440263158,15.8636211 C0.440263158,15.9387789 0.504368421,16.0006737 0.582473684,16.0006737 L12.8774211,16.0006737 C12.9555263,16.0006737 13.0203684,15.9387789 13.0203684,15.8636211 L13.0203684,15.4509895 C13.0203684,15.1466737 12.7646842,14.9005684 12.4485789,14.9005684" id="Fill-7" fill="#FD9A16"></path>
                <g transform="translate(5.894737, 0.527137)">
                    <mask id="mask-6" fill="white">
                        <use xlink:href="#path-5"></use>
                    </mask>
                    <g id="Clip-10"></g>
                    <path d="M0.334968421,2.135 L1.3356,2.135 C1.41444211,2.135 1.47854737,2.07310526 1.47854737,1.99721053 L1.47854737,0.347421053 C1.47854737,0.271526316 1.41444211,0.209631579 1.3356,0.209631579 L0.334968421,0.209631579 C0.256863158,0.209631579 0.192021053,0.271526316 0.192021053,0.347421053 L0.192021053,1.99721053 C0.192021053,2.07310526 0.256863158,2.135 0.334968421,2.135" id="Fill-9" fill="#3D6EC0" mask="url(#mask-6)"></path>
                </g>
                <path d="M3.57014737,12.5627158 L3.57014737,10.5614526 C3.57014737,10.4420842 3.66667368,10.3448211 3.78604211,10.3448211 L4.64004211,10.3448211 C4.75941053,10.3448211 4.85667368,10.4420842 4.85667368,10.5614526 L4.85667368,12.5627158 L3.57014737,12.5627158 Z" id="Fill-11" fill="#FD9A16"></path>
            </g>
        </g>
    </g>
</svg>