<?xml version="1.0" encoding="utf-8"?>
<!-- Generator: Adobe Illustrator 24.0.0, SVG Export Plug-In . SVG Version: 6.00 Build 0)  -->
<svg version="1.1" id="图层_1" xmlns="http://www.w3.org/2000/svg" xmlns:xlink="http://www.w3.org/1999/xlink" x="0px" y="0px"
	 viewBox="0 0 16 16" style="enable-background:new 0 0 16 16;" xml:space="preserve">
<style type="text/css">
	.st0{fill:#C0D0D0;}
</style>
<g>
	<path class="st0" d="M15,13H1c-0.3,0-0.5-0.2-0.5-0.5l0,0C0.5,12.2,0.7,12,1,12h14c0.3,0,0.5,0.2,0.5,0.5l0,0
		C15.5,12.8,15.3,13,15,13z"/>
</g>
<g>
	<path class="st0" d="M14,13H2V6.3c0-3.3,2.7-6,6-6s6,2.7,6,6V13z M3,12h10V6.3c0-2.8-2.2-5-5-5s-5,2.2-5,5V12z"/>
</g>
<g>
	<path class="st0" d="M8,15.5c-1.9,0-3.5-1.6-3.5-3.5h1c0,1.4,1.1,2.5,2.5,2.5c1.4,0,2.5-1.1,2.5-2.5h1C11.5,13.9,9.9,15.5,8,15.5z"
		/>
</g>
</svg>
