<?xml version="1.0" encoding="utf-8"?>
<!-- Generator: Adobe Illustrator 24.0.0, SVG Export Plug-In . SVG Version: 6.00 Build 0)  -->
<svg version="1.1" id="图层_1" xmlns="http://www.w3.org/2000/svg" xmlns:xlink="http://www.w3.org/1999/xlink" x="0px" y="0px"
	 viewBox="0 0 16 16" style="enable-background:new 0 0 16 16;" xml:space="preserve">
<style type="text/css">
	.st0{fill:#C0D0D0;}
</style>
<g>
	<path class="st0" d="M8,1.7L8,1.7L8,1.7l6.4,4.4v8.2H1.6V6.1L8,1.7L8,1.7L8,1.7C8,1.7,8,1.7,8,1.7L8,1.7 M8,0.6
		c-0.3,0-0.5,0.1-0.7,0.3L0.9,5.3C0.6,5.5,0.5,5.8,0.5,6.1v8.2c0,0.6,0.5,1.1,1.1,1.1h12.9c0.6,0,1.1-0.5,1.1-1.1V6.1
		c0-0.3-0.1-0.6-0.4-0.8L8.7,0.9C8.5,0.7,8.3,0.6,8,0.6L8,0.6z"/>
	<path class="st0" d="M10.1,10H5.9c-0.3,0-0.5,0.2-0.5,0.5c0,0.3,0.2,0.5,0.5,0.5h4.3c0.3,0,0.5-0.2,0.5-0.5
		C10.7,10.2,10.4,10,10.1,10L10.1,10z"/>
</g>
</svg>
