<?xml version="1.0" encoding="utf-8"?>
<!-- Generator: Adobe Illustrator 24.0.0, SVG Export Plug-In . SVG Version: 6.00 Build 0)  -->
<svg version="1.1" id="图层_1" xmlns="http://www.w3.org/2000/svg" xmlns:xlink="http://www.w3.org/1999/xlink" x="0px" y="0px"
	 viewBox="0 0 16 16" style="enable-background:new 0 0 16 16;" xml:space="preserve">
<style type="text/css">
	.st0{fill:#C0D0D0;}
</style>
<g>
	<path class="st0" d="M14.5,1.5v13h-13v-13H14.5 M14.5,0.5h-13c-0.6,0-1,0.4-1,1v13c0,0.6,0.4,1,1,1h13c0.6,0,1-0.4,1-1v-13
		C15.5,0.9,15.1,0.5,14.5,0.5L14.5,0.5z"/>
	<g>
		<path class="st0" d="M12,6.5H4C3.7,6.5,3.5,6.3,3.5,6v0c0-0.3,0.2-0.5,0.5-0.5h8c0.3,0,0.5,0.2,0.5,0.5v0
			C12.5,6.3,12.3,6.5,12,6.5z"/>
		<path class="st0" d="M5.5,7V5c0-0.3,0.2-0.5,0.5-0.5h0c0.3,0,0.5,0.2,0.5,0.5v2c0,0.3-0.2,0.5-0.5,0.5h0C5.7,7.5,5.5,7.3,5.5,7z"
			/>
		<path class="st0" d="M4,10.5h8c0.3,0,0.5-0.2,0.5-0.5v0c0-0.3-0.2-0.5-0.5-0.5H4c-0.3,0-0.5,0.2-0.5,0.5v0
			C3.5,10.3,3.7,10.5,4,10.5z"/>
		<path class="st0" d="M10.5,11V9c0-0.3-0.2-0.5-0.5-0.5h0C9.7,8.5,9.5,8.7,9.5,9v2c0,0.3,0.2,0.5,0.5,0.5h0
			C10.3,11.5,10.5,11.3,10.5,11z"/>
	</g>
</g>
</svg>
