<?xml version="1.0" encoding="utf-8"?>
<!-- Generator: Adobe Illustrator 24.0.0, SVG Export Plug-In . SVG Version: 6.00 Build 0)  -->
<svg version="1.1" id="图层_1" xmlns="http://www.w3.org/2000/svg" xmlns:xlink="http://www.w3.org/1999/xlink" x="0px" y="0px"
	 viewBox="0 0 10.4 15.4" style="enable-background:new 0 0 10.4 15.4;" xml:space="preserve">
<style type="text/css">
	.st0{fill:#46BC74;}
</style>
<path class="st0" d="M5.8,12.8l3.4-3.4c0.2-0.2,0.6-0.2,0.8,0l0,0c0.2,0.2,0.2,0.6,0,0.8l-4.3,4.3c-0.1,0.1-0.3,0.2-0.5,0.2
	c-0.2,0-0.4-0.1-0.5-0.2l-4.3-4.3c-0.2-0.2-0.2-0.6,0-0.8l0,0c0.2-0.2,0.6-0.2,0.8,0l3.4,3.4V1.3c0-0.3,0.3-0.6,0.6-0.6l0,0
	c0.3,0,0.6,0.3,0.6,0.6C5.8,1.3,5.8,12.8,5.8,12.8z"/>
</svg>
