<?xml version="1.0" encoding="UTF-8"?>
<svg width="13px" height="14px" viewBox="0 0 13 14" version="1.1" xmlns="http://www.w3.org/2000/svg" xmlns:xlink="http://www.w3.org/1999/xlink">
    <title>fenxi_jifang</title>
    <g id="定稿" stroke="none" stroke-width="1" fill="none" fill-rule="evenodd">
        <g id="告警/告警分析" transform="translate(-1163.000000, -361.000000)">
            <g id="历史告警bg备份-2" transform="translate(1071.000000, 284.000000)">
                <g id="编组-5" transform="translate(92.250600, 73.000000)">
                    <g id="fenxi_jifang" transform="translate(0.000000, 4.235000)">
                        <path d="M2.7398629,4.51839609 L3.4869753,4.77870223 L3.4869753,8.84218236 L2.7398629,8.58074937 L2.7398629,4.51839609 Z M3.77770683,3.84678374 L4.36029674,4.07215701 L3.77770683,4.29527655 L3.19624378,4.07215701 L3.77770683,3.84678374 Z M4.81667762,8.54356278 L4.06956522,8.84218236 L4.06956522,4.77870223 L4.81667762,4.51839609 L4.81667762,8.54356278 Z M2.15839985,8.76780918 C2.15839985,8.80499577 2.20009391,8.84218236 2.20009391,8.84218236 L2.28348202,8.91655555 L3.6109306,9.40110809 L3.73713964,9.40110809 C3.77770683,9.40110809 3.81940088,9.40110809 3.86109494,9.36392149 L5.18967039,8.87936895 C5.23136445,8.87936895 5.2730585,8.84218236 5.2730585,8.80499577 C5.31475256,8.76780918 5.31475256,8.72949573 5.31475256,8.69230914 L5.31475256,4.10821673 C5.31475256,3.99665696 5.23136445,3.88509719 5.10740915,3.80959715 L3.81940088,3.36335806 L3.57036341,3.36335806 L2.28348202,3.80959715 C2.15839985,3.84678374 2.07501174,3.95947037 2.07501174,4.10821673 L2.07501174,7.86744295 L2.15839985,7.83476383 L2.15839985,8.76780918 Z" id="Fill-1" fill="#3D6EC0"></path>
                        <path d="M6.49908912,5.00261057 L7.24620152,5.26291671 L7.24620152,9.32639684 L6.49908912,9.06496385 L6.49908912,5.00261057 Z M7.53693305,4.33212508 L8.11839609,4.55637149 L7.53693305,4.77949103 L6.95547,4.55637149 L7.53693305,4.33212508 Z M8.57590384,9.02777726 L7.82766457,9.32639684 L7.82766457,5.26291671 L8.57590384,5.00261057 L8.57590384,9.02777726 Z M5.91762607,9.25202366 C5.91762607,9.28921025 5.95932012,9.32639684 5.95932012,9.32639684 L6.04270824,9.40077003 L7.37015682,9.88532257 L7.49636586,9.88532257 C7.53693305,9.88532257 7.5786271,9.88532257 7.62032116,9.84813598 L8.94889661,9.36358344 C8.99059067,9.36358344 9.03228472,9.32639684 9.03228472,9.28921025 C9.07397878,9.25202366 9.07397878,9.21483707 9.07397878,9.17765048 L9.07397878,4.59355808 C9.07397878,4.48087144 8.99059067,4.36931167 8.86663536,4.29493849 L7.5786271,3.84757254 L7.32958963,3.84757254 L6.04270824,4.29493849 C5.91762607,4.33212508 5.83423796,4.44368485 5.83423796,4.59355808 L5.94805146,6.34020096 L5.91762607,8.32010517 L5.91762607,9.25202366 Z" id="Fill-3" fill="#3D6EC0"></path>
                        <path d="M5.99943657,0 L0.323410649,2.35627758 C0.126209034,2.43853883 0,2.61545685 0,2.8115316 L0,9.64822988 C0,9.83979716 0.122828435,10.0178421 0.317776317,10.1001033 L5.99943657,12.522866" id="Stroke-5" stroke="#3D6EC0" stroke-width="0.5"></path>
                        <path d="M2.40867687,7.97381914 L0.379190534,8.70515541 C0.241712837,8.75361067 0.242839703,8.92827496 0.379190534,8.97673021 L6,11.1989107 L11.523899,8.84263311 C11.6534886,8.78628979 11.6478543,8.6183867 11.5160109,8.56880458 L8.98168842,7.66843835" id="Stroke-7" stroke="#3D6EC0" stroke-width="0.5" stroke-linecap="round"></path>
                        <path d="M5.99943657,12.5232041 L11.6810968,10.1004414 C11.8760447,10.0170532 12,9.84013522 12,9.64744107 L12,2.81186966 C12,2.61579491 11.873791,2.43887689 11.6754625,2.35661564 L6.04676495,0.0194947882 C6.02422763,0.0104798573 5.99943657,0.0251291201 5.99943657,0.0476664476 L5.99943657,6.67927505 L5.15654052,6.98352897" id="Stroke-9" stroke="#3D6EC0" stroke-width="0.5" stroke-linecap="round"></path>
                        <path d="M8.0550662,3.48179172 L10.2840079,4.3269415 C10.350493,4.35173256 10.3933139,4.41145647 10.3933139,4.47794159 L10.3933139,8.17068269" id="Stroke-11" stroke="#3D6EC0" stroke-width="0.5" stroke-linecap="round"></path>
                        <line x1="8.0550662" y1="3.48179172" x2="8.0550662" y2="4.14551601" id="Stroke-13" stroke="#3D6EC0" stroke-width="0.5" stroke-linecap="round"></line>
                    </g>
                </g>
            </g>
        </g>
    </g>
</svg>