<?xml version="1.0" standalone="no"?><!DOCTYPE svg PUBLIC "-//W3C//DTD SVG 1.1//EN" "http://www.w3.org/Graphics/SVG/1.1/DTD/svg11.dtd"><svg class="icon" width="32px" height="29.49px" viewBox="0 0 1111 1024" version="1.1" xmlns="http://www.w3.org/2000/svg"><path d="M1069.29536 942.342839H83.207614V41.603807A41.603807 41.603807 0 0 0 0 41.603807v940.866217a41.936047 41.936047 0 0 0 41.603807 41.419229h1027.691553a41.936047 41.936047 0 0 0 41.603807-41.419229 40.164101 40.164101 0 0 0-41.603807-40.127185z" fill="#ffffff" /><path d="M215.32831 671.751974l248.367714-247.334079 203.035437 202.297127a44.593965 44.593965 0 0 0 30.602978 12.182126 41.788385 41.788385 0 0 0 29.532427-12.182126l354.795198-355.865748a38.872057 38.872057 0 0 0-55.041061-54.856484l-326.665561 327.846858-205.545694-204.733552a60.172321 60.172321 0 0 0-30.566062-9.745701 41.862216 41.862216 0 0 0-29.532427 12.182126l-277.715563 274.208588a40.348679 40.348679 0 0 0 0 57.292908 42.231371 42.231371 0 0 0 58.732614-1.292043z" fill="#ffffff" /></svg>