<?xml version="1.0" encoding="utf-8"?>
<!-- Generator: Adobe Illustrator 24.0.0, SVG Export Plug-In . SVG Version: 6.00 Build 0)  -->
<svg version="1.1" id="图层_1" xmlns="http://www.w3.org/2000/svg" xmlns:xlink="http://www.w3.org/1999/xlink" x="0px" y="0px"
	 viewBox="0 0 32 29.5" style="enable-background:new 0 0 32 29.5;" xml:space="preserve">
<style type="text/css">
	.st0{fill:#FFFFFF;}
</style>
<path class="st0" d="M30,26.2H3.4V2c0-0.6-0.5-1.1-1.1-1.1S1.2,1.3,1.2,2v25.3c0,0.6,0.5,1.1,1.1,1.1H30c0.6,0,1.1-0.5,1.1-1.1
	C31.1,26.7,30.6,26.2,30,26.2C30,26.2,30,26.2,30,26.2z"/>
<path class="st0" d="M7,18.9l6.7-6.7l5.5,5.4c0.2,0.2,0.5,0.3,0.8,0.3c0.3,0,0.6-0.1,0.8-0.3l9.5-9.6c0.4-0.4,0.4-1.1,0-1.5
	c-0.4-0.4-1-0.4-1.4,0L20,15.5L14.5,10c-0.2-0.2-0.5-0.3-0.8-0.3c-0.3,0-0.6,0.1-0.8,0.3l-7.5,7.4c-0.4,0.4-0.4,1.1,0,1.5
	c0,0,0,0,0,0C5.9,19.4,6.6,19.3,7,18.9z"/>
</svg>
