<?xml version="1.0" encoding="utf-8"?>
<!-- Generator: Adobe Illustrator 24.0.0, SVG Export Plug-In . SVG Version: 6.00 Build 0)  -->
<svg version="1.1" id="图层_1" xmlns="http://www.w3.org/2000/svg" xmlns:xlink="http://www.w3.org/1999/xlink" x="0px" y="0px"
	 viewBox="0 0 16 16" style="enable-background:new 0 0 16 16;" xml:space="preserve">
<style type="text/css">
	.st0{fill:#1890FF;}
</style>
<g>
	<path class="st0" d="M14.4,8.6v5.8H1.6V8.6H14.4 M15,7H1c-0.6,0-1,0.4-1,1v7c0,0.6,0.4,1,1,1h14c0.6,0,1-0.4,1-1v-7
		C16,7.5,15.6,7,15,7L15,7z"/>
	<g>
		<path class="st0" d="M4.5,8.6c-0.4,0-0.8-0.4-0.8-0.8v-6c0-1,0.8-1.8,1.8-1.8h5c1,0,1.8,0.8,1.8,1.8v3c0,0.4-0.4,0.8-0.8,0.8
			s-0.8-0.4-0.8-0.8v-3c0-0.1-0.1-0.2-0.2-0.2h-5c-0.1,0-0.2,0.1-0.2,0.2v6C5.3,8.2,4.9,8.6,4.5,8.6z"/>
	</g>
	<path class="st0" d="M8.3,13.1H7.7c-0.3,0-0.5-0.2-0.5-0.5v-2c0-0.3,0.2-0.5,0.5-0.5h0.6c0.3,0,0.5,0.2,0.5,0.5v2
		C8.8,12.8,8.6,13.1,8.3,13.1z"/>
</g>
</svg>
