<?xml version="1.0" encoding="UTF-8"?>
<svg width="13px" height="11px" viewBox="0 0 13 11" version="1.1" xmlns="http://www.w3.org/2000/svg" xmlns:xlink="http://www.w3.org/1999/xlink">
    <title>luyouqi</title>
    <defs>
        <polygon id="path-1" points="0 0 12.5677 0 12.5677 10.4739 0 10.4739"></polygon>
    </defs>
    <g id="定稿" stroke="none" stroke-width="1" fill="none" fill-rule="evenodd">
        <g id="告警/告警分析" transform="translate(-1695.000000, -362.000000)">
            <g id="历史告警bg备份-2" transform="translate(1071.000000, 284.000000)">
                <g id="编组-5备份-3" transform="translate(624.000000, 73.000000)">
                    <g id="luyouqi" transform="translate(0.000000, 5.000100)">
                        <path d="M6.4749,8.3711 L3.9669,8.3711 C3.7129,8.3711 3.5069,8.5231 3.5069,8.7111 C3.5069,8.8971 3.7129,9.0501 3.9669,9.0501 L6.4749,9.0501 C6.7289,9.0501 6.9349,8.8971 6.9349,8.7111 C6.9349,8.5231 6.7289,8.3711 6.4749,8.3711" id="Fill-1" fill="#3D6EC0"></path>
                        <path d="M1.3611,8.71 C1.3611,8.931 1.5391,9.109 1.7601,9.11 C1.9811,9.11 2.1591,8.932 2.1591,8.711 L2.1591,8.71 C2.1591,8.49 1.9811,8.311 1.7601,8.311 C1.5401,8.311 1.3611,8.49 1.3611,8.71" id="Fill-3" fill="#3D6EC0"></path>
                        <path d="M2.3484,8.71 C2.3484,8.931 2.5264,9.109 2.7474,9.11 C2.9684,9.11 3.1464,8.932 3.1464,8.711 L3.1464,8.71 C3.1464,8.49 2.9684,8.311 2.7474,8.311 C2.5274,8.311 2.3484,8.49 2.3484,8.71" id="Fill-5" fill="#3D6EC0"></path>
                        <g id="编组">
                            <mask id="mask-2" fill="white">
                                <use xlink:href="#path-1"></use>
                            </mask>
                            <g id="Clip-8"></g>
                            <path d="M11.6487,9.5029 C11.6487,9.5309 11.6257,9.5549 11.5967,9.5549 L0.9707,9.5549 C0.9417,9.5549 0.9197,9.5309 0.9197,9.5029 L0.9197,7.9179 C0.9197,7.9119 0.9227,7.9079 0.9247,7.9029 L0.9277,7.9039 L0.9317,7.8859 C0.9417,7.8739 0.9547,7.8659 0.9707,7.8659 L11.5967,7.8659 C11.6257,7.8659 11.6487,7.8889 11.6487,7.9179 L11.6487,9.5029 Z M1.9157,3.9549 L10.6367,3.9549 L11.4037,6.9469 L1.1677,6.9469 L1.9157,3.9549 Z M12.5347,7.6799 L12.5397,7.6789 L11.5057,3.6429 C11.4147,3.2849 11.1007,3.0349 10.7447,3.0349 L9.8507,3.0349 L10.2937,0.5639 C10.3377,0.3149 10.1717,0.0749 9.9217,0.0299 C9.6717,-0.0151 9.4327,0.1519 9.3887,0.4019 L8.9167,3.0349 L6.7007,3.0349 L6.7007,0.4599 C6.7007,0.2059 6.4957,-0.0001 6.2417,-0.0001 C5.9877,-0.0001 5.7817,0.2059 5.7817,0.4599 L5.7817,3.0349 L3.5657,3.0349 L3.0937,0.4019 C3.0497,0.1519 2.8107,-0.0151 2.5607,0.0299 C2.3107,0.0749 2.1447,0.3149 2.1897,0.5639 L2.6317,3.0349 L1.8067,3.0349 C1.4487,3.0349 1.1347,3.2869 1.0447,3.6479 L0.0507,7.6209 C0.0207,7.7159 -0.0003,7.8139 -0.0003,7.9179 L-0.0003,9.5029 C-0.0003,10.0379 0.4357,10.4739 0.9707,10.4739 L11.5977,10.4739 C12.1327,10.4739 12.5677,10.0379 12.5677,9.5029 L12.5677,7.9179 C12.5677,7.8349 12.5547,7.7559 12.5347,7.6799 L12.5347,7.6799 Z" id="Fill-7" fill="#3D6EC0" mask="url(#mask-2)"></path>
                        </g>
                    </g>
                </g>
            </g>
        </g>
    </g>
</svg>