<?xml version="1.0" encoding="UTF-8"?>
<svg width="20px" height="20px" viewBox="0 0 20 20" version="1.1" xmlns="http://www.w3.org/2000/svg" xmlns:xlink="http://www.w3.org/1999/xlink">
    <title>nav_icon01</title>
    <g id="nav_icon01" stroke="none" stroke-width="1" fill="none" fill-rule="evenodd">
        <g id="编组" transform="translate(0.000000, 0.125000)" fill="#CBE6FF">
            <path d="M10.0004582,1.89537332 C13.6332766,-0.23033872 17.1356943,-0.669479233 18.9029033,1.09708146 C18.9157033,1.11027967 18.9289034,1.12347789 18.9421035,1.13707604 L18.9421035,1.13707604 L18.9577036,1.12147816 C19.6765072,1.87457614 20.0113089,2.92803343 19.9997088,4.16426597 C19.9921088,5.86203598 19.3273054,7.90855875 18.1040992,9.99827567 C20.23011,13.6305836 20.6693122,17.1329092 18.9029033,18.8994699 C18.7781027,19.023853 18.643702,19.1386375 18.5013013,19.2422234 C16.6392918,20.5996396 13.3732753,20.0813098 9.99445819,18.1039776 C6.36363981,20.22729 2.86362209,20.6648307 1.09761316,18.8994699 C1.07961306,18.8814723 1.06201297,18.8630748 1.04441289,18.8446773 L1.04441289,18.8446773 C0.0820080142,17.8408133 -0.192793377,16.2990221 0.127608245,14.5008657 C0.309609166,13.4782043 0.684411063,12.3719541 1.23521385,11.2345082 C1.2248138,11.2233097 1.21601375,11.2105115 1.2060137,11.198913 C1.18681361,11.176916 1.16841351,11.1537191 1.15041342,11.1309222 C1.1272133,11.1017262 1.10481319,11.0717303 1.08321308,11.0413344 C1.066413,11.0173376 1.04961291,10.9929409 1.03361283,10.9681443 C1.01321273,10.9369485 0.994012631,10.9049528 0.975212535,10.8721573 C0.960812463,10.8465608 0.946012388,10.8213642 0.932412319,10.7953677 C0.91481223,10.7617722 0.898812149,10.7273769 0.882812068,10.6925816 C0.870812007,10.6657852 0.858411944,10.6393888 0.847211888,10.6121925 C0.832811815,10.5761974 0.819611748,10.5390024 0.807211685,10.5022074 C0.797611636,10.4750111 0.787611586,10.4482147 0.779611545,10.4206185 C0.768011487,10.3814238 0.758411438,10.3410292 0.748811389,10.3006347 C0.742411357,10.2742383 0.735211321,10.2482418 0.729611292,10.2214454 C0.720811248,10.1762516 0.714811217,10.1302578 0.708811187,10.084264 C0.706011173,10.0610672 0.701611151,10.0382702 0.699211138,10.0150734 C0.692411104,9.94548282 0.688411084,9.87469241 0.688411084,9.80310211 C0.688411084,9.73471137 0.692411104,9.66752047 0.698811136,9.60112947 L0.698811136,9.60112947 L0.706411175,9.53793803 C0.712011203,9.4923442 0.718811238,9.44715033 0.72721128,9.40275634 C0.731611302,9.37915954 0.736411327,9.35596268 0.741611353,9.33316577 C0.751211402,9.29037156 0.762011456,9.24797731 0.774411519,9.20598299 L0.783511565,9.17398733 L0.783511565,9.17398733 L0.793211614,9.14199166 C0.808811693,9.09399816 0.826411782,9.04640461 0.845211877,8.99961095 C0.850411904,8.98681268 0.854811926,8.97321453 0.860411954,8.96081621 C0.885612082,8.90162422 0.913212222,8.84443197 0.943612375,8.78803961 C0.951212414,8.77364156 0.960412461,8.75964346 0.968412501,8.74524541 C0.991612618,8.70405099 1.01601274,8.66365646 1.04201287,8.62406182 C1.05401293,8.60526437 1.067213,8.58766675 1.08001307,8.56926925 C1.09281313,8.55127168 1.10441319,8.53207429 1.11801326,8.51447667 C-0.308793964,5.43729352 -0.426794561,2.62127499 1.09761316,1.09708146 C2.8648221,-0.669479233 6.36723983,-0.23033872 10.0004582,1.89537332 Z M17.8896982,2.10974428 C17.4128957,1.63300886 16.5864916,1.33264955 15.293685,1.4614321 C14.0048785,1.59021466 12.4192705,2.13894033 10.7236619,3.13120591 L10.7236619,3.13120591 L10.0004582,3.55474854 L9.27685456,3.13120591 C7.58084597,2.13894033 5.99563795,1.59021466 4.70683142,1.4614321 C3.41402488,1.33264955 2.5872207,1.63300886 2.11081828,2.10974428 C1.63361587,2.5864797 1.33321435,3.41276777 1.462415,4.70539266 C1.55081545,5.58927293 1.83641689,6.61273429 2.32761938,7.71578486 C2.34641948,7.71138546 2.36521957,7.70778595 2.38401967,7.70378649 C2.39561973,7.70138681 2.40721978,7.69858719 2.41881984,7.69618752 C2.47962015,7.68458909 2.54162046,7.67499039 2.60402078,7.66819131 C2.61522084,7.66699147 2.6268209,7.66619158 2.63762095,7.66499174 C2.70322128,7.65899256 2.76962162,7.6549931 2.83682196,7.6549931 C2.90242229,7.6549931 2.96762262,7.65899256 3.03282295,7.66499174 C3.04962304,7.66659153 3.06642312,7.66819131 3.08322321,7.67019104 C3.13802348,7.67659017 3.19282376,7.68458909 3.24682403,7.69538763 C3.25642408,7.69698741 3.26682414,7.69818725 3.27642418,7.70058692 C3.32842445,7.71138546 3.38042471,7.72378378 3.43202497,7.73858178 C4.03322801,6.96268688 4.70723143,6.19599074 5.44843518,5.45449119 L5.44843518,5.45449119 C5.52483557,5.3908998 5.63803614,5.3908998 5.70803649,5.46089032 L5.70803649,5.46089032 L6.46764034,6.22038744 C6.53764069,6.29037796 6.53764069,6.40356262 6.46764034,6.47355314 L6.46764034,6.47355314 C5.77323682,7.15506082 5.15123367,7.86216503 4.59763087,8.57206887 L4.59763087,8.57206887 L4.623581,8.61176349 L4.623581,8.61176349 L4.63763107,8.63406047 C4.6624312,8.67245527 4.68643132,8.71164996 4.70923144,8.75204449 C4.71923149,8.7696421 4.72923154,8.78763967 4.73883159,8.80603717 C4.7608317,8.84763154 4.7812318,8.89042574 4.8004319,8.93401984 L4.8004319,8.93401984 L4.820432,8.97881377 C4.84483212,9.03680591 4.86683223,9.09599789 4.88603233,9.15678966 L4.88603233,9.15678966 L4.89643238,9.19478451 C4.91083246,9.24397785 4.92363252,9.29357113 4.93483258,9.3439643 C4.9392326,9.36436154 4.94323262,9.38515872 4.94683264,9.40555596 C4.95563268,9.45154973 4.96243272,9.4975435 4.96803275,9.54433716 C4.97043276,9.56433445 4.97323277,9.5839318 4.97523278,9.60392909 C4.98123281,9.6695202 4.98523283,9.73591121 4.98523283,9.80310211 C4.98523283,10.9893414 4.02322796,11.9512111 2.83682196,11.9512111 C2.77002162,11.9512111 2.70362128,11.9472117 2.63762095,11.9412125 C2.61642084,11.9392127 2.59522074,11.9360132 2.57442063,11.9336135 C2.54762049,11.9304139 2.52042036,11.9284142 2.49402022,11.9240148 C2.2316189,12.4715406 2.01681781,13.0062682 1.85041697,13.5201986 C1.80321673,13.6653789 1.75961651,13.8113591 1.7188163,13.9581392 C1.58881564,14.4288755 1.50361521,14.875215 1.462415,15.2907587 C1.4216148,15.6971037 1.42361481,16.0574549 1.46041499,16.3754118 C1.50841523,16.7821567 1.61281576,17.1245103 1.7584165,17.4036725 C1.85841701,17.5936468 1.97761761,17.7536251 2.11081828,17.8868071 C2.5872207,18.3635425 3.41402488,18.6639018 4.70683142,18.5347193 C5.82923711,18.4227345 7.17684393,17.9919928 8.62645127,17.2268964 C7.5464458,16.4733985 6.47284036,15.5775199 5.44723517,14.5520588 L5.44723517,14.5520588 L5.45683522,14.54286 C5.38683487,14.4728695 5.38683487,14.3592849 5.45683522,14.2892944 L5.45683522,14.2892944 L6.21643907,13.5297973 C6.28643942,13.4602067 6.39963999,13.4602067 6.46964035,13.5297973 L6.46964035,13.5297973 L6.4604403,13.539396 C7.71964668,14.7984254 9.04125336,15.8366848 10.3336599,16.6365764 L10.3336599,16.6365764 L10.7236619,16.8649455 C12.4192705,17.8572111 14.0048785,18.4063367 15.293685,18.5347193 C15.8632879,18.5915116 16.3424903,18.5651152 16.7408923,18.4771271 C17.2404949,18.3639424 17.6200968,18.1547708 17.8848981,17.8904066 C18.5625016,17.2128983 18.8757031,15.7794925 18.1444994,13.5201986 C17.9208983,12.8290922 17.6092967,12.1007909 17.2136947,11.3536921 C16.8068927,11.9352133 16.3588904,12.5147348 15.8716879,13.0858574 C16.2528899,13.4734049 16.4876911,14.0049329 16.4876911,14.5916534 C16.4876911,15.7778927 15.5260862,16.7393625 14.3392802,16.7393625 C13.1528742,16.7393625 12.1912693,15.7778927 12.1912693,14.5916534 C12.1912693,13.4050142 13.1528742,12.4435444 14.3392802,12.4435444 C14.4016805,12.4435444 14.4636808,12.4459441 14.5260811,12.4515433 C15.2448848,11.6372536 15.8736879,10.8085659 16.4076907,9.98787708 C15.8680879,9.1579895 15.2308847,8.31890316 14.501681,7.49541472 C14.4624808,7.49741444 14.4236806,7.49821434 14.3840804,7.49821434 C13.1976744,7.49821434 12.2360695,6.53674458 12.2360695,5.35050527 C12.2360695,4.16386602 13.1976744,3.20239627 14.3840804,3.20239627 C15.5704864,3.20239627 16.5324913,4.16386602 16.5324913,5.35050527 C16.5324913,5.95682314 16.28129,6.50434897 15.877288,6.89509604 C16.3624904,7.46461889 16.8088927,8.04294055 17.2140947,8.62286199 C17.6120967,7.87296357 17.9252983,7.14186261 18.1496995,6.44795661 C18.3857007,5.71885538 18.5129013,5.07574249 18.5541015,4.51581834 C18.6365019,3.33117882 18.3429004,2.5628829 17.8896982,2.10974428 Z M9.99797821,6.78231132 C11.7775872,6.78231132 13.2203945,8.22491589 13.2203945,10.0042749 C13.2203945,11.7840338 11.7775872,13.2266383 9.99797821,13.2266383 C8.2183692,13.2266383 6.7755619,11.7840338 6.7755619,10.0042749 C6.7755619,8.22491589 8.2183692,6.78231132 9.99797821,6.78231132 Z M9.99797821,8.2145173 C9.0091732,8.2145173 8.20756914,9.01600873 8.20756914,10.0042749 C8.20756914,10.9929409 9.0091732,11.7944324 9.99797821,11.7944324 C10.9867832,11.7944324 11.7883873,10.9929409 11.7883873,10.0042749 C11.7883873,9.01600873 10.9867832,8.2145173 9.99797821,8.2145173 Z" id="形状结合"></path>
        </g>
    </g>
</svg>