<?xml version="1.0" encoding="UTF-8"?>
<svg width="20px" height="20px" viewBox="0 0 20 20" version="1.1" xmlns="http://www.w3.org/2000/svg" xmlns:xlink="http://www.w3.org/1999/xlink">
    <title>nav_icon02</title>
    <g id="nav_icon02" stroke="none" stroke-width="1" fill="none" fill-rule="evenodd">
        <g id="编组" fill="#CBE6FF">
            <path d="M9.98293063,4.35156929 C13.790142,4.35156929 16.9053513,7.61504416 16.9053513,11.6036458 L16.9053513,11.6036458 L16.9053513,18.1940543 L19.3281586,18.1940543 C19.5357592,18.1940543 19.6745596,18.3391605 19.6745596,18.5570219 L19.6745596,18.5570219 L19.6745596,19.6374366 C19.6745596,19.855298 19.5357592,20 19.3281586,20 L19.3281586,20 L0.637302692,20 C0.429702072,20 0.291301658,19.855298 0.291301658,19.6374366 L0.291301658,19.6374366 L0.291301658,18.5570219 C0.291301658,18.3391605 0.429702072,18.1940543 0.637302692,18.1940543 L0.637302692,18.1940543 L3.06010993,18.1940543 L3.06010993,11.6036458 C3.06010993,7.61504416 6.17531925,4.35156929 9.98293063,4.35156929 Z M9.98293063,6.08758918 C7.10212202,6.08758918 4.74491497,8.55641559 4.74491497,11.5745438 L4.74491497,11.5745438 L4.76411503,18.1940543 L15.2393463,18.1940543 L15.2201463,11.5745438 C15.2201463,8.55641559 12.8633392,6.08758918 9.98293063,6.08758918 Z M10.8135331,8.26208039 C10.8827333,8.2980538 10.9519335,8.370809 10.9519335,8.4795376 L10.9519335,8.4795376 L10.5363323,11.4891777 L12.7435451,11.4897461 C12.771089,11.4914513 12.8036391,11.4982721 12.8555392,11.5255553 C12.9247394,11.5983105 12.9595395,11.7070391 12.8903393,11.7793901 L12.8903393,11.7793901 L9.35952876,16.0945818 C9.32512866,16.1305552 9.25592845,16.1669328 9.22112835,16.1669328 L9.22112835,16.1669328 L9.18672825,16.1669328 C9.11712804,16.1305552 9.04832783,16.0582042 9.04832783,15.9494756 L9.04832783,15.9494756 L9.46352908,12.9398355 L7.24832245,12.9398355 C7.21352235,12.9398355 7.17912225,12.9398355 7.14432214,12.9034579 C7.07512194,12.8307027 7.04072183,12.7219741 7.10992204,12.6496231 L7.10992204,12.6496231 L10.6403326,8.3344314 C10.6751327,8.2980538 10.7443329,8.26208039 10.778733,8.26208039 L10.778733,8.26208039 Z M19.2589584,5.18542471 L19.9513604,6.45459873 C20.0549607,6.63567834 19.9857605,6.85353974 19.81296,6.96226835 L18.0129546,8.04995857 C17.8397541,8.15909137 17.6321535,8.08633617 17.5281532,7.90525656 L16.8361511,6.63567834 C16.7321508,6.45459873 16.801351,6.23714153 16.9745515,6.12841293 L18.7745569,5.04031851 C18.9473574,4.9315899 19.155358,5.00394091 19.2589584,5.18542471 Z M1.22570445,5.00394091 L3.02570983,6.09203533 C3.19851035,6.20076393 3.23331045,6.41822114 3.16411025,6.59970494 L2.47170818,7.86887896 C2.36770786,8.04995857 2.16010724,8.08633617 1.98690673,8.01398517 L0.187301347,6.92589075 C0.0141008292,6.81716214 -0.0550993776,6.59970494 0.0489009332,6.41822114 L0.741303003,5.14904711 C0.844903313,4.9679675 1.05250393,4.9315899 1.22570445,5.00394091 Z M5.55211738,1.34192923 L6.59052049,3.22750147 C6.6945208,3.40858107 6.62532059,3.62644247 6.45212007,3.73517108 L5.24091645,4.46029789 C5.06771594,4.5690265 4.86011531,4.4962713 4.756115,4.31519169 L3.7177119,2.42961945 C3.61411159,2.24813565 3.6833118,2.03067844 3.85611231,1.92194984 L5.06771594,1.19682302 C5.24091645,1.08809442 5.44851707,1.16044542 5.55211738,1.34192923 Z M14.9325454,1.16044542 L16.143749,1.88597644 C16.3169496,1.99470504 16.3513497,2.21216224 16.2821495,2.39324185 L15.2437464,4.27881409 C15.140146,4.46029789 14.9325454,4.4962713 14.7593449,4.42392029 L13.5477413,3.69879348 C13.3749408,3.59006487 13.3057406,3.37260767 13.4093409,3.19112387 L14.447744,1.30555163 C14.5517443,1.12406782 14.7593449,1.08809442 14.9325454,1.16044542 Z M10.6749327,0 C10.8825333,0 11.0209337,0.145106202 11.0209337,0.362563408 L11.0209337,2.53834805 C11.0209337,2.75580526 10.8825333,2.90091146 10.6749327,2.90091146 L9.29052856,2.90091146 C9.08292794,2.90091146 8.94412752,2.75580526 8.94412752,2.53834805 L8.94412752,0.362563408 C8.94412752,0.145106202 9.08292794,0 9.29052856,0 L10.6749327,0 Z" id="形状结合"></path>
        </g>
    </g>
</svg>