<?xml version="1.0" encoding="UTF-8"?>
<svg width="20px" height="20px" viewBox="0 0 20 20" version="1.1" xmlns="http://www.w3.org/2000/svg" xmlns:xlink="http://www.w3.org/1999/xlink">
    <title>nav_icon07</title>
    <g id="nav_icon07" stroke="none" stroke-width="1" fill="none" fill-rule="evenodd">
        <g transform="translate(2.000121, 1.000000)" fill="#CBE6FF" id="形状结合">
            <path d="M10.5703996,0 C10.8172949,0 11.2489251,0.12708 12.1128839,0.7632 C12.6063252,1.1448 13.2233887,1.7172 13.8404522,2.2896 C14.3957047,2.92536 14.9509571,3.56184 15.3211253,4.07052 C15.9381889,4.96116 16,5.40612 16,5.66064 L16,5.66064 L16,16.60068 C16,17.36388 15.3825872,18 14.6422507,18 L14.6422507,18 L1.35740009,18 C0.617063535,18 0,17.36388 0,16.60068 L0,16.60068 L0,1.39896 C0,0.63576 0.617063535,0 1.35740009,0 L1.35740009,0 Z M10.2990593,1.42452 L1.56692931,1.42452 C1.44365628,1.42452 1.32003405,1.5516 1.32003405,1.67904 L1.32003405,1.67904 L1.32003405,16.4484 C1.32003405,16.57512 1.44365628,16.70256 1.56692931,16.70256 L1.56692931,16.70256 L14.4945326,16.70256 C14.6181548,16.70256 14.6796167,16.4484 14.6796167,16.4484 L14.6796167,16.4484 L14.6796167,5.94 L10.8543117,5.94 C10.5459546,5.94 10.2990593,5.68584 10.2990593,5.36796 L10.2990593,5.36796 L10.2990593,1.42452 Z M13.6599777,14.158332 L13.6599777,15.621372 L2.33981273,15.621372 L2.33981273,14.158332 L13.6599777,14.158332 Z M7.69118886,9.542052 L7.69118886,13.395132 L6.27232687,13.395132 L6.27232687,9.542052 L7.69118886,9.542052 Z M9.85073663,7.315812 L9.85073663,13.395132 L8.43187463,13.395132 L8.43187463,7.315812 L9.85073663,7.315812 Z M12.0102844,10.305252 L12.0102844,13.395132 L10.5914224,13.395132 L10.5914224,10.305252 L12.0102844,10.305252 Z M5.53199031,4.369212 L5.53199031,13.394772 L4.1127791,13.394772 L4.1127791,4.369212 L5.53199031,4.369212 Z M11.6190933,2.06028 L11.6190933,4.5792 L14.0629024,4.5792 C14.0629024,4.5792 13.5460637,3.71952 13.0362093,3.1626 C12.5029574,2.57976 11.6190933,2.06028 11.6190933,2.06028 L11.6190933,2.06028 Z"></path>
        </g>
    </g>
</svg>