<?xml version="1.0" encoding="UTF-8"?>
<svg width="20px" height="20px" viewBox="0 0 20 20" version="1.1" xmlns="http://www.w3.org/2000/svg" xmlns:xlink="http://www.w3.org/1999/xlink">
    <title>nav_icon04</title>
    <g id="nav_icon04" stroke="none" stroke-width="1" fill="none" fill-rule="evenodd">
        <g transform="translate(0.000000, -0.000100)" fill="#CBE6FF" id="形状结合">
            <path d="M5.87076263,13.1675 C7.43858356,13.1675 8.75927268,14.2116667 9.17143827,15.6391667 L9.17143827,15.6391667 L19.0353482,15.6391667 C19.2988159,15.6391667 19.5413401,15.7479167 19.7151701,15.9204167 C19.8885813,16.0933333 19.9979057,16.3320833 19.9979057,16.5966667 C19.9979057,17.1254167 19.5627024,17.55625 19.0332539,17.55625 L19.0332539,17.55625 L9.16347978,17.55625 C8.74251798,18.9695833 7.42853074,20 5.87076263,20 C4.31341339,20 2.99942615,18.9695833 2.57846435,17.55625 L2.57846435,17.55625 L0.964568001,17.55625 C0.701100365,17.55625 0.458994969,17.4475 0.285164971,17.2745833 C0.109240635,17.1 0.0024294313,16.85875 0.000335093973,16.59875 C0.000335093973,16.07 0.435119524,15.6391667 0.964568001,15.6391667 L0.964568001,15.6391667 L2.57050587,15.6391667 C2.98267145,14.2116667 4.30336057,13.1675 5.87076263,13.1675 Z M5.87076263,14.6604167 C4.80558267,14.6604167 3.93727041,15.5241667 3.93727041,16.58375 C3.93727041,17.6458333 4.80558267,18.5075 5.87076263,18.5075 C6.93636147,18.5075 7.80467372,17.64375 7.80467372,16.58375 C7.80467372,15.5241667 6.93636147,14.6604167 5.87076263,14.6604167 Z M14.1568826,6.58383333 C15.7167451,6.58383333 17.0324078,7.61758333 17.4512752,9.03425 L17.4512752,9.03425 L19.035432,9.03425 C19.2988996,9.03425 19.5414239,9.14258333 19.714835,9.3155 C19.888665,9.488 19.9979894,9.72716667 19.9979894,9.99133333 C19.9979894,10.5205 19.5627861,10.9513333 19.0333377,10.9513333 L19.0333377,10.9513333 L17.4554639,10.9513333 C17.0416229,12.3750833 15.7221903,13.4163333 14.1568826,13.4163333 C12.5915749,13.4163333 11.2725612,12.3750833 10.8587202,10.9513333 L10.8587202,10.9513333 L0.964651775,10.9513333 C0.701184138,10.9513333 0.459078743,10.8421667 0.285248744,10.6696667 C0.109324409,10.4946667 0.00209433733,10.2538333 0,9.99341667 C0,9.46466667 0.435203297,9.03425 0.964651775,9.03425 L0.964651775,9.03425 L10.8629089,9.03425 C11.2817763,7.61758333 12.597439,6.58383333 14.1568826,6.58383333 Z M14.1568826,8.07633333 C13.0917027,8.07633333 12.2233904,8.94008333 12.2233904,10.0000833 C12.2233904,11.0621667 13.0917027,11.9234167 14.1568826,11.9234167 C15.2224815,11.9234167 16.0907937,11.0596667 16.0907937,10.0000833 C16.0907937,8.94008333 15.2224815,8.07633333 14.1568826,8.07633333 Z M5.87076263,0 C7.42266659,0 8.7333029,1.02333333 9.15887224,2.42875 L9.15887224,2.42875 L19.0374426,2.42875 C19.3013291,2.42875 19.5434345,2.53791667 19.7168456,2.71041667 C19.8906756,2.88333333 20,3.12208333 20,3.38666667 C20,3.91541667 19.5647967,4.34583333 19.0353482,4.34583333 L19.0353482,4.34583333 L9.17520807,4.34583333 C8.76848776,5.78083333 7.44402883,6.8325 5.87076263,6.8325 C4.2979153,6.8325 2.97345637,5.78083333 2.56631719,4.34583333 L2.56631719,4.34583333 L0.964568001,4.34583333 C0.701100365,4.34583333 0.458994969,4.2375 0.285164971,4.06458333 C0.109240635,3.88958333 0.0024294313,3.64875 0.000335093973,3.38875 C0.000335093973,2.86 0.435119524,2.42875 0.964568001,2.42875 L0.964568001,2.42875 L2.58265302,2.42875 C3.00864124,1.02333333 4.31885867,0 5.87076263,0 Z M5.87076263,1.49291667 C4.80558267,1.49291667 3.93727041,2.35666667 3.93727041,3.41625 C3.93727041,4.47833333 4.80558267,5.34 5.87076263,5.34 C6.93636147,5.34 7.80467372,4.47625 7.80467372,3.41625 C7.80467372,2.35666667 6.93636147,1.49291667 5.87076263,1.49291667 Z"></path>
        </g>
    </g>
</svg>