<?xml version="1.0" encoding="UTF-8"?>
<svg width="20px" height="20px" viewBox="0 0 20 20" version="1.1" xmlns="http://www.w3.org/2000/svg" xmlns:xlink="http://www.w3.org/1999/xlink">
    <title>nav_icon03</title>
    <g id="nav_icon03" stroke="none" stroke-width="1" fill="none" fill-rule="evenodd">
        <g transform="translate(0.999913, 1.000000)" fill="#CBE6FF" id="形状结合">
            <path d="M17.0526522,0 C17.5738696,0 18,0.426521739 18,0.947347826 L18,0.947347826 L18,17.0526522 C18,17.5734783 17.5738696,18 17.0526522,18 L17.0526522,18 L0.947347826,18 C0.426130435,18 0,17.5734783 0,17.0526522 L0,17.0526522 L0,0.947347826 C0,0.426521739 0.426130435,0 0.947347826,0 L0.947347826,0 Z M9,11.8420435 C8.38408696,11.8420435 7.9106087,12.1738696 7.67386957,12.6946957 C7.53182609,13.0734783 7.15265217,13.2632609 6.77386957,13.2632609 L6.77386957,13.2632609 L1.42121739,13.2632609 L1.42121739,16.5787826 L16.5791739,16.5787826 L16.5791739,13.2632609 L11.2265217,13.2632609 C10.8473478,13.2632609 10.4685652,13.0261304 10.3265217,12.6946957 C10.0893913,12.2212174 9.61591304,11.8420435 9,11.8420435 Z M13.9738696,14.210687 C14.3526522,14.210687 14.684087,14.5421217 14.684087,14.9209043 C14.684087,15.3000783 14.3526522,15.631513 13.9738696,15.631513 L13.9738696,15.631513 L12.5526522,15.631513 C12.1738696,15.631513 11.8420435,15.3000783 11.8420435,14.9209043 C11.8420435,14.5421217 12.1738696,14.210687 12.5526522,14.210687 L12.5526522,14.210687 Z M9.7106087,14.210687 C10.0893913,14.210687 10.4212174,14.5421217 10.4212174,14.9209043 C10.4212174,15.3000783 10.0893913,15.631513 9.7106087,15.631513 L9.7106087,15.631513 L8.2893913,15.631513 C7.9106087,15.631513 7.57917391,15.3000783 7.57917391,14.9209043 C7.57917391,14.5421217 7.9106087,14.210687 8.2893913,14.210687 L8.2893913,14.210687 Z M5.44734783,14.210687 C5.82652174,14.210687 6.15795652,14.5421217 6.15795652,14.9209043 C6.15795652,15.3000783 5.82652174,15.631513 5.44734783,15.631513 L5.44734783,15.631513 L4.02652174,15.631513 C3.64734783,15.631513 3.31591304,15.3000783 3.31591304,14.9209043 C3.31591304,14.5421217 3.64734783,14.210687 4.02652174,14.210687 L4.02652174,14.210687 Z M16.5791739,1.42121739 L1.42121739,1.42121739 L1.42121739,11.8420435 L6.53713043,11.8420435 C7.0106087,10.9893913 7.95795652,10.4212174 9,10.4212174 C10.0420435,10.4212174 10.9897826,10.9893913 11.4632609,11.8420435 L11.4632609,11.8420435 L16.5791739,11.8420435 L16.5791739,1.42121739 Z M6.72652174,2.98416522 C7.43673913,2.84212174 8.14734783,3.17355652 8.47917391,3.78946957 L8.47917391,3.78946957 L10.8,7.76864348 C10.8473478,7.91029565 10.9420435,7.91029565 10.9897826,7.91029565 C11.0371304,7.91029565 11.1314348,7.91029565 11.1787826,7.8159913 L11.1787826,7.8159913 L12.5526522,5.92090435 C12.7420435,5.63681739 13.1212174,5.44742609 13.5,5.44742609 L13.5,5.44742609 L14.4473478,5.44742609 C14.8265217,5.44742609 15.1106087,5.87355652 15.1106087,6.25273043 C15.1106087,6.63151304 14.7791739,6.96333913 14.4,6.96333913 L14.4,6.96333913 L13.5946957,6.96333913 L12.315913,8.76333913 C12.0318261,9.23681739 11.5106087,9.47394783 10.9897826,9.47394783 L10.9897826,9.47394783 L10.8946957,9.47394783 C10.3265217,9.4262087 9.80530435,9.09477391 9.52121739,8.62090435 L9.52121739,8.62090435 L7.2,4.54742609 C7.15265217,4.40538261 7.05795652,4.40538261 7.0106087,4.40538261 C6.96326087,4.40538261 6.86856522,4.40538261 6.82121739,4.50007826 L6.82121739,4.50007826 L5.44734783,6.39477391 C5.25795652,6.67886087 4.87878261,6.86825217 4.5,6.86825217 L4.5,6.86825217 L3.55265217,6.86825217 C3.17386957,6.86825217 2.84204348,6.53681739 2.84204348,6.15803478 C2.84204348,5.77886087 3.17386957,5.44742609 3.55265217,5.44742609 L3.55265217,5.44742609 L4.35795652,5.44742609 L5.63673913,3.69477391 C5.92121739,3.3159913 6.3,3.07886087 6.72652174,2.98416522 Z"></path>
        </g>
    </g>
</svg>