<?xml version="1.0" encoding="UTF-8"?>
<svg width="20px" height="20px" viewBox="0 0 20 20" version="1.1" xmlns="http://www.w3.org/2000/svg" xmlns:xlink="http://www.w3.org/1999/xlink">
    <title>nav_icon06</title>
    <g id="nav_icon06" stroke="none" stroke-width="1" fill="none" fill-rule="evenodd">
        <g transform="translate(0.000200, 0.999994)" fill="#CBE6FF" id="Fill-1">
            <path d="M3.77001508,17.1426681 C3.77001508,16.6691886 4.14801659,16.2857393 4.61161845,16.2857393 L7.95523182,16.2857393 C8.41803367,16.2853304 8.79323549,16.6691886 8.79323549,17.1426681 C8.79363517,17.6157385 8.41843367,18.0000177 7.95563182,18.0000177 L7.95523182,18.0000177 L4.61201845,18.0000177 C4.1492166,18.0024613 3.77241509,17.6206493 3.77001508,17.1471697 L3.77001508,17.1426681 Z M19.2696771,5.57167804 C19.2696771,6.04515763 18.8944756,6.42860654 18.4316737,6.42860654 C17.9692719,6.42901577 17.5940704,6.04556686 17.5940704,5.57208727 L17.5940704,5.57167804 L17.5940704,2.14437328 C17.5940704,1.90742886 17.4068696,1.71427211 17.1760687,1.71427211 L2.09320837,1.71427211 C1.86520746,1.71427211 1.6756067,1.90701963 1.6756067,2.14437328 L1.6756067,12.4275153 C1.6756067,12.6640504 1.86240745,12.8572072 2.09320837,12.8572072 L5.86442346,12.8572072 C6.32722531,12.856798 6.70242681,13.2406561 6.70282681,13.7141357 C6.70282681,14.1872061 6.32762531,14.5714787 5.86482346,14.5714787 L5.86442346,14.5714787 L0.840403362,14.5714787 C0.37760151,14.5731103 0.0012000048,14.1900707 0,13.7170003 L0,13.7141357 L0,0.857343607 C0,0.383864012 0.376001504,2.93198493e-06 0.840403362,2.93198493e-06 L18.4288737,2.93198493e-06 C18.8916756,-0.00122181319 19.2680771,0.381408629 19.2696771,0.854888224 L19.2696771,0.857343607 L19.2696771,5.57167804 Z M15.4540618,17.9697456 C15.2172609,17.9697456 14.98766,17.8694614 14.8396594,17.7024954 C14.6372585,17.4757817 13.997656,16.8860807 13.4732539,16.8860807 C12.9528518,16.8860807 12.3028492,17.4794648 12.1156485,17.6865354 C11.9680479,17.8514552 11.740047,17.9500798 11.506046,17.9500798 C11.3944456,17.9500798 11.2892452,17.9279813 11.1936448,17.8846029 L11.1768447,17.877646 L9.58403834,16.9662898 L9.56803827,16.9544222 C9.27643711,16.7403946 9.16963668,16.3471242 9.31163725,16.0095091 C9.31243725,16.007463 9.45843783,15.6637094 9.45843783,15.348602 C9.45723783,14.3955043 8.70203481,13.6228773 7.77003108,13.6216496 L7.70323081,13.6216496 C7.43682975,13.6216496 7.21922888,13.3793852 7.1500286,13.0045301 C7.14442858,12.9742471 7.01402806,12.2630046 7.01402806,11.7031774 C7.01402806,11.1421225 7.14402858,10.4312893 7.1496286,10.4001878 C7.22042888,10.0212404 7.44162977,9.77692983 7.71363085,9.78347752 L7.76963108,9.78347752 C8.70203481,9.78224982 9.45723783,9.00921356 9.45843783,8.05570669 C9.45843783,7.74182695 9.31243725,7.3980734 9.31123724,7.39439033 C9.16963668,7.05677523 9.27763711,6.66391403 9.57003828,6.45111421 L9.58643835,6.43965576 L11.2676451,5.49433349 L11.2852451,5.48737657 C11.3792455,5.44563507 11.4828459,5.42476432 11.5928464,5.42476432 C11.8264473,5.42476432 12.0544482,5.52052424 12.2040488,5.68217025 C12.4032496,5.8953793 13.0320521,6.44906806 13.5404542,6.44906806 C14.0448562,6.44906806 14.6700587,5.90561006 14.8684595,5.69649332 C15.0172601,5.53853038 15.244061,5.44481661 15.4748619,5.44481661 C15.5868623,5.44481661 15.6924628,5.46609659 15.7892632,5.50865655 L15.8060632,5.51643193 L17.4292697,6.43965576 L17.4452698,6.45111421 C17.7360709,6.65736634 17.8464714,7.06414138 17.7024708,7.39561802 C17.7016708,7.3980734 17.5556702,7.74182695 17.5556702,8.05570669 C17.5568702,9.00880433 18.3116732,9.78184059 19.244077,9.78306829 L19.3004772,9.78306829 C19.5712783,9.77692983 19.7940792,10.0204219 19.8640795,10.4001878 C19.8696795,10.4304708 20.00008,11.1421225 20.00008,11.7019497 C20.00008,12.2625954 19.8696795,12.9746563 19.8632795,13.0053486 C19.7940792,13.3838867 19.5712783,13.6277881 19.3004772,13.6216496 L19.244077,13.6216496 C18.3116732,13.6224681 17.5568702,14.3955043 17.5556702,15.348602 C17.5556702,15.6624817 17.7016708,16.007463 17.7028708,16.0099183 C17.8448714,16.3479427 17.7372709,16.7412131 17.4448698,16.9544222 L17.4288697,16.9662898 L15.7772631,17.8997444 L15.760463,17.9067013 C15.6632627,17.9492613 15.5588622,17.9705413 15.4536618,17.9697456 L15.4540618,17.9697456 Z M15.0644603,16.064346 C15.0704603,16.0688475 15.0868603,16.074986 15.1040604,16.074986 L15.1064604,16.074986 L16.3344653,15.380522 C16.3052652,15.3097251 16.1696647,14.9680177 16.1696647,14.611578 C16.1700647,13.5488066 16.9832679,12.6718258 18.0204721,12.6149428 C18.0352721,12.5314598 18.1160725,12.0604356 18.1160725,11.7068605 C18.1160725,11.3536946 18.0352721,10.8826704 18.0204721,10.7991874 C16.9836679,10.7418952 16.1704647,9.86573283 16.1696647,8.80296143 C16.1696647,8.44488481 16.3056652,8.10317741 16.3344653,8.03278978 L15.1264605,7.34651037 L15.1212605,7.34610114 C15.1052604,7.34610114 15.0888604,7.35019344 15.0748603,7.35878728 C14.9368597,7.49956255 14.7872591,7.62765167 14.6280585,7.74223618 C14.255257,8.01028211 13.9036556,8.14614661 13.5808543,8.14614661 C13.255653,8.14614661 12.9004516,8.0074175 12.5260501,7.73446081 C12.3652495,7.61783014 12.2148489,7.48646717 12.0764483,7.34282729 C12.0620482,7.33464269 12.0460482,7.33014115 12.0296481,7.33014115 L12.0252481,7.33014115 L10.7740431,8.03401747 C10.8032432,8.10522357 10.9388438,8.44693097 10.9388438,8.80296143 C10.9376438,9.86573283 10.1244405,10.7423044 9.08723635,10.7991874 C9.07243629,10.8822612 8.99243597,11.3536946 8.99243597,11.7068605 C8.99243597,12.0604356 9.07243629,12.5314598 9.08763635,12.615352 C10.1252405,12.6718258 10.9380438,13.5488066 10.9392438,14.611578 C10.9392438,14.9688362 10.8020432,15.3121805 10.7728431,15.3813404 L11.9580478,16.059026 L11.9604478,16.059026 C11.9780479,16.059026 11.994048,16.0524783 12.000448,16.0487952 C12.1396486,15.8998354 12.2916492,15.7635616 12.4540498,15.641611 C12.8340513,15.3571958 13.1944528,15.211919 13.5268541,15.211919 C13.8624554,15.211919 14.2264569,15.3596512 14.6084584,15.6502048 C14.8644595,15.8445893 15.0424602,16.0402014 15.0644603,16.064346 L15.0644603,16.064346 Z M13.5276541,14.2694614 C12.1264485,14.2682337 10.990444,13.1064285 10.988844,11.6728944 C10.988844,10.2409971 12.1280485,9.07550889 13.5276541,9.07550889 C14.9268597,9.07550889 16.0660643,10.2409971 16.0660643,11.6728944 C16.0660643,13.1047916 14.9268597,14.2694614 13.5276541,14.2694614 L13.5276541,14.2694614 Z M13.5276541,10.352717 C12.8152513,10.3535355 12.238049,10.944055 12.2372489,11.6728944 C12.238049,12.4013245 12.8152513,12.9914348 13.5276541,12.9922532 C14.239657,12.9914348 14.8168593,12.4013245 14.8172593,11.6728944 C14.8168593,10.944055 14.239657,10.3535355 13.5276541,10.352717 L13.5276541,10.352717 Z"></path>
        </g>
    </g>
</svg>