<?xml version="1.0" encoding="UTF-8"?>
<svg width="20px" height="20px" viewBox="0 0 20 20" version="1.1" xmlns="http://www.w3.org/2000/svg" xmlns:xlink="http://www.w3.org/1999/xlink">
    <title>nav_icon05</title>
    <g id="nav_icon05" stroke="none" stroke-width="1" fill="none" fill-rule="evenodd">
        <g transform="translate(1.000080, 1.000000)" fill="#CBE6FF" id="形状结合">
            <path d="M11.3407873,8.84534948 C11.7238223,8.63073891 12.1997361,8.69351615 12.5158119,8.9993727 L12.5158119,8.9993727 L12.5500115,9.03222126 C12.6202105,9.09901332 12.6947296,9.16142558 12.7732085,9.21836307 C12.963646,9.35596202 13.1105241,9.40486987 13.1753233,9.40486987 C13.2401224,9.40486987 13.3841205,9.35669199 13.575638,9.22091796 C13.656277,9.16179056 13.733676,9.09755338 13.806395,9.02857142 L13.806395,9.02857142 L13.8405946,8.9971828 C14.1588304,8.70264075 14.6271842,8.64716319 15.0037393,8.85921887 L15.0037393,8.85921887 L15.9051675,9.36691154 C16.325642,9.60378612 16.5211194,10.1092889 16.3724414,10.5728185 L16.3724414,10.5728185 L16.3558816,10.6242812 C16.3281619,10.7012929 16.3126821,10.7826843 16.3094422,10.8648057 C16.3098022,11.2776025 16.6111182,11.6265272 17.0146729,11.6812748 L17.0146729,11.6812748 L17.0625523,11.6874795 C17.5031865,11.7480668 17.8531019,12.0937066 17.923661,12.539352 L17.923661,12.539352 L17.9312209,12.5871649 C17.9629005,12.7930159 18.0007,13.0952226 17.9999902,13.3653107 C17.9999902,13.6499982 17.9560606,13.9744689 17.9301409,14.1423615 L17.9301409,14.1423615 L17.922581,14.1905394 C17.851662,14.6350898 17.5017466,14.9803647 17.0611123,15.040587 L17.0611123,15.040587 L17.013233,15.0471567 C16.6100382,15.1019043 16.3090822,15.450829 16.3090822,15.8636258 C16.3126821,15.9457472 16.3281619,16.0271386 16.3558816,16.1045152 L16.3558816,16.1045152 L16.3735213,16.1570729 C16.5229194,16.6216975 16.326002,17.1282952 15.9040875,17.3644398 L15.9040875,17.3644398 L14.9900595,17.8746874 C14.6012646,18.0900279 14.1192309,18.0232358 13.8020672,17.7097146 L13.8020672,17.7097146 L13.7678755,17.6757711 C13.6973164,17.6056942 13.6224374,17.540727 13.5432384,17.4812347 C13.2926817,17.2932679 13.1623634,17.2786686 13.1281639,17.2786686 C13.0615648,17.2786686 12.9146867,17.3304963 12.7188493,17.4757599 C12.6382103,17.5356173 12.5618913,17.6005844 12.4898923,17.6706613 L12.4898923,17.6706613 L12.4553327,17.7042399 C12.1378169,18.0163011 11.6557832,18.0790784 11.2705882,17.8586281 L11.2705882,17.8586281 L10.3943597,17.3618849 C9.97388524,17.1239154 9.77984779,16.6162227 9.9314058,16.1526931 L9.9314058,16.1526931 L9.94796558,16.1015953 C9.96992529,16.0395481 9.98432511,15.9749459 9.99044503,15.9096138 C10.0311245,15.4756479 9.71720861,15.0909548 9.28953421,15.0497116 L9.28953421,15.0497116 L9.24165484,15.0431419 C8.80066062,14.9832845 8.45038522,14.6372797 8.37946615,14.1919993 L8.37946615,14.1919993 L8.37226624,14.1438214 C8.34022666,13.9365106 8.30206716,13.6339389 8.30206716,13.3671356 C8.30206716,13.0963175 8.34022666,12.7937458 8.37262624,12.5875299 L8.37262624,12.5875299 L8.37982614,12.539717 C8.45074521,12.0948016 8.80030063,11.7498917 9.24093485,11.6893044 L9.24093485,11.6893044 L9.28809423,11.6827347 C9.35361337,11.6768949 9.41769253,11.6622956 9.47961172,11.6400316 C9.88352643,11.492943 10.0934037,11.0418229 9.94832558,10.6323109 L9.94832558,10.6323109 L9.9314058,10.5808481 C9.77804781,10.1143987 9.97604521,9.60378612 10.4011996,9.36727652 L10.4011996,9.36727652 Z M13.4832632,0 C14.5070898,0 15.3397589,0.809534396 15.3397589,1.80448064 L15.3397589,1.80448064 L15.3397589,6.83140455 C15.3397589,7.25478593 15.0010033,7.59823583 14.5834088,7.59823583 C14.1658143,7.59823583 13.8270587,7.25478593 13.8270587,6.83140455 L13.8270587,6.83140455 L13.8270587,2.27895977 C13.8270587,1.86798784 13.4627435,1.53366255 13.0152694,1.53366255 L13.0152694,1.53366255 L2.32484952,1.53366255 C1.87701539,1.53366255 1.51270017,1.86798784 1.51270017,2.27895977 L1.51270017,2.27895977 L1.51270017,15.6859151 C1.51270017,16.096887 1.87701539,16.4315773 2.32484952,16.4315773 L2.32484952,16.4315773 L7.27082468,16.4315773 C7.68841921,16.4315773 8.02717476,16.7746622 8.02717476,17.1984086 C8.02717476,17.62179 7.68841921,17.9652399 7.27082468,17.9652399 L7.27082468,17.9652399 L1.85685566,17.9652399 C0.833029079,17.9652399 0,17.1553405 0,16.1603943 L0,16.1603943 L0,1.80448064 C0,0.809534396 0.834109065,0 1.85685566,0 L1.85685566,0 Z M11.8177811,9.78700806 L10.9339927,10.2775465 L10.9404726,10.2968906 C11.0023918,10.4797476 11.0355113,10.6717292 11.0387513,10.8651706 C11.0369513,11.8090191 10.3475603,12.6061441 9.42489244,12.7309686 L9.42489244,12.7309686 L9.40761267,12.7335235 L9.4050927,12.7510427 C9.37125314,12.9539738 9.35253339,13.1594597 9.34857344,13.3653107 C9.35289338,13.5704317 9.37161314,13.7748227 9.4050927,13.9770238 L9.4050927,13.9770238 L9.40761267,13.994543 L9.42489244,13.9967329 C10.3479203,14.1211924 11.0376713,14.9186824 11.0387513,15.8628958 C11.0355113,16.0574323 11.0020318,16.2501438 10.9397526,16.4340957 L10.9397526,16.4340957 L10.9336327,16.4527099 L11.7540619,16.9176994 L11.7663017,16.90529 C11.8717804,16.8027295 11.9837389,16.7074687 12.1014574,16.6198725 C12.4600126,16.3530693 12.8034481,16.2180252 13.1281639,16.2180252 C13.4528796,16.2180252 13.8017151,16.3559892 14.1638703,16.6275372 C14.2823088,16.7165933 14.3946273,16.814044 14.4997459,16.9184294 L14.4997459,16.9184294 L14.5123457,16.9308389 L15.3694945,16.4519799 L15.3630146,16.4333658 C15.3010954,16.2497788 15.2679758,16.0570673 15.2647359,15.8628958 C15.2661759,14.9190474 15.9559268,14.1215574 16.8789547,13.9967329 L16.8789547,13.9967329 L16.8962345,13.994543 L16.8998344,13.9781187 C16.933314,13.7755526 16.9520338,13.5707966 16.9563537,13.3656757 C16.9520338,13.1594597 16.932594,12.9543388 16.8994744,12.7510427 L16.8994744,12.7510427 L16.8965945,12.7335235 L16.8793147,12.7313336 C15.9566468,12.6061441 15.2668959,11.8090191 15.2650959,10.8651706 C15.2679758,10.6709992 15.3014554,10.4786526 15.3633746,10.2947007 L15.3633746,10.2947007 L15.3694945,10.2760866 L14.5231456,9.80014748 L14.5105458,9.81182697 C14.4057871,9.90964267 14.2952686,10.0005237 14.1789901,10.08447 L14.1789901,10.08447 C13.8243948,10.3363089 13.4874392,10.4629583 13.1753233,10.4629583 C12.8585274,10.4629583 12.5194119,10.334119 12.1662565,10.0793602 C12.0478181,9.99358898 11.9354995,9.90015309 11.8300209,9.79868755 L11.8300209,9.79868755 L11.8177811,9.78700806 Z M13.1518876,11.6799243 C14.0666356,11.6806543 14.8075059,12.4321562 14.8085859,13.3595804 C14.8085859,14.2870046 14.0669956,15.0388716 13.1518876,15.0388716 C12.2367796,15.0388716 11.4951893,14.2870046 11.4951893,13.3595804 C11.4951893,12.4317912 12.2367796,11.6799243 13.1518876,11.6799243 Z M13.1518876,12.7387427 C12.813852,12.7387427 12.5395356,13.0164955 12.5395356,13.3595804 C12.5395356,13.7023004 12.813852,13.9800531 13.1518876,13.9800531 C13.4895632,13.9796882 13.7635196,13.7019354 13.7638796,13.3595804 C13.7638796,13.0164955 13.4899231,12.7387427 13.1518876,12.7387427 Z M7.9103203,9.24303599 C8.38119412,9.24303599 8.76314912,9.62991897 8.76314912,10.107318 C8.76314912,10.584717 8.38119412,10.9719649 7.9103203,10.9719649 C7.43944647,10.9719649 7.05749148,10.584717 7.05749148,10.107318 C7.05749148,9.62991897 7.43944647,9.24303599 7.9103203,9.24303599 Z M7.9103203,4.31834408 C8.32611484,4.31834408 8.66667038,4.66325391 8.66667038,5.08517535 L8.66667038,5.08517535 L8.66667038,7.83167956 C8.66667038,8.253601 8.32611484,8.59851083 7.9103203,8.59851083 C7.49452575,8.59851083 7.15397021,8.253601 7.15397021,7.83167956 L7.15397021,7.83167956 L7.15397021,5.08517535 C7.15397021,4.66325391 7.49452575,4.31834408 7.9103203,4.31834408 Z"></path>
        </g>
    </g>
</svg>