<?xml version="1.0" encoding="UTF-8"?>
<svg width="11px" height="12px" viewBox="0 0 11 12" version="1.1" xmlns="http://www.w3.org/2000/svg" xmlns:xlink="http://www.w3.org/1999/xlink">
    <title>pc</title>
    <defs>
        <polygon id="path-1" points="0 0.8787 10.9255 0.8787 10.9255 3.9997 0 3.9997"></polygon>
        <polygon id="path-3" points="0 0.1326 10.9255 0.1326 10.9255 3.2536 0 3.2536"></polygon>
        <polygon id="path-5" points="0 0.3865 10.9255 0.3865 10.9255 3.5085 0 3.5085"></polygon>
    </defs>
    <g id="定稿" stroke="none" stroke-width="1" fill="none" fill-rule="evenodd">
        <g id="告警/告警分析" transform="translate(-1518.000000, -363.000000)">
            <g id="历史告警bg备份-2" transform="translate(1071.000000, 284.000000)">
                <g id="编组-5备份-2" transform="translate(447.000000, 73.000000)">
                    <g id="pc" transform="translate(0.000000, 6.613700)">
                        <g id="编组" transform="translate(0.000000, 7.000000)">
                            <mask id="mask-2" fill="white">
                                <use xlink:href="#path-1"></use>
                            </mask>
                            <g id="Clip-2"></g>
                            <path d="M10.1455,2.8297 C10.1455,3.0627 9.9895,3.2197 9.7555,3.2197 L1.1705,3.2197 C0.9365,3.2197 0.7805,3.0627 0.7805,2.8297 L0.7805,2.0497 C0.7805,1.8147 0.9365,1.6587 1.1705,1.6587 L9.7555,1.6587 C9.9895,1.6587 10.1455,1.8147 10.1455,2.0497 L10.1455,2.8297 Z M9.7555,0.8787 L1.1705,0.8787 C0.5465,0.8787 -0.0005,1.4247 -0.0005,2.0497 L-0.0005,2.8297 C-0.0005,3.4537 0.5465,3.9997 1.1705,3.9997 L9.7555,3.9997 C10.3795,3.9997 10.9255,3.4537 10.9255,2.8297 L10.9255,2.0497 C10.9255,1.4247 10.3795,0.8787 9.7555,0.8787 L9.7555,0.8787 Z" id="Fill-1" fill="#3D6EC0" mask="url(#mask-2)"></path>
                        </g>
                        <path d="M8.5845,9.4391 C8.5845,9.7411 8.8285,9.9861 9.1305,9.9861 C9.4325,9.9861 9.6775,9.7421 9.6775,9.4401 L9.6775,9.4391 C9.6775,9.1371 9.4335,8.8931 9.1315,8.8921 C8.8295,8.8921 8.5845,9.1361 8.5845,9.4381 L8.5845,9.4391 Z" id="Fill-3" fill="#3D6EC0"></path>
                        <g id="编组" transform="translate(0.000000, 4.000000)">
                            <mask id="mask-4" fill="white">
                                <use xlink:href="#path-3"></use>
                            </mask>
                            <g id="Clip-6"></g>
                            <path d="M10.1455,2.0836 C10.1455,2.3166 9.9895,2.4736 9.7555,2.4736 L1.1705,2.4736 C0.9365,2.4736 0.7805,2.3166 0.7805,2.0836 L0.7805,1.3036 C0.7805,1.0686 0.9365,0.9126 1.1705,0.9126 L9.7555,0.9126 C9.9895,0.9126 10.1455,1.0686 10.1455,1.3036 L10.1455,2.0836 Z M9.7555,0.1326 L1.1705,0.1326 C0.5465,0.1326 -0.0005,0.6786 -0.0005,1.3036 L-0.0005,2.0836 C-0.0005,2.7076 0.5465,3.2536 1.1705,3.2536 L9.7555,3.2536 C10.3795,3.2536 10.9255,2.7076 10.9255,2.0836 L10.9255,1.3036 C10.9255,0.6786 10.3795,0.1326 9.7555,0.1326 L9.7555,0.1326 Z" id="Fill-5" fill="#3D6EC0" mask="url(#mask-4)"></path>
                        </g>
                        <path d="M8.5845,5.693 C8.5845,5.995 8.8285,6.24 9.1305,6.24 C9.4325,6.24 9.6775,5.996 9.6775,5.694 L9.6775,5.693 C9.6775,5.391 9.4335,5.147 9.1315,5.146 C8.8295,5.146 8.5845,5.39 8.5845,5.692 L8.5845,5.693 Z" id="Fill-7" fill="#3D6EC0"></path>
                        <g id="编组">
                            <mask id="mask-6" fill="white">
                                <use xlink:href="#path-5"></use>
                            </mask>
                            <g id="Clip-10"></g>
                            <path d="M10.1455,2.3375 C10.1455,2.5715 9.9895,2.7275 9.7555,2.7275 L1.1705,2.7275 C0.9365,2.7275 0.7805,2.5715 0.7805,2.3375 L0.7805,1.5575 C0.7805,1.3225 0.9365,1.1665 1.1705,1.1665 L9.7555,1.1665 C9.9895,1.1665 10.1455,1.3225 10.1455,1.5575 L10.1455,2.3375 Z M9.7555,0.3865 L1.1705,0.3865 C0.5465,0.3865 -0.0005,0.8545 -0.0005,1.5575 L-0.0005,2.3375 C-0.0005,2.9615 0.5465,3.5085 1.1705,3.5085 L9.7555,3.5085 C10.3795,3.5085 10.9255,2.9615 10.9255,2.3375 L10.9255,1.5575 C10.9255,0.8545 10.3795,0.3865 9.7555,0.3865 L9.7555,0.3865 Z" id="Fill-9" fill="#3D6EC0" mask="url(#mask-6)"></path>
                        </g>
                        <path d="M8.5845,1.9469 C8.5845,2.2489 8.8285,2.4939 9.1305,2.4939 C9.4325,2.4939 9.6775,2.2499 9.6775,1.9479 L9.6775,1.9469 C9.6775,1.6449 9.4335,1.4009 9.1315,1.3999 C8.8295,1.3999 8.5845,1.6439 8.5845,1.9459 L8.5845,1.9469 Z" id="Fill-11" fill="#3D6EC0"></path>
                    </g>
                </g>
            </g>
        </g>
    </g>
</svg>