<?xml version="1.0" encoding="UTF-8"?>
<svg width="15px" height="15px" viewBox="0 0 15 15" version="1.1" xmlns="http://www.w3.org/2000/svg" xmlns:xlink="http://www.w3.org/1999/xlink">
    <title>编组</title>
    <defs>
        <polygon id="path-1" points="0.6248 0.6441 5.945 0.6441 5.945 12.7881 0.6248 12.7881"></polygon>
        <polygon id="path-3" points="5.60757381e-05 0.921 11.9801282 0.921 11.9801282 13.9996 5.60757381e-05 13.9996"></polygon>
    </defs>
    <g id="定稿" stroke="none" stroke-width="1" fill="none" fill-rule="evenodd">
        <g id="个人中心1" transform="translate(-297.000000, -501.000000)">
            <g id="编组" transform="translate(297.000000, 501.000000)">
                <g transform="translate(9.000000, 1.079000)">
                    <mask id="mask-2" fill="white">
                        <use xlink:href="#path-1"></use>
                    </mask>
                    <g id="Clip-2"></g>
                    <path d="M2.7958,7.1171 C3.1908,6.8191 3.5178,6.4231 3.7538,5.9531 C4.0328,5.4031 4.1768,4.7951 4.1748,4.1791 C4.1748,2.2351 2.7828,0.6441 1.0648,0.6441 C0.8208,0.6441 0.6248,0.8581 0.6248,1.1211 C0.6248,1.3831 0.8208,1.5961 1.0648,1.5961 C2.2908,1.5961 3.2888,2.7531 3.2888,4.1721 C3.2888,5.5921 2.2908,6.7481 1.0658,6.7481 C0.8218,6.7481 0.6248,6.9621 0.6248,7.2241 C0.6248,7.4861 0.8208,7.6991 1.0648,7.6991 C3.2688,7.6991 5.0658,9.7721 5.0658,12.3131 C5.0658,12.5751 5.2628,12.7881 5.5058,12.7881 C5.7488,12.7881 5.9448,12.5751 5.9448,12.3121 C5.9598,11.1571 5.6378,10.0231 5.0198,9.0481 C4.4558,8.1611 3.6888,7.5011 2.7968,7.1171 L2.7958,7.1171 Z" id="Fill-1" fill="#FF8F3F" mask="url(#mask-2)"></path>
                </g>
                <path d="M5.998,8.5409 C5.985,8.5449 6.014,8.5449 5.998,8.5409" id="Fill-3" fill="#3D6EC0"></path>
                <g transform="translate(0.000000, 0.079000)">
                    <mask id="mask-4" fill="white">
                        <use xlink:href="#path-3"></use>
                    </mask>
                    <g id="Clip-6"></g>
                    <path d="M3.1171,4.6806 C3.1191,3.0886 4.4121,1.8006 6.0041,1.80358956 C7.5941,1.80358956 8.8851,3.0906 8.8901,4.6806 C8.8851,6.2716 7.5941,7.5576 6.0041,7.5576 C4.4131,7.5576 3.1221,6.2716 3.1171,4.6806 Z M10.7801,9.9706 C10.4201,9.4606 9.9731,9.0186 9.4611,8.6626 C8.9981,8.3376 8.4921,8.0776 7.9591,7.8916 C9.0831,7.2116 9.7721,5.9946 9.7751,4.6806 C9.7751,2.6086 8.0831,0.9206 6.0041,0.9206 C3.9231,0.9206 2.2311,2.6086 2.2311,4.6806 C2.2311,5.3866 2.4271,6.0736 2.8021,6.6686 C3.1161,7.1716 3.5491,7.5976 4.0611,7.9046 C3.5181,8.0866 3.0051,8.3486 2.5391,8.6826 C2.0261,9.0416 1.5741,9.4816 1.2001,9.9836 C0.4171,11.0106 -0.0049,12.2686 1.29155034e-05,13.5606 C1.29155034e-05,13.8036 0.1971,13.9996 0.4391,13.9996 C0.6821,13.9996 0.8791,13.8036 0.8791,13.5606 C0.8791,12.2006 1.4111,10.9256 2.3751,9.9576 C3.2751,9.0604125 4.47392813,8.53060781 5.73757559,8.46623892 L6.0041,8.4596 L6.0041,8.4596 C7.3151,8.4866 8.6671,9.0096 9.6041,9.9446 C10.5651,10.8976 11.1041,12.1946 11.1011,13.5476 C11.1011,13.7896 11.2981,13.9876 11.5401,13.9876 C11.7831,13.9876 11.980156,13.7896 11.980156,13.5476 C11.9841,12.2556 11.5621,10.9986 10.7801,9.9706 Z" id="形状" fill="#3D6EC0" mask="url(#mask-4)"></path>
                </g>
            </g>
        </g>
    </g>
</svg>