<?xml version="1.0" encoding="UTF-8"?>
<svg width="15px" height="16px" viewBox="0 0 15 16" version="1.1" xmlns="http://www.w3.org/2000/svg" xmlns:xlink="http://www.w3.org/1999/xlink">
    <title>编组</title>
    <defs>
        <polygon id="path-1" points="0 0.1287 14.188 0.1287 14.188 13 0 13"></polygon>
        <polygon id="path-3" points="0.6179 0.777 7.5699 0.777 7.5699 4.0528 0.6179 4.0528"></polygon>
    </defs>
    <g id="定稿" stroke="none" stroke-width="1" fill="none" fill-rule="evenodd">
        <g id="个人中心1" transform="translate(-297.000000, -539.000000)">
            <g id="编组" transform="translate(297.000000, 539.000000)">
                <g transform="translate(0.000000, 2.223400)">
                    <mask id="mask-2" fill="white">
                        <use xlink:href="#path-1"></use>
                    </mask>
                    <g id="Clip-2"></g>
                    <path d="M1.8284,1.1527 C1.3844,1.1527 1.0224,1.5137 1.0224,1.9587 L1.0224,11.1737 C1.0224,11.6177 1.3844,11.9787 1.8284,11.9787 L12.3604,11.9787 C12.8044,11.9787 13.1654,11.6177 13.1654,11.1737 L13.1654,1.9567 C13.1654,1.5117 12.8044,1.1517 12.3604,1.1517 L1.8284,1.1527 Z M12.3604,13.0007 L1.8284,13.0007 C0.8194,13.0007 -0.0006,12.1797 -0.0006,11.1717 L-0.0006,1.9567 C-0.0006,0.9487 0.8194,0.1287 1.8284,0.1287 L12.3604,0.1287 C13.3684,0.1287 14.1884,0.9487 14.1884,1.9567 L14.1884,11.1717 C14.1884,12.1293 13.4474475,12.9181325 12.5099756,12.9946217 L12.3604,13.0007 Z" id="形状" fill="#3D6EC0" mask="url(#mask-2)"></path>
                </g>
                <path d="M9.8587,10.0549 L4.3297,10.0549 C4.0477,10.0549 3.8177,10.2849 3.8177,10.5669 C3.8177,10.8479 4.0477,11.0779 4.3297,11.0779 L9.8587,11.0779 C10.1397,11.0779 10.3707,10.8479 10.3707,10.5669 C10.3707,10.2849 10.1397,10.0549 9.8587,10.0549 Z M9.8587,6.7409 L4.3297,6.7409 C4.0477,6.7409 3.8177,6.9709 3.8177,7.2519 C3.8177,7.5339 4.0477,7.7629 4.3297,7.7629 L9.8587,7.7629 C10.1397,7.7629 10.3707,7.5339 10.3707,7.2519 C10.3707,6.9709 10.1397,6.7409 9.8587,6.7409 Z" id="形状" fill="#FF8F3F"></path>
                <g transform="translate(3.000000, 0.223400)">
                    <mask id="mask-4" fill="white">
                        <use xlink:href="#path-3"></use>
                    </mask>
                    <g id="Clip-6"></g>
                    <path d="M7.0589,0.7768 C6.7779,0.7768 6.5469,1.0068 6.5469,1.2878 L6.5469,3.5418 C6.5469,3.8228 6.7779,4.0528 7.0589,4.0528 C7.3399,4.0528 7.5699,3.8228 7.5699,3.5418 L7.5699,1.2878 C7.5699,1.0068 7.3399,0.7768 7.0589,0.7768 Z M1.1299,0.7768 C0.8489,0.7768 0.6179,1.0068 0.6179,1.2878 L0.6179,3.5418 C0.6179,3.8228 0.8489,4.0528 1.1299,4.0528 C1.4109,4.0528 1.6409,3.8228 1.6409,3.5418 L1.6409,1.2878 C1.6409,1.0068 1.4109,0.7768 1.1299,0.7768 Z" id="形状" fill="#3D6EC0" mask="url(#mask-4)"></path>
                </g>
            </g>
        </g>
    </g>
</svg>