<?xml version="1.0" encoding="UTF-8"?>
<svg width="13px" height="16px" viewBox="0 0 13 16" version="1.1" xmlns="http://www.w3.org/2000/svg" xmlns:xlink="http://www.w3.org/1999/xlink">
    <title>编组</title>
    <defs>
        <polygon id="path-1" points="0 0.886 12.9609 0.886 12.9609 15 0 15"></polygon>
    </defs>
    <g id="定稿" stroke="none" stroke-width="1" fill="none" fill-rule="evenodd">
        <g id="个人中心1" transform="translate(-297.000000, -425.000000)">
            <g id="编组" transform="translate(297.000000, 425.000000)">
                <g transform="translate(0.000000, 0.114500)">
                    <mask id="mask-2" fill="white">
                        <use xlink:href="#path-1"></use>
                    </mask>
                    <g id="Clip-2"></g>
                    <path d="M11.9529,12.469 C11.9529,13.309 11.2699,13.992 10.4299,13.992 L2.5309,13.992 C1.6909,13.992 1.0079,13.309 1.0079,12.469 L1.0079,3.416 C1.0079,2.576 1.6909,1.894 2.5309,1.894 L4.1289,1.894 L5.1639,3.647 L7.7969,3.647 L8.8319,1.894 L10.4299,1.894 C11.2699,1.894 11.9529,2.576 11.9529,3.416 L11.9529,12.469 Z M7.6619,1.894 L7.2219,2.639 L5.7389,2.639 L5.2989,1.894 L7.6619,1.894 Z M10.4299,0.886 L2.5309,0.886 C1.1349,0.886 -0.0001,2.021 -0.0001,3.416 L-0.0001,12.469 C-0.0001,13.865 1.1349,15 2.5309,15 L10.4299,15 C11.8259,15 12.9609,13.865 12.9609,12.469 L12.9609,3.416 C12.9609,2.0768 11.914884,0.977216 10.5961113,0.891392 L10.4299,0.886 Z" id="形状" fill="#3D6EC0" mask="url(#mask-2)"></path>
                </g>
                <path d="M8.7962,12.3804 L4.1642,12.3804 C3.8862,12.3804 3.6602,12.6064 3.6602,12.8844 C3.6602,13.1624 3.8862,13.3884 4.1642,13.3884 L8.7962,13.3884 C9.0742,13.3884 9.3002,13.1624 9.3002,12.8844 C9.3002,12.6064 9.0742,12.3804 8.7962,12.3804" id="Fill-3" fill="#FF8F3F"></path>
            </g>
        </g>
    </g>
</svg>