<?xml version="1.0" encoding="UTF-8"?>
<svg width="14px" height="16px" viewBox="0 0 14 16" version="1.1" xmlns="http://www.w3.org/2000/svg" xmlns:xlink="http://www.w3.org/1999/xlink">
    <title>编组</title>
    <defs>
        <polygon id="path-1" points="0 0.303692308 13.3936923 0.303692308 13.3936923 7.53846154 0 7.53846154"></polygon>
    </defs>
    <g id="定稿" stroke="none" stroke-width="1" fill="none" fill-rule="evenodd">
        <g id="个人中心1" transform="translate(-297.000000, -388.000000)">
            <g id="编组" transform="translate(297.000000, 387.999677)">
                <path d="M6.71504615,6.16215385 C5.29566154,6.16215385 4.14012308,5.00769231 4.14012308,3.58723077 C4.14012308,2.16784615 5.29566154,1.01338462 6.71504615,1.01338462 C8.13443077,1.01338462 9.28996923,2.16784615 9.28996923,3.58723077 C9.28996923,5.00769231 8.13443077,6.16215385 6.71504615,6.16215385 Z M6.71504615,0 C4.73781538,0 3.12781538,1.60892308 3.12781538,3.58723077 C3.12781538,5.56553846 4.73781538,7.17446154 6.71504615,7.17446154 C8.69335385,7.17446154 10.3022769,5.56553846 10.3022769,3.58723077 C10.3022769,1.60892308 8.69335385,0 6.71504615,0 Z" id="形状" fill="#FF8F3F"></path>
                <g transform="translate(0.000000, 7.471477)">
                    <mask id="mask-2" fill="white">
                        <use xlink:href="#path-1"></use>
                    </mask>
                    <g id="Clip-4"></g>
                    <path d="M12.3704,5.25 C12.3704,5.96723077 11.7888615,6.54769231 11.0716308,6.54769231 L2.30547692,6.54769231 C1.58824615,6.54769231 1.00670769,5.96723077 1.00670769,5.25 L1.00670769,2.62553846 C1.00670769,1.90938462 1.58824615,1.32784615 2.30547692,1.32784615 L11.0716308,1.32784615 C11.7888615,1.32784615 12.3704,1.90938462 12.3704,2.62553846 L12.3704,5.25 Z M11.0834769,0.303692308 L2.31086154,0.303692308 C1.03470769,0.303692308 -0.000215384615,1.33861538 -0.000215384615,2.61584615 L-0.000215384615,5.22738462 C-0.000215384615,6.50353846 1.03470769,7.53846154 2.31086154,7.53846154 L11.0834769,7.53846154 C12.3596308,7.53846154 13.3945538,6.50353846 13.3945538,5.22738462 L13.3945538,2.61584615 C13.3945538,1.39183333 12.4440776,0.390356571 11.2416823,0.309025196 L11.0834769,0.303692308 Z" id="形状" fill="#3D6EC0" mask="url(#mask-2)"></path>
                </g>
            </g>
        </g>
    </g>
</svg>