<?xml version="1.0" encoding="UTF-8"?>
<svg width="14px" height="12px" viewBox="0 0 14 12" version="1.1" xmlns="http://www.w3.org/2000/svg" xmlns:xlink="http://www.w3.org/1999/xlink">
    <title>编组</title>
    <defs>
        <polygon id="path-1" points="0.0003 0.253 13.329 0.253 13.329 11 0.0003 11"></polygon>
    </defs>
    <g id="定稿" stroke="none" stroke-width="1" fill="none" fill-rule="evenodd">
        <g id="个人中心1" transform="translate(-297.000000, -466.000000)">
            <g id="编组" transform="translate(297.000000, 466.000000)">
                <g transform="translate(0.000000, 0.746700)">
                    <mask id="mask-2" fill="white">
                        <use xlink:href="#path-1"></use>
                    </mask>
                    <g id="Clip-2"></g>
                    <path d="M1.3433,1.1484 C1.0963,1.1484 0.8953,1.3494 0.8953,1.5964 L0.8953,9.6564 C0.8953,9.9044 1.0963,10.1044 1.3433,10.1044 L11.9863,10.1044 C12.2323,10.1044 12.4333,9.9034 12.4333,9.6564 L12.4333,1.5964 C12.4333,1.3494 12.2333,1.1484 11.9863,1.1484 L1.3433,1.1484 Z M11.9863,11.0004 L1.3433,11.0004 C0.6023,11.0004 0.0003,10.3974 0.0003,9.6564 L0.0003,1.5964 C0.0003,0.8564 0.6023,0.2524 1.3433,0.2524 L11.9863,0.2524 C12.7263,0.2524 13.3293,0.8564 13.3293,1.5964 L13.3293,9.6564 C13.3293,10.3538118 12.7951547,10.9289813 12.1153712,10.9942351 L11.9863,11.0004 Z" id="形状" fill="#3D6EC0" mask="url(#mask-2)"></path>
                </g>
                <path d="M6.687,6.5299 C6.599,6.5299 6.512,6.5039 6.439,6.4549 L1.961,3.4689 C1.751,3.3389 1.687,3.0619 1.818,2.8529 C1.949,2.6429 2.226,2.5789 2.436,2.7109 C2.443,2.7149 2.45,2.7189 2.457,2.7239 L6.687,5.5439 L10.916,2.7239 C11.126,2.5929 11.403,2.6579 11.534,2.8679 C11.659,3.0689 11.606,3.3329 11.413,3.4689 L6.935,6.4549 C6.862,6.5049 6.775,6.5299 6.687,6.5299" id="Fill-3" fill="#FF8F3F"></path>
            </g>
        </g>
    </g>
</svg>