<?xml version="1.0" encoding="utf-8"?>
<!-- Generator: Adobe Illustrator 24.0.0, SVG Export Plug-In . SVG Version: 6.00 Build 0)  -->
<svg version="1.1" id="图层_1" xmlns="http://www.w3.org/2000/svg" xmlns:xlink="http://www.w3.org/1999/xlink" x="0px" y="0px"
	 viewBox="0 0 16 16" style="enable-background:new 0 0 16 16;" xml:space="preserve">
<style type="text/css">
	.st0{fill:none;stroke:#FFFFFF;stroke-miterlimit:10;}
	.st1{fill:none;stroke:#FFFFFF;stroke-width:0.2835;stroke-miterlimit:10;}
	.st2{fill:none;stroke:#FFFFFF;stroke-width:0.7087;stroke-miterlimit:10;}
</style>
<g>
	<path class="st0" d="M12.5,1.5h-9c-0.5,0-1,0.5-1,1v11c0,0.6,0.5,1,1,1h9c0.6,0,1-0.4,1-1v-11C13.5,2,13.1,1.5,12.5,1.5z"/>
	<g>
		<circle class="st1" cx="5.8" cy="5.8" r="0.5"/>
		<circle class="st1" cx="5.8" cy="5.8" r="0.5"/>
		<circle class="st1" cx="5.8" cy="5.8" r="0.5"/>
		<circle class="st1" cx="5.8" cy="5.8" r="0.5"/>
		<path class="st2" d="M6.2,7v2c0,0,0,0.1,0,0.1C6.7,9.3,7,9.7,7,10.2c0,0.7-0.6,1.2-1.2,1.2s-1.2-0.6-1.2-1.2c0-0.5,0.3-1,0.8-1.1
			c0,0,0-0.1,0-0.1V7c0,0,0-0.1,0-0.1C4.8,6.7,4.5,6.3,4.5,5.8c0-0.7,0.6-1.2,1.2-1.2S7,5.1,7,5.8C7,6.3,6.7,6.7,6.2,7
			C6.2,6.9,6.2,7,6.2,7z"/>
		<path class="st2" d="M11.9,10.6c-0.1,0.1-0.2,0.1-0.4,0.1h-3c-0.3,0-0.5-0.2-0.5-0.5c0-0.1,0.1-0.3,0.1-0.4
			c0.1-0.1,0.2-0.1,0.4-0.1h3c0.3,0,0.5,0.2,0.5,0.5C12,10.4,11.9,10.5,11.9,10.6z"/>
		<path class="st2" d="M11.9,8.4c-0.1,0.1-0.2,0.1-0.4,0.1h-2C9.2,8.5,9,8.3,9,8c0-0.1,0.1-0.3,0.1-0.4c0.1-0.1,0.2-0.1,0.4-0.1h2
			C11.8,7.5,12,7.7,12,8C12,8.1,11.9,8.3,11.9,8.4z"/>
		<path class="st2" d="M11.9,6.1c-0.1,0.1-0.2,0.1-0.4,0.1h-3C8.2,6.2,8,6,8,5.7c0-0.1,0.1-0.3,0.1-0.4c0.1-0.1,0.2-0.1,0.4-0.1h3
			c0.3,0,0.5,0.2,0.5,0.5C12,5.9,11.9,6,11.9,6.1z"/>
		<circle class="st1" cx="5.8" cy="5.8" r="0.5"/>
		<circle class="st1" cx="5.8" cy="10.2" r="0.5"/>
		<circle class="st1" cx="5.8" cy="5.8" r="0.5"/>
		<circle class="st1" cx="5.8" cy="5.8" r="0.5"/>
		<circle class="st1" cx="5.8" cy="5.8" r="0.5"/>
		<circle class="st1" cx="5.8" cy="5.8" r="0.5"/>
	</g>
</g>
</svg>
