<?xml version="1.0" standalone="no"?><!DOCTYPE svg PUBLIC "-//W3C//DTD SVG 1.1//EN" "http://www.w3.org/Graphics/SVG/1.1/DTD/svg11.dtd"><svg t="1620960018810" class="icon" viewBox="0 0 1024 1024" version="1.1" xmlns="http://www.w3.org/2000/svg" p-id="646" xmlns:xlink="http://www.w3.org/1999/xlink" width="200" height="200"><defs><style type="text/css"></style></defs><path d="M988.1 687.2l-34-1.2s-12.1-31.3-16.4-39.2l24.3-21.7c13.1-13.1 13.1-35.9 0-49l-32.7-32.7c-13.1-13.1-35.9-13.1-49 0l-26.1 26.1c-13.1-6.5-26.1-13.1-39.2-16.3v-35.9c0-19.6-16.3-32.7-32.7-32.7h-45.7c-19.6 0-32.7 16.3-32.7 32.7v35.9c-13.1 3.3-26.1 9.8-39.2 16.3l-22.9-26.1c-13.1-13.1-35.9-13.1-49 0L560 576.2c-13.1 13.1-13.1 35.9 0 49l26.1 26.1c-6.5 13.1-13.1 26.1-16.3 39.2h-35.9c-19.6 0-32.7 16.3-32.7 32.7v45.7c0 19.6 16.3 32.7 32.7 32.7h35.9c3.3 13.1 9.8 26.1 16.3 39.2L560 866.9c-13.1 13.1-13.1 35.9 0 49l32.7 32.7c13.1 13.1 35.9 13.1 49 0l26.1-26.1c13.1 6.5 26.1 13.1 39.2 16.3v35.9c0 19.6 16.3 32.7 32.7 32.7h45.7c19.6 0 32.7-16.3 32.7-32.7v-35.9c13.1-3.3 26.1-9.8 39.2-16.3l26.1 26.1c13.1 13.1 35.9 13.1 49 0l32.7-32.7c13.1-13.1 13.1-35.9 0-49L939 840.8c6.5-13.1 13.1-26.1 16.3-39.2h35.9c19.6 0 32.7-16.3 32.7-32.7v-45.7c0.1-19.6-16.2-36-35.8-36zM762.6 837.5c-49 0-91.5-42.5-91.5-91.5s42.5-91.5 91.5-91.5 91.5 42.5 91.5 91.5c0 49.1-42.5 91.5-91.5 91.5zM419.6 831.2c19.1 0 31.9-12.7 31.9-31.9 0-19.1-12.7-31.9-31.9-31.9H167.9c-19.1 0-31.9 12.7-31.9 31.9 0 19.1 12.7 31.9 31.9 31.9h251.7zM168 448.9h465.2c19.1 0 31.9-12.7 31.9-31.9 0-19.1-12.7-31.9-31.9-31.9H168c-19.1 0-31.9 12.7-31.9 31.9 0 19.1 12.7 31.9 31.9 31.9zM168 257.7h465.2c19.1 0 31.9-12.7 31.9-31.9 0-19.1-12.7-31.9-31.9-31.9H168c-19.1 0-31.9 12.7-31.9 31.9s12.7 31.9 31.9 31.9zM464.3 576.3H168c-19.1 0-31.9 12.7-31.9 31.9 0 19.1 12.7 31.9 31.9 31.9h296.3c19.1 0 31.9-12.7 31.9-31.9-0.1-19.1-16-31.9-31.9-31.9z" fill="#C0D0D0" p-id="647"></path><path d="M422.9 972.4H83.8c-47 0-83.8-36.8-83.8-83.8V100.4C0 55 38.4 16.6 83.8 16.6h681.3c47 0 83.8 36.8 83.8 83.8v305.5c0 17.6-14.3 31.9-31.9 31.9-17.6 0-31.9-14.3-31.9-31.9V100.4c0-9.7-7-20.1-20.1-20.1H83.8c-9.9 0-20.1 10.1-20.1 20.1v788.2c0 9.7 7 20.1 20.1 20.1h339.1c17.6 0 31.9 14.3 31.9 31.9 0 17.6-14.3 31.8-31.9 31.8z" fill="#C0D0D0" p-id="648"></path></svg>