<?xml version="1.0" encoding="utf-8"?>
<!-- Generator: Adobe Illustrator 24.0.0, SVG Export Plug-In . SVG Version: 6.00 Build 0)  -->
<svg version="1.1" id="图层_1" xmlns="http://www.w3.org/2000/svg" xmlns:xlink="http://www.w3.org/1999/xlink" x="0px" y="0px"
	 viewBox="0 0 14 14" style="enable-background:new 0 0 14 14;" xml:space="preserve">
<style type="text/css">
	.st0{fill:#FF4D4F;}
</style>
<g>
	<path class="st0" d="M10.8,11.8c0,0.5-0.4,0.8-0.8,0.8H4c-0.5,0-0.8-0.4-0.8-0.8V3h7.6C10.8,3,10.8,11.8,10.8,11.8z M4.8,1.6
		c0-0.1,0.1-0.2,0.2-0.2h4c0.1,0,0.2,0.1,0.2,0.2v0.5H4.8V1.6z M13.2,2.1h-3.1V1.6c0-0.6-0.5-1.2-1.2-1.2h-4c-0.6,0-1.2,0.5-1.2,1.2
		v0.5h-3c-0.3,0-0.5,0.2-0.5,0.5s0.2,0.5,0.5,0.5h1.4v8.8c0,1,0.8,1.8,1.8,1.8h6c1,0,1.8-0.8,1.8-1.8V3.1h1.5c0.3,0,0.5-0.2,0.5-0.5
		S13.5,2.1,13.2,2.1z M7,11.2c0.3,0,0.5-0.2,0.5-0.5V5.4c0-0.3-0.2-0.5-0.5-0.5S6.5,5.1,6.5,5.4v5.3C6.5,10.9,6.7,11.2,7,11.2
		 M4.6,11.2c0.3,0,0.5-0.2,0.5-0.5V5.4c0-0.3-0.2-0.5-0.5-0.5c-0.2,0-0.5,0.2-0.5,0.5v5.3C4.1,10.9,4.4,11.2,4.6,11.2 M9.3,11.2
		c0.3,0,0.5-0.2,0.5-0.5V5.4c0-0.3-0.2-0.5-0.5-0.5S8.8,5.1,8.8,5.4v5.3C8.8,10.9,9,11.2,9.3,11.2"/>
</g>
</svg>
