<?xml version="1.0" standalone="no"?><!DOCTYPE svg PUBLIC "-//W3C//DTD SVG 1.1//EN" "http://www.w3.org/Graphics/SVG/1.1/DTD/svg11.dtd"><svg class="icon" width="14px" height="14.00px" viewBox="0 0 1024 1024" version="1.1" xmlns="http://www.w3.org/2000/svg"><path d="M857.6 128 228.608 128c-15.7568 0-27.3152 14.0288-25.2672 29.6576 0.0256 0.1664 0.0512 0.3456 0.064 0.512C204.9408 170.0608 214.5792 179.2 226.56 179.2L857.6 179.2c28.2752 0 51.2 22.9248 51.2 51.2l0 691.2c0 28.2752-22.9248 51.2-51.2 51.2L166.4 972.8c-28.2752 0-51.2-22.9248-51.2-51.2L115.2 267.6096C142.4512 292.1088 178.304 307.2 217.6 307.2L780.8 307.2c14.144 0 25.6-11.456 25.6-25.6 0-14.144-11.456-25.6-25.6-25.6L221.2224 256c-54.4896 0-102.144-41.024-105.7792-95.3856C111.4496 100.992 158.8224 51.2 217.6 51.2L780.8 51.2c14.144 0 25.6-11.456 25.6-25.6 0-14.144-11.456-25.6-25.6-25.6L217.6 0c-84.48 0-153.6 69.12-153.6 153.6l0 0 0 768c0 56.32 46.08 102.4 102.4 102.4l691.2 0c56.32 0 102.4-46.08 102.4-102.4L960 230.4C960 174.08 913.9328 128 857.6 128z" fill="#ffffff" /><path d="M371.2256 896 371.2256 640l-153.6 0 0 256L371.2256 896zM268.8256 691.2l51.2 0 0 153.6-51.2 0L268.8256 691.2z" fill="#ffffff" /><path d="M588.8 896 588.8 512 435.2 512l0 384L588.8 896zM486.4 563.2l51.2 0 0 281.6-51.2 0L486.4 563.2z" fill="#ffffff" /><path d="M652.7872 896l153.6 0L806.3872 384l-153.6 0L652.7872 896zM703.9872 435.2l51.2 0 0 409.6-51.2 0L703.9872 435.2z" fill="#ffffff" /></svg>