<?xml version="1.0" encoding="UTF-8"?>
<svg width="12px" height="12px" viewBox="0 0 12 12" version="1.1" xmlns="http://www.w3.org/2000/svg" xmlns:xlink="http://www.w3.org/1999/xlink">
    <title>shujuku</title>
    <defs>
        <polygon id="path-1" points="0 0 12 0 12 12 0 12"></polygon>
    </defs>
    <g id="定稿" stroke="none" stroke-width="1" fill="none" fill-rule="evenodd">
        <g id="告警/告警分析" transform="translate(-1340.000000, -362.000000)">
            <g id="历史告警bg备份-2" transform="translate(1071.000000, 284.000000)">
                <g id="编组-5备份" transform="translate(269.000000, 73.000000)">
                    <g id="shujuku" transform="translate(0.000000, 5.000500)">
                        <mask id="mask-2" fill="white">
                            <use xlink:href="#path-1"></use>
                        </mask>
                        <g id="Clip-2"></g>
                        <path d="M5.667,0.944 L5.486,0.945 C5.433,0.946 5.38,0.947 5.327,0.948 L5.486,0.945 C5.407,0.946 5.329,0.947 5.251,0.95 L5.327,0.948 C5.26,0.949 5.194,0.951 5.127,0.954 L5.251,0.95 C5.164,0.952 5.076,0.955 4.99,0.958 L5.127,0.954 C5.056,0.956 4.984,0.959 4.914,0.962 L4.99,0.959 C4.921,0.962 4.854,0.965 4.787,0.968 L4.913,0.962 C4.811,0.966 4.708,0.972 4.607,0.979 L4.787,0.968 C4.723,0.972 4.661,0.976 4.598,0.98 L4.607,0.979 C4.544,0.984 4.482,0.988 4.421,0.994 L4.598,0.98 C4.507,0.986 4.417,0.994 4.328,1.002 L4.421,0.994 C4.363,0.998 4.305,1.003 4.247,1.008 L4.328,1.002 C4.246,1.008 4.165,1.016 4.084,1.025 L4.247,1.008 C4.174,1.015 4.102,1.023 4.031,1.031 L4.084,1.025 C4.015,1.032 3.948,1.04 3.881,1.048 L4.031,1.03 L3.807,1.056 L3.881,1.048 C3.82,1.055 3.759,1.063 3.698,1.071 L3.807,1.056 C3.724,1.067 3.643,1.079 3.563,1.09 L3.698,1.071 C3.632,1.08 3.566,1.09 3.5,1.099 L3.562,1.09 C3.502,1.099 3.444,1.108 3.386,1.117 L3.5,1.099 C3.419,1.112 3.339,1.125 3.26,1.138 L3.386,1.117 L3.2,1.149 L3.26,1.138 C3.195,1.15 3.131,1.161 3.067,1.173 L3.2,1.149 C3.134,1.161 3.069,1.173 3.005,1.186 L3.067,1.173 C3.002,1.186 2.938,1.2 2.875,1.214 L3.005,1.186 C2.938,1.199 2.873,1.214 2.809,1.227 L2.875,1.214 C2.818,1.225 2.762,1.238 2.707,1.251 L2.809,1.227 C2.746,1.241 2.684,1.256 2.622,1.271 L2.707,1.251 C2.646,1.264 2.587,1.279 2.528,1.294 L2.622,1.271 C2.561,1.286 2.501,1.3 2.442,1.316 L2.529,1.294 C2.475,1.307 2.423,1.322 2.372,1.336 L2.442,1.316 C2.383,1.333 2.325,1.348 2.268,1.366 L2.171,1.395 L2.125,1.41 C2.048,1.434 1.971,1.461 1.895,1.489 L1.954,1.467 L1.867,1.499 L1.895,1.489 L1.808,1.522 L1.867,1.499 L1.77,1.537 L1.808,1.522 L1.719,1.557 L1.77,1.537 C1.737,1.55 1.705,1.563 1.674,1.576 L1.719,1.557 L1.644,1.59 L1.674,1.577 C1.644,1.59 1.615,1.602 1.587,1.615 L1.644,1.59 L1.559,1.628 L1.587,1.615 C1.563,1.626 1.539,1.637 1.515,1.649 L1.559,1.628 C1.241,1.777 1.045,1.925 0.974,2.039 C0.957,2.064 0.946,2.093 0.945,2.125 C0.945,2.289 1.349,2.592 2.137,2.843 C3.055,3.135 4.316,3.305 5.667,3.305 C7.018,3.305 8.279,3.135 9.197,2.843 C9.985,2.592 10.39,2.289 10.39,2.125 C10.39,1.961 9.985,1.657 9.197,1.406 C8.279,1.114 7.018,0.944 5.667,0.944 L5.667,0.944 Z M10.39,3.365 C9.376,3.93 7.641,4.25 5.667,4.25 C3.693,4.25 1.958,3.93 0.944,3.365 L0.944,5.667 C0.944,5.831 1.349,6.134 2.137,6.385 C3.055,6.677 4.316,6.847 5.667,6.847 C7.018,6.847 8.279,6.677 9.197,6.385 C9.946,6.147 10.348,5.861 10.386,5.692 L10.39,5.667 L10.39,3.365 Z M5.667,7.792 C3.693,7.792 1.958,7.472 0.944,6.907 L0.944,9.209 C0.944,9.373 1.349,9.676 2.137,9.927 C3.055,10.219 4.316,10.389 5.667,10.389 C7.018,10.389 8.279,10.219 9.197,9.927 C9.985,9.676 10.39,9.373 10.39,9.209 L10.39,6.907 C9.376,7.472 7.641,7.792 5.667,7.792 L5.667,7.792 Z M5.667,0 L5.834,0.001 C8.892,0.028 11.334,0.829 11.334,2.125 L11.334,9.209 C11.334,10.528 8.803,11.334 5.667,11.334 C2.531,11.334 0,10.528 0,9.209 L0,2.125 C0,1.409 0.742,0.845 1.922,0.478 L1.949,0.47 C2.008,0.453 2.07,0.434 2.132,0.417 L2.186,0.402 C2.272,0.379 2.36,0.356 2.448,0.336 C2.522,0.318 2.598,0.3 2.675,0.284 C3.407,0.128 4.251,0.033 5.157,0.007 C5.272,0.004 5.389,0.002 5.506,0.001 L5.508,0.001 L5.667,0 Z" id="Fill-1" fill="#3D6EC0" mask="url(#mask-2)"></path>
                    </g>
                </g>
            </g>
        </g>
    </g>
</svg>