<?xml version="1.0" standalone="no"?><!DOCTYPE svg PUBLIC "-//W3C//DTD SVG 1.1//EN" "http://www.w3.org/Graphics/SVG/1.1/DTD/svg11.dtd"><svg class="icon" width="14px" height="14.00px" viewBox="0 0 1024 1024" version="1.1" xmlns="http://www.w3.org/2000/svg"><path d="M853.333333 938.666667H170.666667a85.333333 85.333333 0 0 1-85.333334-85.333334V170.666667a85.333333 85.333333 0 0 1 85.333334-85.333334h682.666666a85.333333 85.333333 0 0 1 85.333334 85.333334v682.666666a85.333333 85.333333 0 0 1-85.333334 85.333334z m21.333334-746.666667a42.666667 42.666667 0 0 0-42.666667-42.666667H192a42.666667 42.666667 0 0 0-42.666667 42.666667v640a42.666667 42.666667 0 0 0 42.666667 42.666667h640a42.666667 42.666667 0 0 0 42.666667-42.666667V192z" fill="#ffffff" /><path d="M778.666667 277.333333h-149.333334a32 32 0 0 1 0-64h149.333334a32 32 0 0 1 0 64z m32 96a32 32 0 0 1-32 32h-277.333334a32 32 0 0 1 0-64h277.333334a32 32 0 0 1 32 32zM384 405.333333h-128a42.666667 42.666667 0 0 1-42.666667-42.666666v-106.666667a42.666667 42.666667 0 0 1 42.666667-42.666667h128a42.666667 42.666667 0 0 1 42.666667 42.666667v106.666667a42.666667 42.666667 0 0 1-42.666667 42.666666z m-21.333333-128h-85.333334v64h85.333334v-64z" fill="#ffffff" /><path d="M501.333333 810.666667h-1.941333a32 32 0 0 1-26.154667-16.554667l-92.8-169.642667-19.413333 58.090667a32 32 0 0 1-30.357333 21.824h-85.333334a32 32 0 1 1 0-63.829333h62.272l35.370667-105.813334a32 32 0 0 1 58.453333-5.205333l103.552 189.312 76.970667-107.477333a30.954667 30.954667 0 0 1 26.56-13.354667 32 32 0 0 1 26.112 14.208l33.173333 49.6h110.933334a32 32 0 1 1 0 63.829333h-128a32 32 0 0 1-26.624-14.208l-16.96-25.344-79.701334 111.274667A32 32 0 0 1 501.333333 810.666667z" fill="#ffffff" /></svg>