<?xml version="1.0" encoding="utf-8"?>
<!-- Generator: Adobe Illustrator 24.0.0, SVG Export Plug-In . SVG Version: 6.00 Build 0)  -->
<svg version="1.1" id="图层_1" xmlns="http://www.w3.org/2000/svg" xmlns:xlink="http://www.w3.org/1999/xlink" x="0px" y="0px"
	 viewBox="0 0 16 16" style="enable-background:new 0 0 16 16;" xml:space="preserve">
<style type="text/css">
	.st0{fill:none;stroke:#FFFFFF;stroke-miterlimit:10;}
</style>
<path class="st0" d="M1.8,0.1h12.4c1,0,1.8,0.8,1.8,1.8v12.4c0,1-0.8,1.8-1.8,1.8H1.8c-1,0-1.8-0.8-1.8-1.8V1.9
	C0,0.9,0.8,0.1,1.8,0.1C1.8,0.1,1.8,0.1,1.8,0.1z M6.7,4.3C6.5,3.5,5.7,2.9,4.8,3C4,3.1,3.3,3.9,3.3,4.7c0,0.9,0.6,1.6,1.5,1.7
	S6.5,6,6.7,5.2h4.8c0.2,0,0.4,0.2,0.4,0.4v1.7c0,0.1,0,0.2-0.1,0.3c-0.1,0.1-0.2,0.1-0.3,0.1h-1.3v0.9h1.3c0.3,0,0.7-0.1,0.9-0.4
	c0.2-0.2,0.4-0.6,0.4-0.9V5.6c0-0.7-0.6-1.3-1.3-1.3C11.5,4.3,6.7,4.3,6.7,4.3z M4.6,12.2h4.8c0.1,0.9,0.9,1.6,1.8,1.5
	s1.6-0.8,1.6-1.7c0-0.8-0.6-1.6-1.4-1.7c-0.8-0.2-1.6,0.3-1.9,1.1H4.6c-0.1,0-0.2,0-0.3-0.1c-0.1-0.1-0.1-0.2-0.1-0.3V9.1
	c0-0.1,0-0.2,0.1-0.3c0.1-0.1,0.2-0.1,0.3-0.1h5.6V7.8H4.6c-0.3,0-0.7,0.1-0.9,0.4C3.5,8.4,3.3,8.7,3.3,9.1v1.8
	C3.3,11.6,3.9,12.2,4.6,12.2z M5.9,4.7c0,0.5-0.4,0.9-0.9,0.9c-0.5,0-0.9-0.4-0.9-0.9c0-0.5,0.4-0.9,0.9-0.9
	C5.5,3.9,5.9,4.3,5.9,4.7z M11.9,11.9c0,0.5-0.4,0.9-0.9,0.9c-0.5,0-0.9-0.4-0.9-0.9c0-0.5,0.4-0.9,0.9-0.9
	C11.6,11.1,11.9,11.4,11.9,11.9z"/>
</svg>
