<?xml version="1.0" standalone="no"?><!DOCTYPE svg PUBLIC "-//W3C//DTD SVG 1.1//EN" "http://www.w3.org/Graphics/SVG/1.1/DTD/svg11.dtd"><svg class="icon" width="14px" height="14.00px" viewBox="0 0 1024 1024" version="1.1" xmlns="http://www.w3.org/2000/svg"><path d="M836.740741 777.481481h-649.481482c-32.711111 0-59.259259-26.548148-59.259259-59.259259v-488.296296c0-32.711111 26.548148-59.259259 59.259259-59.259259h649.481482c32.711111 0 59.259259 26.548148 59.259259 59.259259v488.296296c0 32.711111-26.548148 59.259259-59.259259 59.259259z m-649.481482-564.148148c-9.102222 0-16.592593 7.49037-16.592592 16.592593v488.296296c0 9.102222 7.49037 16.592593 16.592592 16.592593h649.481482c9.102222 0 16.592593-7.49037 16.592592-16.592593v-488.296296c0-9.102222-7.49037-16.592593-16.592592-16.592593h-649.481482z" fill="#ffffff" /><path d="M463.075556 637.62963c-6.826667 0-13.368889-3.318519-17.351112-9.007408L347.211852 490.287407l-76.8 76.325926c-8.343704 8.343704-21.902222 8.248889-30.151111-0.094814-8.343704-8.343704-8.248889-21.902222 0.094815-30.151112l94.625185-94.056296c4.456296-4.456296 10.619259-6.637037 16.877037-6.162963 6.257778 0.568889 11.946667 3.792593 15.549629 8.912593l85.997037 120.888889 53.94963-220.254815c1.896296-7.86963 8.154074-14.032593 16.118519-15.739259s16.213333 1.137778 21.238518 7.49037l146.204445 182.044444 62.482963-63.241481c8.248889-8.343704 21.807407-8.438519 30.151111-0.18963 8.343704 8.248889 8.438519 21.807407 0.189629 30.151111L704.474074 566.518519c-4.266667 4.361481-10.24 6.637037-16.308148 6.352592-6.068148-0.284444-11.757037-3.223704-15.54963-7.964444L538.548148 397.842963l-54.708148 223.478518c-1.991111 8.059259-8.533333 14.317037-16.687407 15.834075-1.422222 0.284444-2.74963 0.474074-4.077037 0.474074zM834.37037 853.333333H189.62963c-11.757037 0-21.333333-9.576296-21.333334-21.333333S177.872593 810.666667 189.62963 810.666667h644.74074c11.757037 0 21.333333 9.576296 21.333334 21.333333S846.127407 853.333333 834.37037 853.333333z" fill="#ffffff" /></svg>