<?xml version="1.0" encoding="utf-8"?>
<!-- Generator: Adobe Illustrator 24.0.0, SVG Export Plug-In . SVG Version: 6.00 Build 0)  -->
<svg version="1.1" id="图层_1" xmlns="http://www.w3.org/2000/svg" xmlns:xlink="http://www.w3.org/1999/xlink" x="0px" y="0px"
	 viewBox="0 0 14 14" style="enable-background:new 0 0 14 14;" xml:space="preserve">
<style type="text/css">
	.st0{fill:#FFFFFF;}
</style>
<path class="st0" d="M13.8,12.7l-2.5-2.5c0.8-1.1,1.3-2.4,1.3-3.8c0-3.5-2.8-6.3-6.3-6.3S0,3,0,6.5c0,3.5,2.8,6.3,6.3,6.3
	c1.6,0,3.1-0.6,4.2-1.6l2.5,2.5c0.2,0.2,0.6,0.2,0.9,0C14.1,13.4,14.1,13,13.8,12.7z M6.3,11.7c-2.9,0-5.2-2.2-5.3-5.1
	c0-2.9,2.2-5.2,5.1-5.3c0,0,0.1,0,0.1,0c2.9,0,5.2,2.3,5.2,5.2C11.5,9.3,9.2,11.7,6.3,11.7L6.3,11.7z"/>
</svg>
