<?xml version="1.0" encoding="utf-8"?>
<!-- Generator: Adobe Illustrator 24.0.0, SVG Export Plug-In . SVG Version: 6.00 Build 0)  -->
<svg version="1.1" id="图层_1" xmlns="http://www.w3.org/2000/svg" xmlns:xlink="http://www.w3.org/1999/xlink" x="0px" y="0px"
	 viewBox="0 0 16 16" style="enable-background:new 0 0 16 16;" xml:space="preserve">
<style type="text/css">
	.st0{clip-path:url(#SVGID_2_);enable-background:new    ;}
	.st1{clip-path:url(#SVGID_4_);}
	.st2{clip-path:url(#SVGID_6_);}
	.st3{clip-path:url(#SVGID_8_);fill:#1890FF;}
	.st4{clip-path:url(#SVGID_10_);}
	.st5{clip-path:url(#SVGID_12_);fill:#1890FF;}
	.st6{fill:#1890FF;}
</style>
<g>
	<defs>
		<rect id="SVGID_1_" x="-161.3" y="-109.1" width="7.6" height="7.6"/>
	</defs>
	<clipPath id="SVGID_2_">
		<use xlink:href="#SVGID_1_"  style="overflow:visible;"/>
	</clipPath>
	<g class="st0">
		<g>
			<defs>
				<rect id="SVGID_3_" x="-161.5" y="-110.1" width="8" height="9"/>
			</defs>
			<clipPath id="SVGID_4_">
				<use xlink:href="#SVGID_3_"  style="overflow:visible;"/>
			</clipPath>
			<g class="st1">
				<defs>
					<path id="SVGID_5_" d="M-157.5-101.5c-2.1,0-3.8-1.7-3.8-3.8s1.7-3.8,3.8-3.8s3.8,1.7,3.8,3.8S-155.4-101.5-157.5-101.5
						 M-157.5-107.5c-1.2,0-2.2,1-2.2,2.2c0,1.2,1,2.2,2.2,2.2c1.2,0,2.2-1,2.2-2.2C-155.3-106.6-156.3-107.5-157.5-107.5"/>
				</defs>
				<clipPath id="SVGID_6_">
					<use xlink:href="#SVGID_5_"  style="overflow:visible;"/>
				</clipPath>
				<g class="st2">
					<defs>
						<rect id="SVGID_7_" x="-161.5" y="-109.1" width="8" height="8"/>
					</defs>
					<clipPath id="SVGID_8_">
						<use xlink:href="#SVGID_7_"  style="overflow:visible;"/>
					</clipPath>
					<rect x="-166.3" y="-114.1" class="st3" width="17.6" height="17.6"/>
				</g>
			</g>
		</g>
	</g>
</g>
<g>
	<defs>
		<path id="SVGID_9_" d="M-157.5-99.4l6.4,1.6v3.2h-12.8v-3.2L-157.5-99.4 M-157.5-101.1c0,0-0.1,0-0.1,0l-7.4,1.8
			c-0.3,0.1-0.5,0.3-0.5,0.6v4.9c0,0.3,0.3,0.6,0.6,0.6h14.8c0.3,0,0.6-0.3,0.6-0.6v-4.9c0-0.3-0.2-0.5-0.5-0.6l-7.4-1.8
			C-157.4-101.1-157.5-101.1-157.5-101.1"/>
	</defs>
	<clipPath id="SVGID_10_">
		<use xlink:href="#SVGID_9_"  style="overflow:visible;"/>
	</clipPath>
	<g class="st4">
		<defs>
			<rect id="SVGID_11_" x="-951.5" y="-532.1" width="1920" height="1080"/>
		</defs>
		<clipPath id="SVGID_12_">
			<use xlink:href="#SVGID_11_"  style="overflow:visible;"/>
		</clipPath>
		<rect x="-170.5" y="-106.1" class="st5" width="26" height="18"/>
	</g>
</g>
<g>
	<g>
		<path class="st6" d="M8,7.5c-2.1,0-3.8-1.7-3.8-3.8S5.9,0,8,0s3.8,1.7,3.8,3.8S10.1,7.5,8,7.5z M8,1.5c-1.2,0-2.2,1-2.2,2.2
			S6.8,6,8,6s2.2-1,2.2-2.2S9.2,1.5,8,1.5z"/>
	</g>
	<path class="st6" d="M8.2,9.6L8.2,9.6L8.2,9.6 M8,9.6l6.4,1.6v3.2H1.6v-3.2L8,9.6 M8,8c0,0-0.1,0-0.1,0L0.5,9.9
		C0.2,10,0,10.2,0,10.5v4.9C0,15.7,0.3,16,0.6,16h14.8c0.3,0,0.6-0.3,0.6-0.6v-4.9c0-0.3-0.2-0.5-0.5-0.6L8.1,8C8.1,8,8,8,8,8L8,8z"
		/>
</g>
</svg>
