<?xml version="1.0" encoding="utf-8"?>
<!-- Generator: Adobe Illustrator 24.0.0, SVG Export Plug-In . SVG Version: 6.00 Build 0)  -->
<svg version="1.1" id="图层_1" xmlns="http://www.w3.org/2000/svg" xmlns:xlink="http://www.w3.org/1999/xlink" x="0px" y="0px"
	 viewBox="0 0 14 14" style="enable-background:new 0 0 14 14;" xml:space="preserve">
<style type="text/css">
	.st0{fill:#3D6EC0;}
	.st1{fill:none;stroke:#FD9A16;stroke-width:0.7;stroke-linecap:round;stroke-linejoin:round;stroke-miterlimit:10;}
</style>
<g>
	<path class="st0" d="M7.1,14H2.3c-0.9,0-1.6-0.7-1.6-1.6V1.6c0-0.9,0.7-1.6,1.6-1.6h9.4c0.9,0,1.6,0.7,1.6,1.6v7
		c0,0.2-0.2,0.5-0.5,0.5s-0.5-0.2-0.5-0.5v-7c0-0.3-0.2-0.7-0.7-0.7H2.3C2,1,1.6,1.2,1.6,1.6v10.9c0,0.3,0.2,0.7,0.7,0.7h4.9
		c0.2,0,0.5,0.2,0.5,0.5C7.6,13.8,7.4,14,7.1,14C7.2,14,7.2,14,7.1,14z M9.5,3.7H3.9c-0.2,0-0.5-0.2-0.5-0.5c0-0.2,0.2-0.5,0.5-0.5
		l0,0h5.7C9.8,2.8,10,3,10,3.2C10,3.5,9.8,3.7,9.5,3.7L9.5,3.7z M9.5,6.5H3.9c-0.2,0-0.5-0.2-0.5-0.5c0-0.2,0.2-0.5,0.5-0.5l0,0h5.7
		c0.2,0,0.5,0.2,0.5,0.5C10,6.4,9.8,6.5,9.5,6.5L9.5,6.5z M7.5,9.4H3.9c-0.2,0-0.5-0.2-0.5-0.5c0-0.2,0.2-0.5,0.5-0.5l0,0h3.6
		C7.7,8.4,8,8.7,8,8.9C8.1,9.1,7.8,9.4,7.5,9.4L7.5,9.4L7.5,9.4z"/>
	<line class="st1" x1="8.3" y1="10.3" x2="12.4" y2="13.7"/>
	<line class="st1" x1="12.4" y1="10.3" x2="8.3" y2="13.7"/>
</g>
</svg>
