<?xml version="1.0" encoding="UTF-8"?>
<svg width="12px" height="11px" viewBox="0 0 12 11" version="1.1" xmlns="http://www.w3.org/2000/svg" xmlns:xlink="http://www.w3.org/1999/xlink">
    <title>windows</title>
    <g id="定稿" stroke="none" stroke-width="1" fill="none" fill-rule="evenodd">
        <g id="告警/告警分析" transform="translate(-1518.000000, -403.000000)" fill="#3D6EC0">
            <g id="历史告警bg备份-2" transform="translate(1071.000000, 284.000000)">
                <g id="编组-5备份-7" transform="translate(447.000000, 113.000000)">
                    <g id="windows" transform="translate(0.000000, 6.000000)">
                        <path d="M0.84,7.55636727 L10.9145455,7.55636727 L10.9145455,7.13636727 L0.84,7.13636727 L0.84,7.55636727 Z M0.84,6.29745818 L10.9145455,6.29745818 L10.9145455,0.83964 L0.84,0.83964 L0.84,6.29745818 Z M10.9145455,-0.00036 L0.84,-0.00036 C0.375272727,-0.00036 0,0.376003636 0,0.83964 L0,7.55636727 C0,8.02000364 0.375272727,8.39636727 0.84,8.39636727 L5.45781818,8.39636727 L5.45781818,9.23527636 L3.77890909,9.23527636 C3.54654545,9.23527636 3.35781818,9.42400364 3.35781818,9.65527636 C3.35781818,9.88764 3.54654545,10.0752764 3.77890909,10.0752764 L7.97672727,10.0752764 C8.208,10.0752764 8.39672727,9.88764 8.39672727,9.65527636 C8.39672727,9.42400364 8.208,9.23527636 7.97672727,9.23527636 L6.29672727,9.23527636 L6.29672727,8.39636727 L10.9145455,8.39636727 C11.3781818,8.39636727 11.7545455,8.02000364 11.7545455,7.55636727 L11.7545455,0.83964 C11.7545455,0.376003636 11.3781818,-0.00036 10.9145455,-0.00036 L10.9145455,-0.00036 Z" id="Fill-1"></path>
                        <path d="M2.09901818,5.45789455 C2.18192727,5.45789455 2.26265455,5.43389455 2.33029091,5.38698545 L4.61792727,3.85316727 L6.48992727,4.97898545 C6.62956364,5.06953091 6.80847273,5.06953091 6.94810909,4.97898545 L9.88701818,2.88007636 C10.0855636,2.76116727 10.1521091,2.50371273 10.0332,2.30407636 C9.91538182,2.10553091 9.65792727,2.03898545 9.45829091,2.15789455 C9.43756364,2.16989455 9.41792727,2.18407636 9.39938182,2.20044 L6.71683636,4.11825818 L4.85247273,2.99680364 C4.7172,2.91280364 4.54374545,2.91280364 4.40847273,2.99680364 L1.88956364,4.67680364 C1.68992727,4.79571273 1.62338182,5.05207636 1.74229091,5.25280364 C1.81756364,5.37825818 1.95283636,5.45571273 2.09901818,5.45789455" id="Fill-3"></path>
                    </g>
                </g>
            </g>
        </g>
    </g>
</svg>