<?xml version="1.0" encoding="utf-8"?>
<!-- Generator: Adobe Illustrator 24.0.0, SVG Export Plug-In . SVG Version: 6.00 Build 0)  -->
<svg version="1.1" id="图层_1" xmlns="http://www.w3.org/2000/svg" xmlns:xlink="http://www.w3.org/1999/xlink" x="0px" y="0px"
	 viewBox="0 0 12 12" style="enable-background:new 0 0 12 12;" xml:space="preserve">
<style type="text/css">
	.st0{fill:#3D6EC0;}
</style>
<g>
	<path class="st0" d="M9.2,1.3c0.1,0,0.3,0.1,0.3,0.3v8.4C9.5,10,9.4,10,9.4,10H2.8c-0.1,0-0.1-0.1-0.1-0.1V1.5
		c0-0.2,0.1-0.3,0.3-0.3H9.2 M9.2,0.6H2.9C2.3,0.6,2,1.1,2,1.5v8.4C2,10,1.9,10,1.9,10h-1c-0.1,0-0.1,0.1-0.1,0.1v0.4
		c-0.1,0.2,0,0.3,0.1,0.3h10.5c0.1,0,0.1-0.1,0.1-0.1v-0.4c0-0.1-0.1-0.1-0.1-0.1h-1c-0.1,0-0.1-0.1-0.1-0.1V1.7
		C10.1,1.1,9.8,0.6,9.2,0.6z"/>
	<path class="st0" d="M8.2,2.7v0.9H4V2.7H8.2 M8.8,2H3.3v2.3h5.5C8.8,4.3,8.8,2,8.8,2z"/>
	<path class="st0" d="M4.6,7.6H6V4.9L4.6,7.6z"/>
	<path class="st0" d="M6.1,6.8v2.7l1.4-2.7H6.1z"/>
</g>
</svg>
