<?xml version="1.0" encoding="utf-8"?>
<!-- Generator: Adobe Illustrator 24.0.0, SVG Export Plug-In . SVG Version: 6.00 Build 0)  -->
<svg version="1.1" id="图层_1" xmlns="http://www.w3.org/2000/svg" xmlns:xlink="http://www.w3.org/1999/xlink" x="0px" y="0px"
	 viewBox="0 0 16 16" style="enable-background:new 0 0 16 16;" xml:space="preserve">
<style type="text/css">
	.st0{fill:#C0D0D0;}
</style>
<g>
	<g>
		<path class="st0" d="M13.5,15.2h-11C2.2,15.2,2,15,2,14.8v0c0-0.3,0.2-0.5,0.5-0.5h11c0.3,0,0.5,0.2,0.5,0.5v0
			C14,15,13.8,15.2,13.5,15.2z"/>
	</g>
	<g>
		<g>
			<path class="st0" d="M14.1,12.8H1.9c-0.8,0-1.4-0.7-1.4-1.5v-9c0-0.8,0.6-1.5,1.4-1.5H8c0.3,0,0.5,0.2,0.5,0.5S8.3,1.8,8,1.8H1.9
				C1.7,1.8,1.5,2,1.5,2.2v9c0,0.3,0.2,0.5,0.4,0.5h12.2c0.2,0,0.4-0.2,0.4-0.5V6.8c0-0.3,0.2-0.5,0.5-0.5s0.5,0.2,0.5,0.5v4.5
				C15.5,12.1,14.9,12.8,14.1,12.8z"/>
		</g>
	</g>
	<g>
		<path class="st0" d="M3.5,8.2c-0.1,0-0.2,0-0.3-0.1C3,8,2.9,7.7,3.1,7.5l1.7-2.6c0.2-0.2,0.4-0.4,0.7-0.4c0.3,0,0.5,0,0.8,0.2
			l3.2,2.4l4.7-5.6c0.2-0.2,0.5-0.2,0.7-0.1c0.2,0.2,0.2,0.5,0.1,0.7l-4.7,5.6C9.8,8.1,9.2,8.2,8.8,7.9L5.6,5.5L3.9,8
			C3.8,8.2,3.7,8.2,3.5,8.2z"/>
	</g>
	<g>
		<path class="st0" d="M14.9,1.2l-2.4,0c-0.1,0-0.2,0.1-0.1,0.2l2.3,2.3c0.1,0.1,0.2,0,0.2-0.1l0-2.4C15,1.3,15,1.2,14.9,1.2z"/>
	</g>
</g>
</svg>
