<?xml version="1.0" encoding="utf-8"?>
<!-- Generator: Adobe Illustrator 24.0.0, SVG Export Plug-In . SVG Version: 6.00 Build 0)  -->
<svg version="1.1" id="图层_1" xmlns="http://www.w3.org/2000/svg" xmlns:xlink="http://www.w3.org/1999/xlink" x="0px" y="0px"
	 viewBox="0 0 16 16" style="enable-background:new 0 0 16 16;" xml:space="preserve">
<style type="text/css">
	.st0{fill:#C0D0D0;}
</style>
<path class="st0" d="M15.9,7.7c-0.1-0.1-0.2-0.2-0.4-0.3c-0.2,0-0.5-0.2-0.7-0.4c-0.6-0.6-0.6-1.7,0-2.4C15,4.4,15,4,14.8,3.8
	l-2.7-2.7C12,1.1,11.9,1,11.7,1s-0.3,0.1-0.4,0.2c-0.6,0.6-1.7,0.6-2.4,0C8.7,1,8.6,0.7,8.5,0.4c0-0.1-0.1-0.3-0.3-0.4H7.8L4.2,1
	C3.8,1.1,3.7,1.4,3.7,1.7c0.2,0.6,0,1.2-0.4,1.6s-1,0.6-1.6,0.4C1.4,3.7,1.1,3.8,1,4.2L0,7.8c0,0.1,0,0.3,0.1,0.4
	c0.1,0.1,0.2,0.2,0.4,0.3S1,8.7,1.2,8.9c0.6,0.6,0.6,1.7,0,2.4C1.1,11.4,1,11.6,1,11.7c0,0.2,0.1,0.3,0.2,0.4l2.7,2.7
	c0.2,0.2,0.6,0.2,0.8,0c0.6-0.6,1.7-0.6,2.4,0c0.2,0.2,0.4,0.5,0.4,0.8c0,0.2,0.1,0.3,0.3,0.4h0.4l3.6-1c0.3-0.1,0.5-0.4,0.4-0.7
	c-0.2-0.6,0-1.2,0.4-1.6c0.4-0.4,1-0.6,1.6-0.4c0.3,0.1,0.6-0.1,0.7-0.4l1-3.7C16,8,16,7.9,15.9,7.7z M14,11c-0.8,0-1.6,0.3-2.2,0.8
	C11.3,12.4,11,13.2,11,14l-2.6,0.7c-0.1-0.3-0.3-0.5-0.5-0.8c-0.5-0.5-1.2-0.8-2-0.8c-0.6,0-1.1,0.2-1.6,0.5l-1.9-1.9
	C3.1,10.6,3,9.1,2,8.1C1.8,7.9,1.5,7.7,1.3,7.6L2,5c0.8,0,1.6-0.3,2.2-0.8C4.7,3.6,5,2.8,5,2l2.6-0.7C7.7,1.5,7.9,1.8,8.1,2
	c0.9,0.9,2.5,1.1,3.6,0.4l1.9,1.9C12.9,5.4,13,6.9,14,7.8c0.2,0.2,0.5,0.4,0.7,0.5L14,11z"/>
<path class="st0" d="M8,4.7C6.2,4.7,4.7,6.2,4.7,8s1.5,3.3,3.3,3.3s3.3-1.5,3.3-3.3S9.8,4.7,8,4.7z M8,10.1c-1.2,0-2.1-1-2.1-2.1
	c0-1.2,1-2.1,2.1-2.1s2.1,1,2.1,2.1C10.1,9.2,9.2,10.1,8,10.1z"/>
</svg>
