<?xml version="1.0" encoding="utf-8"?>
<!-- Generator: Adobe Illustrator 24.0.0, SVG Export Plug-In . SVG Version: 6.00 Build 0)  -->
<svg version="1.1" id="图层_1" xmlns="http://www.w3.org/2000/svg" xmlns:xlink="http://www.w3.org/1999/xlink" x="0px" y="0px"
	 viewBox="0 0 12 12" style="enable-background:new 0 0 12 12;" xml:space="preserve">
<style type="text/css">
	.st0{fill:#3D6EC0;}
</style>
<g>
	<g>
		<path class="st0" d="M3.7,11.6H0.9V1.8c0-0.8,0.7-1.5,1.5-1.5h5.1c0.8,0,1.4,0.6,1.4,1.4v4.7L8.4,6.3C6.9,5.9,5.3,6.7,4.9,8.2
			L4.8,8.4L4.6,8.5c-0.9,0.2-1.4,0.9-1.4,1.8c0,0.3,0.1,0.6,0.3,0.9L3.7,11.6z M1.6,10.9h0.8c-0.1-0.2-0.1-0.5-0.1-0.7
			c0-1.1,0.7-2.1,1.8-2.4C4.7,6.3,6.3,5.3,8,5.5V1.8c0-0.3-0.3-0.6-0.6-0.6H2.3c-0.4,0-0.7,0.3-0.7,0.7V10.9z"/>
	</g>
	<g>
		<path class="st0" d="M7,5.8H2.7c-0.3,0-0.6-0.3-0.6-0.6V4.4c0-0.3,0.3-0.6,0.6-0.6H7c0.3,0,0.6,0.3,0.6,0.6v0.8
			C7.6,5.4,7.3,5.8,7,5.8z M2.8,4.9h4V4.4h-4V4.9z"/>
	</g>
	<g>
		<path class="st0" d="M7,3.5H2.7c-0.3,0-0.6-0.3-0.6-0.6V2.1c0-0.3,0.3-0.6,0.6-0.6H7c0.3,0,0.6,0.3,0.6,0.6v0.8
			C7.6,3.3,7.3,3.5,7,3.5z M2.8,2.8h4V2.3h-4V2.8z"/>
	</g>
	<g>
		<path class="st0" d="M5.3,8.4c0.2-1.1,1.2-2,2.3-2c1.2,0,2.1,0.8,2.3,2l0.4,0.1l0,0c0.7,0.2,1.2,0.7,1.2,1.4
			c0,0.7-0.5,1.3-1.2,1.5l0,0H9.9h-5l0,0c-0.7-0.2-1.2-0.8-1.2-1.5s0.5-1.3,1.2-1.4 M5.6,10.6h4.5c0.5,0,0.8-0.3,0.8-0.7
			c0-0.4-0.4-0.7-0.8-0.7H9.3V8.8c0-0.9-0.7-1.6-1.6-1.6c-0.9,0-1.6,0.7-1.6,1.6v0.4H5.5C5,9.2,4.7,9.5,4.7,9.9
			C4.6,10.4,5,10.6,5.6,10.6L5.6,10.6z"/>
	</g>
</g>
</svg>
