<?xml version="1.0" standalone="no"?><!DOCTYPE svg PUBLIC "-//W3C//DTD SVG 1.1//EN" "http://www.w3.org/Graphics/SVG/1.1/DTD/svg11.dtd"><svg class="icon" width="16px" height="16.00px" viewBox="0 0 1024 1024" version="1.1" xmlns="http://www.w3.org/2000/svg"><path d="M288.2 464.9h-98.5c-18.6 0-33.6 15.1-33.6 33.6v269.6c0 18.6 15.1 33.6 33.6 33.6h98.5c18.6 0 33.6-15 33.6-33.6V498.5c0-18.6-15-33.6-33.6-33.6z m-14.4 288.8h-69.7V512.9h69.7v240.8z m262.9-453h-98.5c-18.6 0-33.6 15-33.6 33.6v433.8c0 18.6 15 33.6 33.6 33.6h98.5c18.6 0 33.6-15 33.6-33.6V334.3c0-18.5-15-33.6-33.6-33.6z m-14.4 453h-69.7v-405h69.7v405zM785.2 95h-98.5c-18.6 0-33.6 15-33.6 33.6v639.5c0 18.6 15 33.6 33.6 33.6h98.5c18.5 0 33.6-15.1 33.6-33.6V128.6c0-18.5-15-33.6-33.6-33.6z m-14.4 658.7h-69.7V143h69.7v610.7z m0 0" fill="#ffffff" /></svg>