<?xml version="1.0" standalone="no"?><!DOCTYPE svg PUBLIC "-//W3C//DTD SVG 1.1//EN" "http://www.w3.org/Graphics/SVG/1.1/DTD/svg11.dtd"><svg class="icon" width="14px" height="14.00px" viewBox="0 0 1024 1024" version="1.1" xmlns="http://www.w3.org/2000/svg"><path d="M314.357544 487.291193h436.176592v37.483707h-436.176592v-37.483707z m0 184.011562h267.49791v37.483708h-267.49791v-37.483708z" fill="#ffffff" /><path d="M827.205537 1023.992H196.794463c-13.629894 0-25.5568-3.407973-37.483708-6.814947-11.926907-5.11196-22.149827-11.926907-30.66976-20.44584s-15.33388-18.741854-20.44484-30.66976c-5.11096-11.925907-6.814947-23.852814-6.814947-37.482708V257.27599c0-13.629894 3.406973-25.5578 6.814947-37.483707 5.11096-11.926907 11.926907-22.149827 20.44584-30.669761s18.741854-15.33388 30.66876-20.44484c11.926907-5.11196 23.852814-6.814947 37.483708-6.814947h95.413254l10.22292 37.483708h-95.413254c-25.5568 0-69.856454 32.371747-69.856455 57.929547v669.598769c0 27.260787 32.372747 59.633534 59.633535 59.633534h630.411074c27.260787 0 59.633534-32.372747 59.633535-59.633534V257.27599c0-27.260787-32.372747-59.633534-59.633535-59.633534h-95.413254V160.158749h95.413254c13.629894 0 25.5568 3.406973 37.483708 6.814947 11.926907 5.11196 22.149827 11.926907 30.66976 20.44584s15.33388 18.741854 20.44484 30.66876c5.11096 11.926907 6.814947 23.852814 6.814947 37.483707v669.598769c0 13.629894-3.406973 25.5568-6.814947 37.483707-5.11096 11.926907-11.926907 22.149827-20.44584 30.669761s-18.741854 15.33388-30.66876 20.44484c-11.926907 8.519933-23.852814 10.22292-37.483708 10.22292z" fill="#ffffff" /><path d="M750.534136 265.794923H271.761877v-146.528855c0-34.075734 27.261787-51.113601 61.337521-51.1136h66.449481C421.697705 23.852814 464.292373 0 515.406973 0s93.709268 22.149827 115.859095 68.152468h59.633534c34.075734 0 61.337521 17.037867 61.337521 51.1146l-1.703987 146.527855z m-441.287552-37.483707h403.803845V119.267068c0-8.519933-5.11196-11.926907-17.038867-11.926907h-98.821228s-1.702987-66.449481-83.486347-66.44948c-74.968414 0-81.783361 66.449481-81.783361 66.44948h-98.821228c-20.44584 0-22.149827 5.11196-22.149827 11.926907v109.044148h-1.702987z" fill="#ffffff" /></svg>