<?xml version="1.0" standalone="no"?><!DOCTYPE svg PUBLIC "-//W3C//DTD SVG 1.1//EN" "http://www.w3.org/Graphics/SVG/1.1/DTD/svg11.dtd"><svg class="icon" width="16px" height="16.00px" viewBox="0 0 1024 1024" version="1.1" xmlns="http://www.w3.org/2000/svg"><path d="M160.4375 752.73242188V233.65039062c1.84570313-2.37304688 4.48242188-4.39453125 5.2734375-7.11914062 6.50390625-21.35742188 22.06054688-29.79492188 39.55078125-35.859375 2.90039063-0.96679688 5.625-2.63671875 8.4375-4.04296875h594.84375c2.90039063 1.31835938 5.625 3.07617188 8.61328125 3.8671875 24.34570313 6.24023438 45.08789063 29.8828125 44.91210938 63.54492188-0.87890625 159.78515625-0.3515625 319.5703125-0.3515625 479.35546874 0 4.30664063 0.96679688 9.05273438-0.3515625 12.74414063-3.77929688 10.10742188-6.94335938 21.26953125-13.27148438 29.1796875-15.1171875 18.984375-35.77148438 24.43359375-57.91992188 24.43359375-184.5703125-0.08789063-369.05273438-0.26367188-553.62304687 0.17578125-33.75-0.08789063-61.5234375-9.58007813-76.11328125-47.19726563z m351.5625-516.796875H232.77148437c-14.85351563 0-15.1171875 0.26367188-15.11718749 16.43554687v481.55273438c0 15.99609375 0.3515625 16.43554688 14.15039062 16.43554687h558.45703125c13.79882813 0 14.15039063-0.43945313 14.15039063-16.43554687V252.37109375c0-16.171875-0.26367188-16.43554688-15.11718751-16.43554688H512z" fill="#ffffff" /><path d="M452.32226562 635.57421875c-10.98632813-1.14257813-21.09375-4.48242188-26.015625-15.29296875-4.83398438-10.546875-0.703125-20.390625 5.00976563-30.32226563 10.01953125-17.31445313 18.19335938-35.859375 27.24609375-53.78906249 13.62304688-27.15820313 27.421875-54.140625 40.95703125-81.29882813 9.93164063-19.86328125 19.51171875-39.90234375 29.35546875-59.765625 5.71289063-11.6015625 11.33789063-23.37890625 17.578125-34.62890625 7.29492188-13.09570313 29.44335938-15.55664063 42.890625-5.2734375 10.72265625 8.17382813 10.72265625 20.83007813 1.93359375 37.00195313-10.45898438 19.51171875-19.59960938 39.81445313-29.70703125 59.67773437-9.75585938 19.3359375-20.12695313 38.40820313-29.8828125 57.74414063-6.76757813 13.359375-13.0078125 26.98242188-19.6875 40.4296875-7.91015625 15.73242188-16.08398438 31.37695313-24.08203125 47.02148437-3.42773438 6.6796875-7.29492188 13.09570313-9.93164063 20.12695313-4.83398438 13.44726563-14.765625 16.875-25.66406249 18.36914062zM674.50976563 493.19140625c-13.53515625-11.77734375-26.3671875-22.76367188-39.11132813-33.92578125-10.10742188-8.87695313-20.56640625-17.2265625-30.05859375-26.89453125-11.6015625-11.86523438-10.546875-24.2578125 1.7578125-34.36523438 11.16210938-9.22851563 28.74023438-7.91015625 39.7265625 1.7578125 27.24609375 24.16992188 54.66796875 47.90039063 82.08984375 71.89453126 3.69140625 3.25195313 7.55859375 6.41601563 10.72265625 10.1953125 5.625 6.76757813 4.65820313 18.19335938-2.19726563 24.34570312-22.5 20.12695313-45.17578125 39.99023438-67.76367187 60.02929688-7.3828125 6.50390625-14.94140625 12.74414063-22.06054688 19.59960937-14.4140625 14.0625-36.12304688 11.68945313-47.54882812-5.44921875-5.71289063-8.61328125-1.93359375-20.65429688 8.52539063-29.70703125 21.796875-18.72070313 43.33007813-37.79296875 65.91796875-57.48046875zM347.8203125 493.015625c22.06054688 19.59960938 42.62695313 38.3203125 63.72070313 56.42578125 8.17382813 7.03125 16.171875 14.15039063 12.65625 26.63085938-3.25195313 11.42578125-13.0078125 16.96289063-22.67578125 17.75390624-7.91015625 0.703125-17.9296875-0.79101563-24.08203125-5.88867187-29.53125-24.2578125-58.18359375-49.74609375-86.66015626-75.5859375-5.09765625-4.65820313-9.66796875-13.0078125-10.10742187-19.95117188-0.3515625-5.71289063 4.74609375-13.53515625 9.31640625-17.75390624 28.74023438-26.015625 57.83203125-51.50390625 87.09960937-76.64062501 13.79882813-11.86523438 34.18945313-7.734375 44.73632813 7.82226563 5.80078125 8.61328125 2.19726563 20.7421875-8.34960938 29.70703125-21.62109375 18.80859375-43.15429688 37.88085938-65.65429687 57.48046875z" fill="#ffffff" /></svg>