<?xml version="1.0" standalone="no"?><!DOCTYPE svg PUBLIC "-//W3C//DTD SVG 1.1//EN" "http://www.w3.org/Graphics/SVG/1.1/DTD/svg11.dtd"><svg class="icon" width="12px" height="12.00px" viewBox="0 0 1024 1024" version="1.1" xmlns="http://www.w3.org/2000/svg"><path d="M515.84 1017.6a91.52 91.52 0 0 1-46.72-12.8l-356.48-205.44A93.44 93.44 0 0 1 64 718.08V306.56a92.8 92.8 0 0 1 47.36-81.28L468.48 19.2a94.72 94.72 0 0 1 94.08 0l356.48 206.08a93.44 93.44 0 0 1 46.72 81.28v411.52a94.08 94.08 0 0 1-46.72 81.28L562.56 1004.8a95.36 95.36 0 0 1-46.72 12.8z m0-947.2a30.72 30.72 0 0 0-14.72 4.48L144.64 280.32a30.08 30.08 0 0 0-16.64 26.24v411.52a29.44 29.44 0 0 0 15.36 25.6l356.48 206.08a30.08 30.08 0 0 0 29.44 0l356.48-206.08a30.08 30.08 0 0 0 14.72-25.6V306.56a31.36 31.36 0 0 0-14.72-26.24L530.56 74.88a30.72 30.72 0 0 0-14.72-4.48zM485.12 46.72z" fill="#3D6EC0" /><path d="M512 856.32a32 32 0 0 1-32-32V480A32 32 0 0 1 512 448a32.64 32.64 0 0 1 32 32v344.32a32 32 0 0 1-32 32z" fill="#3D6EC0" /><path d="M512 512a32 32 0 0 1-11.52-64L768 345.6a32 32 0 1 1 23.04 59.52L526.08 512A24.96 24.96 0 0 1 512 512z" fill="#3D6EC0" /><path d="M512 512a24.96 24.96 0 0 1-11.52 0L245.76 408.32a32 32 0 1 1 23.04-59.52L520.96 448A32 32 0 0 1 512 512z" fill="#3D6EC0" /><path d="M245.76 373.76m-79.36 0a79.36 79.36 0 1 0 158.72 0 79.36 79.36 0 1 0-158.72 0Z" fill="#3D6EC0" /><path d="M519.68 824.96m-79.36 0a79.36 79.36 0 1 0 158.72 0 79.36 79.36 0 1 0-158.72 0Z" fill="#3D6EC0" /><path d="M785.92 373.76m-79.36 0a79.36 79.36 0 1 0 158.72 0 79.36 79.36 0 1 0-158.72 0Z" fill="#3D6EC0" /></svg>