<?xml version="1.0" encoding="utf-8"?>
<!-- Generator: Adobe Illustrator 24.0.0, SVG Export Plug-In . SVG Version: 6.00 Build 0)  -->
<svg version="1.1" id="图层_1" xmlns="http://www.w3.org/2000/svg" xmlns:xlink="http://www.w3.org/1999/xlink" x="0px" y="0px"
	 viewBox="0 0 14 14" style="enable-background:new 0 0 14 14;" xml:space="preserve">
<style type="text/css">
	.st0{fill:#FD9A16;}
	.st1{fill:#3D6EC0;}
</style>
<g>
	<path class="st0" d="M9.7,13.9c-0.2,0-0.5-0.1-0.6-0.2l-1.4-1.4c-0.2-0.2-0.2-0.5,0-0.7c0.2-0.2,0.5-0.2,0.7,0l0,0L9.8,13l2.6-2.6
		c0.2-0.2,0.5-0.2,0.7,0l0,0c0.2,0.2,0.2,0.5,0,0.7l-2.7,2.7C10.2,13.8,10,13.9,9.7,13.9z"/>
	<path class="st1" d="M7.1,13.9H2.3c-0.9,0-1.6-0.7-1.6-1.6V1.6c0-0.9,0.7-1.6,1.6-1.6h9.4c0.9,0,1.6,0.7,1.6,1.6v7
		c0,0.2-0.2,0.5-0.5,0.5c-0.2,0-0.5-0.2-0.5-0.5v-7c0-0.3-0.2-0.7-0.7-0.7H2.3C2,1,1.6,1.2,1.6,1.6v10.8c0,0.3,0.2,0.7,0.7,0.7h4.9
		c0.2,0,0.5,0.2,0.5,0.5C7.6,13.7,7.4,13.9,7.1,13.9L7.1,13.9z M9.5,3.7H3.9c-0.2,0-0.5-0.2-0.5-0.5c0-0.2,0.2-0.5,0.5-0.5l0,0h5.6
		C9.7,2.8,10,3,10,3.2C10,3.6,9.8,3.7,9.5,3.7L9.5,3.7z M9.5,6.5H3.9C3.6,6.5,3.4,6.3,3.4,6s0.2-0.5,0.5-0.5l0,0h5.6
		C9.7,5.6,10,5.8,10,6C10,6.4,9.8,6.5,9.5,6.5L9.5,6.5z M7.6,9.3H4c-0.2,0-0.5-0.2-0.5-0.5c0-0.2,0.2-0.5,0.5-0.5l0,0h3.6
		C7.8,8.4,8,8.6,8,8.9C8,9.1,7.8,9.3,7.6,9.3L7.6,9.3L7.6,9.3z"/>
</g>
</svg>
