<?xml version="1.0" encoding="UTF-8"?>
<svg width="13px" height="12px" viewBox="0 0 13 12" version="1.1" xmlns="http://www.w3.org/2000/svg" xmlns:xlink="http://www.w3.org/1999/xlink">
    <title>cunchu</title>
    <g id="定稿" stroke="none" stroke-width="1" fill="none" fill-rule="evenodd">
        <g id="告警/告警分析" transform="translate(-1340.000000, -402.000000)" fill="#3D6EC0">
            <g id="历史告警bg备份-2" transform="translate(1071.000000, 284.000000)">
                <g id="编组-5备份-6" transform="translate(269.000000, 113.000000)">
                    <g id="cunchu" transform="translate(0.000000, 5.000545)">
                        <path d="M10.65,10.416 L1.875,10.416 C1.272,10.416 0.781,9.88145455 0.781,9.22254545 C0.781,8.56472727 1.272,8.02909091 1.875,8.02909091 L10.65,8.02909091 C11.253,8.02909091 11.744,8.56472727 11.744,9.22254545 C11.744,9.88145455 11.253,10.416 10.65,10.416 L10.65,10.416 Z M3.056,1.32 C3.142,1.04072727 3.379,0.853090909 3.65,0.853090909 L8.541,0.853090909 C8.797,0.853090909 9.031,1.02981818 9.124,1.29054545 L11.114,7.24036364 C10.965,7.2 10.811,7.17709091 10.65,7.17709091 L1.875,7.17709091 C1.692,7.17709091 1.514,7.20654545 1.347,7.25890909 L3.056,1.32 Z M12.254,8.16545455 L9.856,0.992727273 L9.855,0.986181818 C9.753,0.694909091 9.573,0.447272727 9.339,0.270545455 C9.103,0.0938181818 8.828,0 8.542,0 L3.651,0 C3.042,0 2.506,0.424363636 2.316,1.05490909 L2.314,1.05818182 L0.266,8.17418182 C0.097,8.48181818 0,8.83963636 0,9.22254545 C0,10.3505455 0.84,11.268 1.875,11.268 L10.65,11.268 C11.684,11.268 12.525,10.3505455 12.525,9.22254545 C12.525,8.83636364 12.426,8.47527273 12.254,8.16545455 L12.254,8.16545455 Z" id="Fill-1"></path>
                        <path d="M9.2154,9.21425455 C9.2154,9.53389091 9.4534,9.79352727 9.7464,9.79352727 C10.0404,9.79352727 10.2774,9.53389091 10.2774,9.21425455 C10.2774,8.89461818 10.0404,8.63498182 9.7464,8.63498182 C9.4534,8.63498182 9.2154,8.89461818 9.2154,9.21425455" id="Fill-3"></path>
                        <path d="M3.9625,4.70356364 C4.0655,4.5912 4.2035,4.53010909 4.3485,4.53010909 C4.5205,4.53010909 4.6845,4.43956364 4.7855,4.28792727 C4.8875,4.13629091 4.9175,3.93883636 4.8655,3.75774545 C4.8315,3.63665455 4.8125,3.51010909 4.8125,3.38247273 C4.8125,3.04865455 4.9315,2.73447273 5.1485,2.49883636 C5.3635,2.26210909 5.6515,2.13229091 5.9595,2.13229091 L6.2765,2.13229091 C6.9145,2.13229091 7.4315,2.69192727 7.4315,3.38138182 L7.4315,3.38792727 C7.4315,3.51010909 7.4735,3.62683636 7.5535,3.71410909 C7.6325,3.80029091 7.7375,3.84829091 7.8505,3.84829091 C8.0765,3.84829091 8.2905,3.94210909 8.4545,4.1112 C8.6175,4.2792 8.7125,4.50392727 8.7205,4.74610909 C8.7295,5.01010909 8.6405,5.25774545 8.4705,5.44429091 C8.3075,5.62101818 8.0935,5.71810909 7.8635,5.71810909 L4.3605,5.71810909 C4.0625,5.71810909 3.8125,5.46065455 3.8035,5.14538182 C3.7965,4.97847273 3.8545,4.82138182 3.9625,4.70356364 M3.4345,6.16865455 C3.6865,6.4272 4.0145,6.57010909 4.3605,6.57010909 L7.8655,6.57010909 C8.3035,6.57010909 8.7135,6.38465455 9.0235,6.04647273 C9.3455,5.69629091 9.5185,5.21083636 9.5015,4.71447273 C9.4855,4.24865455 9.3045,3.81447273 8.9905,3.49265455 C8.7645,3.25701818 8.4845,3.09992727 8.1845,3.03338182 C8.0315,2.04065455 7.2335,1.2792 6.2755,1.2792 L5.9575,1.2792 C5.4415,1.2792 4.9595,1.49847273 4.5955,1.89556364 C4.2315,2.29374545 4.0315,2.82174545 4.0315,3.38247273 C4.0315,3.49374545 4.0395,3.60392727 4.0545,3.71192727 C3.8125,3.77192727 3.5885,3.90501818 3.4095,4.10029091 C3.1515,4.38392727 3.0095,4.77338182 3.0225,5.17265455 C3.0325,5.55229091 3.1795,5.90574545 3.4345,6.16865455" id="Fill-5"></path>
                    </g>
                </g>
            </g>
        </g>
    </g>
</svg>