<?xml version="1.0" encoding="utf-8"?>
<!-- Generator: Adobe Illustrator 24.0.0, SVG Export Plug-In . SVG Version: 6.00 Build 0)  -->
<svg version="1.1" id="图层_1" xmlns="http://www.w3.org/2000/svg" xmlns:xlink="http://www.w3.org/1999/xlink" x="0px" y="0px"
	 viewBox="0 0 16 16" style="enable-background:new 0 0 16 16;" xml:space="preserve">
<style type="text/css">
	.st0{fill:#C0D0D0;}
</style>
<g>
	<g>
		<g>
			<path class="st0" d="M3,12.8H2c-0.6,0-1-0.4-1-1v-7c0-0.6,0.4-1,1-1h1c0.6,0,1,0.4,1,1v7C4,12.3,3.6,12.8,3,12.8z M3,11.8v0.5
				V11.8C3,11.8,3,11.8,3,11.8z M2,4.8v7h1v-7H2z"/>
		</g>
		<g>
			<path class="st0" d="M14,12.8h-1c-0.6,0-1-0.4-1-1v-5c0-0.6,0.4-1,1-1h1c0.6,0,1,0.4,1,1v5C15,12.3,14.6,12.8,14,12.8z M14,11.8
				v0.5V11.8L14,11.8z M13,6.8v5h1v-5H13z"/>
		</g>
		<g>
			<path class="st0" d="M8.5,12.8h-1c-0.6,0-1-0.4-1-1v-10c0-0.6,0.4-1,1-1h1c0.6,0,1,0.4,1,1v10C9.5,12.3,9.1,12.8,8.5,12.8z
				 M8.5,11.8v0.5V11.8C8.5,11.8,8.5,11.8,8.5,11.8z M7.5,1.8v10h1v-10H7.5z"/>
		</g>
	</g>
	<path class="st0" d="M15,15.2H1c-0.3,0-0.5-0.2-0.5-0.5v0c0-0.3,0.2-0.5,0.5-0.5h14c0.3,0,0.5,0.2,0.5,0.5v0
		C15.5,15,15.3,15.2,15,15.2z"/>
</g>
</svg>
