<?xml version="1.0" encoding="utf-8"?>
<!-- Generator: Adobe Illustrator 24.0.0, SVG Export Plug-In . SVG Version: 6.00 Build 0)  -->
<svg version="1.1" id="图层_1" xmlns="http://www.w3.org/2000/svg" xmlns:xlink="http://www.w3.org/1999/xlink" x="0px" y="0px"
	 viewBox="0 0 10.4 15.4" style="enable-background:new 0 0 10.4 15.4;" xml:space="preserve">
<style type="text/css">
	.st0{fill:#FF4D4F;}
</style>
<path class="st0" d="M5.8,14.1c0,0.3-0.3,0.6-0.6,0.6l0,0c-0.3,0-0.6-0.3-0.6-0.6V2.6L1.2,6C1,6.2,0.6,6.2,0.4,6l0,0
	c-0.2-0.2-0.2-0.6,0-0.8l4.3-4.3C4.8,0.8,5,0.7,5.2,0.7c0.2,0,0.4,0.1,0.5,0.2L10,5.2c0.2,0.2,0.2,0.6,0,0.8l0,0
	C9.8,6.2,9.4,6.2,9.2,6L5.8,2.6C5.8,2.6,5.8,14.1,5.8,14.1z"/>
</svg>
