<?xml version="1.0" standalone="no"?><!DOCTYPE svg PUBLIC "-//W3C//DTD SVG 1.1//EN" "http://www.w3.org/Graphics/SVG/1.1/DTD/svg11.dtd"><svg class="icon" width="12px" height="12.00px" viewBox="0 0 1024 1024" version="1.1" xmlns="http://www.w3.org/2000/svg"><path d="M992 787.2H627.2c-12.8-38.4-44.8-70.4-83.2-83.2v-32h281.6c51.2 0 96-44.8 96-96V179.2c0-51.2-44.8-96-96-96H198.4c-51.2 0-96 44.8-96 96v390.4c0 51.2 44.8 96 96 96h281.6v32c-38.4 12.8-70.4 44.8-83.2 83.2H32c-19.2 0-32 12.8-32 32s12.8 32 32 32h364.8c12.8 51.2 57.6 89.6 115.2 89.6s102.4-38.4 115.2-89.6h364.8c19.2 0 32-12.8 32-32s-12.8-25.6-32-25.6zM198.4 147.2h627.2c19.2 0 32 12.8 32 32V448H166.4V179.2c0-12.8 12.8-32 32-32z m-32 422.4V512h691.2v57.6c0 19.2-12.8 32-32 32H198.4c-19.2 0-32-12.8-32-32zM512 876.8c-32 0-57.6-25.6-57.6-57.6s25.6-57.6 57.6-57.6 57.6 25.6 57.6 57.6-25.6 57.6-57.6 57.6z" fill="#3D6EC0" /></svg>