<?xml version="1.0" encoding="utf-8"?>
<!-- Generator: Adobe Illustrator 24.0.0, SVG Export Plug-In . SVG Version: 6.00 Build 0)  -->
<svg version="1.1" id="图层_1" xmlns="http://www.w3.org/2000/svg" xmlns:xlink="http://www.w3.org/1999/xlink" x="0px" y="0px"
	 viewBox="0 0 16 16" style="enable-background:new 0 0 16 16;" xml:space="preserve">
<style type="text/css">
	.st0{fill:#FFFFFF;}
</style>
<path class="st0" d="M15.8,5L12,1.2c-0.4-0.4-1.1-0.4-1.5,0l0,0L10,1.7C9.8,1.9,9.5,2,9.2,2H6.9C6.6,2,6.3,1.9,6.1,1.7L5.6,1.2
	c-0.4-0.4-1.1-0.4-1.5,0l0,0L0.3,5c-0.4,0.4-0.4,1.1,0,1.5l0,0L1.8,8c0.3,0.3,0.7,0.4,1,0.3c0.2,0,0.3,0.1,0.3,0.2V14
	c0,0.6,0.5,1.1,1.1,1.1h7.5c0.6,0,1.1-0.5,1.1-1.1V8.5c0-0.2,0.2-0.3,0.3-0.2c0.4,0.1,0.8,0,1-0.3l1.5-1.5C16.2,6.1,16.2,5.4,15.8,5
	L15.8,5z"/>
</svg>
