<?xml version="1.0" encoding="utf-8"?>
<!-- Generator: Adobe Illustrator 24.0.0, SVG Export Plug-In . SVG Version: 6.00 Build 0)  -->
<svg version="1.1" id="图层_1" xmlns="http://www.w3.org/2000/svg" xmlns:xlink="http://www.w3.org/1999/xlink" x="0px" y="0px"
	 viewBox="0 0 32 32" style="enable-background:new 0 0 32 32;" xml:space="preserve">
<style type="text/css">
	.st0{fill:#FFFFFF;}
</style>
<path class="st0" d="M1.4,29.7h29.3v1.8H1.4C1.4,31.6,1.4,29.7,1.4,29.7z"/>
<path class="st0" d="M5,13.6V26h3.7V13.6H5z M5,11.8h3.7c1,0,1.8,0.8,1.8,1.8V26c0,1-0.8,1.8-1.8,1.8H5c-1,0-1.8-0.8-1.8-1.8V13.6
	C3.2,12.6,4,11.8,5,11.8z M14.2,2.3v23.8h3.7V2.3H14.2z M14.2,0.4h3.7c1,0,1.8,0.8,1.8,1.8V26c0,1-0.8,1.8-1.8,1.8h-3.7
	c-1,0-1.8-0.8-1.8-1.8V2.3C12.3,1.3,13.2,0.4,14.2,0.4z M23.3,9.6v16.5H27V9.6H23.3z M23.3,7.8H27c1,0,1.8,0.8,1.8,1.8v16.5
	c0,1-0.8,1.8-1.8,1.8h-3.7c-1,0-1.8-0.8-1.8-1.8V9.6C21.5,8.6,22.3,7.8,23.3,7.8z"/>
</svg>
