<?xml version="1.0" encoding="UTF-8"?>
<svg width="80px" height="80px" viewBox="0 0 80 80" version="1.1" xmlns="http://www.w3.org/2000/svg" xmlns:xlink="http://www.w3.org/1999/xlink">
    <title>zichan_slice</title>
    <g id="定稿" stroke="none" stroke-width="1" fill="none" fill-rule="evenodd" opacity="0.5">
        <g id="画板" transform="translate(-430.000000, -25.000000)" fill="#F5F6FF" fill-rule="nonzero">
            <g id="zichan" transform="translate(430.000000, 25.000000)">
                <path d="M37.8254714,43.3409484 L2.1552225,25.0270287 C0.901261413,24.5224499 0.0797992145,23.3064312 0.0797992145,21.9547589 C0.0797992145,20.6030866 0.901261413,19.3870679 2.1552225,18.8824891 L37.4264753,0.568569404 C38.8628612,-0.189523135 40.5785443,-0.189523135 42.0149302,0.568569404 L77.9245767,18.8824891 C79.1785378,19.3870679 80,20.6030866 80,21.9547589 C80,23.3064312 79.1785378,24.5224499 77.9245767,25.0270287 L42.5735247,43.3409484 C41.0932492,44.1389405 39.3057468,44.1389405 37.8254714,43.3409484 L37.8254714,43.3409484 Z M77.7250787,36.7974128 C78.9720728,37.3187343 79.7839046,38.5380516 79.7839046,39.8896324 C79.7839046,41.2412131 78.9720728,42.4605304 77.7250787,42.9818519 L42.3740266,61.2957717 C40.9153128,62.016059 39.204386,62.016059 37.7456722,61.2957717 L2.07542329,42.9818519 C0.828429153,42.4605304 0.0165973951,41.2412131 0.0165973951,39.8896324 C0.0165973951,38.5380516 0.828429153,37.3187343 2.07542329,36.7974128 L4.82849619,35.4009266 L37.8254714,52.31836 C39.285797,53.036553 40.9935002,53.036553 42.4538258,52.31836 L75.051805,35.4408262 L77.7250787,36.7974128 Z M77.7250787,54.7522361 C78.9790398,55.2568148 79.800502,56.4728335 79.800502,57.8245058 C79.800502,59.1761782 78.9790398,60.3921969 77.7250787,60.8967756 L42.3740266,79.2106953 C40.924639,79.9698838 39.1950598,79.9698838 37.7456722,79.2106953 L2.07542329,60.8967756 C0.821462199,60.3921969 0,59.1761782 0,57.8245058 C0,56.4728335 0.821462199,55.2568148 2.07542329,54.7522361 L4.82849619,53.3158502 L37.8254714,70.2731833 C39.285797,70.9913762 40.9935002,70.9913762 42.4538258,70.2731833 L75.051805,53.3557498 L77.7250787,54.7522361 Z" id="形状"></path>
            </g>
        </g>
    </g>
</svg>