<?xml version="1.0" encoding="utf-8"?>
<!-- Generator: Adobe Illustrator 24.0.0, SVG Export Plug-In . SVG Version: 6.00 Build 0)  -->
<svg version="1.1" id="图层_1" xmlns="http://www.w3.org/2000/svg" xmlns:xlink="http://www.w3.org/1999/xlink" x="0px" y="0px"
	 viewBox="0 0 20 20" style="enable-background:new 0 0 20 20;" xml:space="preserve">
<style type="text/css">
	.st0{clip-path:url(#SVGID_2_);}
	.st1{clip-path:url(#SVGID_4_);fill:#FF8F3F;}
	.st2{clip-path:url(#SVGID_6_);}
	.st3{clip-path:url(#SVGID_8_);fill:#3D6EC0;}
</style>
<g>
	<g>
		<defs>
			<path id="SVGID_1_" d="M11.8,7.6L11.8,7.6h1.6L10,10.9L8.2,8.9c-0.3-0.3-0.6-0.3-0.9,0l-3.1,3.1c-0.3,0.3-0.3,0.7,0,0.9
				c0.3,0.3,0.6,0.3,0.9,0l2.7-2.7l1.9,1.9c0.3,0.3,0.6,0.3,0.9,0l3.7-3.7v1.6c0,0.3,0.3,0.6,0.6,0.6c0.3,0,0.6-0.3,0.6-0.6V7
				c0-0.3-0.3-0.6-0.6-0.6h-3.1C11.3,6.3,11,6.6,11,6.9C11,7.3,11.3,7.6,11.8,7.6"/>
		</defs>
		<clipPath id="SVGID_2_">
			<use xlink:href="#SVGID_1_"  style="overflow:visible;"/>
		</clipPath>
		<g class="st0">
			<defs>
				<rect id="SVGID_3_" x="-241.9" y="-209" width="1920" height="1080"/>
			</defs>
			<clipPath id="SVGID_4_">
				<use xlink:href="#SVGID_3_"  style="overflow:visible;"/>
			</clipPath>
			<rect x="-1" y="1.4" class="st1" width="21.4" height="16.8"/>
		</g>
	</g>
	<g>
		<defs>
			<path id="SVGID_5_" d="M10,19c-4.9,0-8.9-4-8.9-9c0-4.9,4-9,8.9-9c4.9,0,8.9,4,8.9,9S14.9,19,10,19 M10,2c-4.3,0-7.8,3.5-7.8,8
				s3.5,8,7.8,8s7.8-3.5,7.8-8S14.3,2,10,2"/>
		</defs>
		<clipPath id="SVGID_6_">
			<use xlink:href="#SVGID_5_"  style="overflow:visible;"/>
		</clipPath>
		<g class="st2">
			<defs>
				<rect id="SVGID_7_" x="-241.9" y="-209" width="1920" height="1080"/>
			</defs>
			<clipPath id="SVGID_8_">
				<use xlink:href="#SVGID_7_"  style="overflow:visible;"/>
			</clipPath>
			<rect x="-3.9" y="-4" class="st3" width="27.7" height="28"/>
		</g>
	</g>
</g>
</svg>
