<?xml version="1.0" standalone="no"?><!DOCTYPE svg PUBLIC "-//W3C//DTD SVG 1.1//EN" "http://www.w3.org/Graphics/SVG/1.1/DTD/svg11.dtd"><svg class="icon" width="20px" height="20.00px" viewBox="0 0 1024 1024" version="1.1" xmlns="http://www.w3.org/2000/svg"><path fill="#e6e6e6" d="M391.300741 775.111111c-5.499259 0-10.903704-2.085926-15.075556-6.257778l-241.777778-241.777777c-8.343704-8.343704-8.343704-21.807407 0-30.151112l241.777778-241.777777c8.343704-8.343704 21.807407-8.343704 30.151111 0l241.777778 241.777777c8.343704 8.343704 8.343704 21.807407 0 30.151112s-21.807407 8.343704-30.151111 0L391.300741 300.373333 179.674074 512l211.626667 211.626667 105.813333-105.813334c8.343704-8.343704 21.807407-8.343704 30.151111 0s8.343704 21.807407 0 30.151111L406.376296 768.853333a21.333333 21.333333 0 0 1-15.075555 6.257778zM633.078519 775.111111c-5.499259 0-10.903704-2.085926-15.075556-6.257778l-241.777778-241.777777c-8.343704-8.343704-8.343704-21.807407 0-30.151112s21.807407-8.343704 30.151111 0l226.702223 226.702223L844.705185 512 633.078519 300.373333 527.265185 406.186667c-8.343704 8.343704-21.807407 8.343704-30.151111 0s-8.343704-21.807407 0-30.151111l120.888889-120.888889c8.343704-8.343704 21.807407-8.343704 30.151111 0l241.777778 241.777777c8.343704 8.343704 8.343704 21.807407 0 30.151112l-241.777778 241.777777a21.333333 21.333333 0 0 1-15.075555 6.257778z" /></svg>