<?xml version="1.0" standalone="no"?><!DOCTYPE svg PUBLIC "-//W3C//DTD SVG 1.1//EN" "http://www.w3.org/Graphics/SVG/1.1/DTD/svg11.dtd"><svg class="icon" width="16px" height="16.00px" viewBox="0 0 1024 1024" version="1.1" xmlns="http://www.w3.org/2000/svg"><path d="M852.958686 819.244906a102.369699 102.369699 0 0 0-96.227516 68.246466H204.617262V546.259043h552.113908a102.369699 102.369699 0 1 0 0-68.246465H204.617262V198.884533a102.369699 102.369699 0 1 0-68.246466 0V921.614605a34.123233 34.123233 0 0 0 34.123233 34.123233h586.237141a102.369699 102.369699 0 1 0 96.227516-136.492932z m0-341.232328a34.123233 34.123233 0 1 1-34.123232 34.123232 34.123233 34.123233 0 0 1 34.123232-34.123232z m-682.464657-409.478795a34.123233 34.123233 0 1 1-34.123233 34.123233 34.123233 34.123233 0 0 1 34.123233-34.123233z m682.464657 887.204055a34.123233 34.123233 0 1 1 34.123233-34.123233 34.123233 34.123233 0 0 1-34.123233 34.123233z" fill="#ffffff" /></svg>