<?xml version="1.0" encoding="utf-8"?>
<!-- Generator: Adobe Illustrator 24.0.0, SVG Export Plug-In . SVG Version: 6.00 Build 0)  -->
<svg version="1.1" id="图层_1" xmlns="http://www.w3.org/2000/svg" xmlns:xlink="http://www.w3.org/1999/xlink" x="0px" y="0px"
	 viewBox="0 0 16 16" style="enable-background:new 0 0 16 16;" xml:space="preserve">
<style type="text/css">
	.st0{fill:#C0D0D0;}
</style>
<g>
	<path class="st0" d="M6.9,1.7v5.5c0,1.4,0.5,1.9,1.9,1.9h5.5c-0.3,2.1-1.7,4-3.7,4.9C8.7,14.8,6.9,14.8,5,14
		c-1.4-0.6-2.5-1.8-3.1-3.2c-0.7-1.6-0.8-3.3-0.2-5c0.6-1.7,1.8-2.9,3.4-3.6C5.7,1.9,6.3,1.8,6.9,1.7 M7.9,0.6c-1,0-2.1,0.2-3.1,0.7
		C1,3-0.6,7.4,1.1,11.2c1.3,2.8,4,4.4,6.8,4.4c1,0,2.1-0.2,3.1-0.7c2.8-1.3,4.4-4,4.4-6.8h-7c-0.3,0-0.5-0.2-0.5-0.5L7.9,0.6
		L7.9,0.6L7.9,0.6z"/>
	<path class="st0" d="M9.3,1.4c1.4,0.2,2.6,0.8,3.5,1.8c1,1,1.6,2.3,1.8,3.5H9.3C9.3,5.4,9.3,2.7,9.3,1.4 M8.4,0.4L8.4,0.4
		c0,0,0,4.4,0,6.3c0,0.5,0.4,0.9,0.9,0.9c1.9,0,6.3,0,6.3,0C15.6,3.6,12.4,0.4,8.4,0.4L8.4,0.4z"/>
</g>
</svg>
