<?xml version="1.0" standalone="no"?><!DOCTYPE svg PUBLIC "-//W3C//DTD SVG 1.1//EN" "http://www.w3.org/Graphics/SVG/1.1/DTD/svg11.dtd"><svg class="icon" width="14px" height="14.00px" viewBox="0 0 1024 1024" version="1.1" xmlns="http://www.w3.org/2000/svg"><path d="M916.27 221.25L771.8 105.29C765.1 99.99 756 97 746.56 97H132.99C113.11 97 97 109.89 97 125.8v770.73c0 15.94 16.45 30.47 36.32 30.47h758.29c19.87 0 35.39-17.62 35.39-33.55V241.79c0.01-7.74-3.88-15.1-10.73-20.54z m-35.61 664.34l-737.41-1.03 0.49-745.94 552.72-0.2v109.55c0 9.53 7.13 14.7 19.09 14.7l164.53 0.2 0.58 622.72zM742.1 386.92H281.91c-0.25 0-0.46-0.19-0.46-0.42v-40.59c0-0.23 0.21-0.41 0.46-0.41H742.1c0.25 0 0.46 0.19 0.46 0.41v40.59c0 0.23-0.21 0.42-0.46 0.42z m0 124.25H281.91c-0.25 0-0.46-0.18-0.46-0.41v-40.59c0-0.23 0.21-0.42 0.46-0.42H742.1c0.25 0 0.46 0.19 0.46 0.42v40.59c0 0.23-0.21 0.41-0.46 0.41z m0 124.25H281.91c-0.25 0-0.46-0.18-0.46-0.41v-40.59c0-0.23 0.21-0.41 0.46-0.41H742.1c0.25 0 0.46 0.18 0.46 0.41v40.59c0 0.23-0.21 0.41-0.46 0.41z m0 124.25H281.91c-0.25 0-0.46-0.18-0.46-0.41v-40.59c0-0.23 0.21-0.41 0.46-0.41H742.1c0.25 0 0.46 0.18 0.46 0.41v40.59c0 0.23-0.21 0.41-0.46 0.41z m0 0" fill="#ffffff" /></svg>